%TF.GenerationSoftware,KiCad,Pcbnew,(5.1.9-16-g1737927814)-1*%
%TF.CreationDate,2021-05-19T21:13:25-05:00*%
%TF.ProjectId,bluepill_scsi,626c7565-7069-46c6-9c5f-736373692e6b,rev?*%
%TF.SameCoordinates,Original*%
%TF.FileFunction,Soldermask,Bot*%
%TF.FilePolarity,Negative*%
%FSLAX46Y46*%
G04 Gerber Fmt 4.6, Leading zero omitted, Abs format (unit mm)*
G04 Created by KiCad (PCBNEW (5.1.9-16-g1737927814)-1) date 2021-05-19 21:13:25*
%MOMM*%
%LPD*%
G01*
G04 APERTURE LIST*
%TA.AperFunction,Profile*%
%ADD10C,0.050000*%
%TD*%
%ADD11C,1.500000*%
%ADD12C,1.700000*%
%ADD13O,1.700000X1.700000*%
%ADD14R,1.700000X1.700000*%
%ADD15O,0.800000X0.800000*%
%ADD16O,1.150000X1.800000*%
%ADD17O,1.450000X2.000000*%
%ADD18O,2.250000X1.727200*%
%ADD19R,2.250000X1.727200*%
%ADD20C,2.700000*%
%ADD21R,1.250000X1.250000*%
%ADD22C,1.250000*%
G04 APERTURE END LIST*
D10*
X71755000Y-149225000D02*
X71120000Y-149225000D01*
X71120000Y-147955000D02*
X71120000Y-149225000D01*
X114935000Y-149225000D02*
X71755000Y-149225000D01*
X114935000Y-147955000D02*
X114935000Y-149225000D01*
X114935000Y-75565000D02*
X71120000Y-75565000D01*
X114935000Y-147955000D02*
X114935000Y-75565000D01*
X71120000Y-147955000D02*
X71120000Y-75565000D01*
D11*
%TO.C,TP6*%
X88519000Y-144907000D03*
%TD*%
%TO.C,TP1*%
X83185000Y-77343000D03*
%TD*%
D12*
%TO.C,J5*%
X107315000Y-81915000D03*
X107315000Y-84455000D03*
X107315000Y-86995000D03*
X107315000Y-89535000D03*
X107315000Y-92075000D03*
X107315000Y-94615000D03*
X107315000Y-97155000D03*
X107315000Y-99695000D03*
X107315000Y-102235000D03*
X107315000Y-104775000D03*
X107315000Y-107315000D03*
X107315000Y-109855000D03*
X107315000Y-112395000D03*
X107315000Y-114935000D03*
X107315000Y-117475000D03*
X107315000Y-120015000D03*
X107315000Y-122555000D03*
X107315000Y-125095000D03*
X107315000Y-127635000D03*
X107315000Y-130175000D03*
X107315000Y-132715000D03*
X107315000Y-135255000D03*
X107315000Y-137795000D03*
X107315000Y-140335000D03*
X107315000Y-142875000D03*
X109855000Y-81915000D03*
X109855000Y-84455000D03*
X109855000Y-86995000D03*
X109855000Y-89535000D03*
X109855000Y-92075000D03*
X109855000Y-94615000D03*
X109855000Y-97155000D03*
X109855000Y-99695000D03*
X109855000Y-102235000D03*
X109855000Y-104775000D03*
X109855000Y-107315000D03*
X109855000Y-109855000D03*
X109855000Y-112395000D03*
X109855000Y-114935000D03*
X109855000Y-117475000D03*
X109855000Y-120015000D03*
X109855000Y-122555000D03*
X109855000Y-125095000D03*
X109855000Y-127635000D03*
X109855000Y-130175000D03*
X109855000Y-132715000D03*
X109855000Y-135255000D03*
X109855000Y-137795000D03*
X109855000Y-140335000D03*
G36*
G01*
X110705000Y-142275000D02*
X110705000Y-143475000D01*
G75*
G02*
X110455000Y-143725000I-250000J0D01*
G01*
X109255000Y-143725000D01*
G75*
G02*
X109005000Y-143475000I0J250000D01*
G01*
X109005000Y-142275000D01*
G75*
G02*
X109255000Y-142025000I250000J0D01*
G01*
X110455000Y-142025000D01*
G75*
G02*
X110705000Y-142275000I0J-250000D01*
G01*
G37*
%TD*%
D13*
%TO.C,J8*%
X73279000Y-138811000D03*
X73279000Y-141351000D03*
X73279000Y-143891000D03*
D14*
X73279000Y-146431000D03*
%TD*%
D13*
%TO.C,J7*%
X81661000Y-131191000D03*
X79121000Y-131191000D03*
X81661000Y-128651000D03*
X79121000Y-128651000D03*
X81661000Y-126111000D03*
D14*
X79121000Y-126111000D03*
%TD*%
D13*
%TO.C,J2*%
X79629000Y-93345000D03*
X82169000Y-93345000D03*
X84709000Y-93345000D03*
D14*
X87249000Y-93345000D03*
%TD*%
D15*
%TO.C,J3*%
X81193000Y-79667000D03*
X86193000Y-79667000D03*
D16*
X79818000Y-76917000D03*
X87568000Y-76917000D03*
D17*
X79968000Y-80717000D03*
X87418000Y-80717000D03*
%TD*%
D18*
%TO.C,U3*%
X90805000Y-83083400D03*
X90805000Y-85674200D03*
X90805000Y-88214200D03*
X90805000Y-90754200D03*
X90805000Y-93294200D03*
X90805000Y-95834200D03*
X90805000Y-98374200D03*
X90805000Y-100914200D03*
X90805000Y-103454200D03*
X90805000Y-105994200D03*
X90805000Y-108534200D03*
X90805000Y-111074200D03*
X90805000Y-113614200D03*
X90805000Y-116154200D03*
X90805000Y-118694200D03*
X90805000Y-121234200D03*
X90805000Y-123774200D03*
X90805000Y-126314200D03*
X90805000Y-128854200D03*
X90805000Y-131394200D03*
X75565000Y-131394200D03*
X75565000Y-128854200D03*
X75565000Y-126314200D03*
X75565000Y-123774200D03*
X75565000Y-121234200D03*
X75565000Y-118694200D03*
X75565000Y-116154200D03*
X75565000Y-113614200D03*
X75565000Y-111074200D03*
X75565000Y-108534200D03*
X75565000Y-105994200D03*
X75565000Y-103454200D03*
X75565000Y-100914200D03*
X75565000Y-98374200D03*
X75565000Y-95834200D03*
X75565000Y-93294200D03*
X75565000Y-90754200D03*
X75565000Y-88214200D03*
X75565000Y-85674200D03*
D19*
X75565000Y-83134200D03*
%TD*%
D20*
%TO.C,H1*%
X75057000Y-78867000D03*
%TD*%
D14*
%TO.C,JP1*%
X100965000Y-80645000D03*
D13*
X100965000Y-78105000D03*
%TD*%
%TO.C,JP2*%
X97155000Y-78105000D03*
D14*
X97155000Y-80645000D03*
%TD*%
D21*
%TO.C,J4*%
X93345000Y-144145000D03*
D22*
X95845000Y-144145000D03*
X98345000Y-144145000D03*
X100845000Y-144145000D03*
%TD*%
M02*
