M48
; DRILL file {KiCad (5.1.9-16-g1737927814)-1} date 05/19/21 21:13:27
; FORMAT={-:-/ absolute / inch / decimal}
; #@! TF.CreationDate,2021-05-19T21:13:27-05:00
; #@! TF.GenerationSoftware,Kicad,Pcbnew,(5.1.9-16-g1737927814)-1
; #@! TF.FileFunction,Plated,1,2,PTH
FMAT,2
INCH
T1C0.0118
T2C0.0157
T3C0.0217
T4C0.0335
T5C0.0354
T6C0.0394
T7C0.0400
%
G90
G05
T1
X2.8207Y-4.075
X2.8236Y-4.533
X2.835Y-5.255
X2.8364Y-4.175
X2.8364Y-4.655
X2.843Y-5.2855
X2.8522Y-4.285
X2.855Y-4.415
X2.855Y-5.145
X2.865Y-3.655
X2.865Y-3.865
X2.865Y-4.845
X2.8707Y-4.5793
X2.885Y-4.125
X2.8863Y-4.7602
X2.895Y-4.225
X2.895Y-5.2966
X2.9286Y-4.8277
X2.955Y-5.715
X3.005Y-5.665
X3.0088Y-4.8232
X3.0299Y-4.7131
X3.0314Y-3.905
X3.036Y-4.839
X3.0547Y-4.5675
X3.055Y-4.535
X3.065Y-4.465
X3.065Y-5.195
X3.065Y-5.2966
X3.0658Y-4.9167
X3.085Y-4.705
X3.085Y-4.7365
X3.0886Y-4.075
X3.095Y-3.985
X3.105Y-3.775
X3.1081Y-4.8319
X3.1096Y-4.8638
X3.1144Y-4.7212
X3.1301Y-4.5793
X3.135Y-5.675
X3.1386Y-4.305
X3.1404Y-4.3948
X3.145Y-3.245
X3.1514Y-4.7842
X3.1628Y-4.3727
X3.165Y-4.905
X3.175Y-4.095
X3.175Y-5.235
X3.175Y-5.675
X3.175Y-5.785
X3.1818Y-4.5492
X3.1821Y-4.5887
X3.185Y-4.3486
X3.185Y-4.625
X3.1851Y-4.5177
X3.199Y-4.4895
X3.2086Y-4.8116
X3.2096Y-4.6447
X3.2102Y-4.0982
X3.215Y-5.285
X3.215Y-5.675
X3.2318Y-4.551
X3.2318Y-4.3028
X3.2365Y-4.8262
X3.2526Y-4.6141
X3.2541Y-3.9405
X3.2597Y-4.4379
X3.2666Y-4.5859
X3.2734Y-4.3571
X3.275Y-4.925
X3.2763Y-4.7175
X3.285Y-3.405
X3.285Y-4.965
X3.2856Y-4.4201
X3.2908Y-5.2586
X3.2988Y-4.6955
X3.3105Y-4.535
X3.3138Y-4.5822
X3.315Y-4.825
X3.3247Y-4.4485
X3.3263Y-4.3103
X3.335Y-3.005
X3.3374Y-3.3999
X3.3391Y-4.6678
X3.345Y-5.685
X3.3479Y-4.159
X3.3516Y-4.6386
X3.365Y-5.415
X3.3686Y-4.3571
X3.3762Y-4.1083
X3.385Y-5.195
X3.3908Y-4.8026
X3.395Y-4.6146
X3.4041Y-4.964
X3.405Y-5.535
X3.4055Y-4.5345
X3.4267Y-4.7701
X3.4363Y-4.7042
X3.4458Y-4.3939
X3.4644Y-3.9709
X3.4736Y-4.4344
X3.475Y-4.675
X3.4756Y-4.4666
X3.4779Y-4.3943
X3.4851Y-4.9285
X3.4893Y-3.9515
X3.495Y-3.735
X3.495Y-4.775
X3.4958Y-4.1032
X3.5014Y-3.4267
X3.5033Y-4.8667
X3.505Y-3.825
X3.5063Y-4.5239
X3.5185Y-4.721
X3.5186Y-3.7725
X3.5227Y-4.6652
X3.525Y-3.325
X3.525Y-4.335
X3.5256Y-4.4362
X3.5276Y-4.6341
X3.545Y-5.255
X3.575Y-5.365
X3.6226Y-4.1255
X3.635Y-5.755
X3.655Y-4.375
X3.6714Y-4.8385
X3.6814Y-4.915
X3.683Y-4.073
X3.6912Y-5.0188
X3.6986Y-3.841
X3.7011Y-3.6226
X3.7014Y-4.1352
X3.7026Y-5.1604
X3.705Y-4.805
X3.705Y-4.875
X3.705Y-5.255
X3.7071Y-3.538
X3.7108Y-4.2597
X3.7126Y-4.4292
X3.715Y-3.735
X3.7152Y-4.665
X3.725Y-4.525
X3.7266Y-4.225
X3.7266Y-4.7471
X3.7341Y-5.061
X3.735Y-3.5617
X3.7388Y-4.6188
X3.7431Y-5.4194
X3.7444Y-4.9709
X3.7486Y-3.8256
X3.7516Y-3.9327
X3.755Y-3.685
X3.7637Y-5.5083
X3.7788Y-3.4262
X3.7897Y-3.6837
X3.835Y-4.325
X3.8395Y-4.175
X3.945Y-3.505
X3.955Y-3.315
X3.955Y-3.415
X3.955Y-3.605
X3.955Y-3.785
T2
X2.845Y-5.335
X3.175Y-3.795
X3.185Y-3.585
X3.2568Y-5.2848
X3.265Y-5.675
X3.2738Y-3.475
X3.28Y-3.58
X3.365Y-3.425
X3.395Y-3.295
X3.4007Y-5.0231
X3.4034Y-4.8538
X3.4266Y-4.3521
X3.4305Y-5.2895
X3.435Y-3.795
X3.445Y-3.425
X3.445Y-3.605
X3.465Y-3.275
X3.475Y-3.325
X3.505Y-3.235
X3.625Y-5.485
X3.6377Y-5.3469
X3.695Y-3.3065
X3.6974Y-4.1896
X3.735Y-3.105
X3.7673Y-3.3927
X3.805Y-3.275
X3.805Y-3.365
X3.805Y-3.455
X3.805Y-3.555
X3.805Y-3.645
X3.805Y-4.825
X3.805Y-4.915
X3.805Y-5.095
X3.805Y-5.535
X3.8056Y-5.0055
X3.8084Y-4.1226
X3.8093Y-5.185
X3.8093Y-5.265
X3.8093Y-5.355
X3.8093Y-5.445
X3.8156Y-3.8329
X3.8173Y-3.7444
X3.8185Y-3.925
X4.0919Y-3.2735
X4.0934Y-3.7435
X4.0935Y-3.365
X4.0935Y-3.455
X4.0935Y-3.555
X4.0935Y-3.655
X4.0935Y-3.835
X4.0935Y-3.925
X4.0935Y-4.125
X4.0938Y-5.5362
X4.095Y-4.825
X4.095Y-4.915
X4.095Y-5.005
X4.095Y-5.095
X4.095Y-5.185
X4.095Y-5.275
X4.095Y-5.355
X4.095Y-5.445
X4.125Y-3.035
X4.135Y-4.405
T5
X3.675Y-5.675
X3.7734Y-5.675
X3.8719Y-5.675
X3.9703Y-5.675
T6
X2.885Y-5.465
X2.885Y-5.565
X2.885Y-5.665
X2.885Y-5.765
X3.115Y-4.965
X3.115Y-5.065
X3.115Y-5.165
X3.135Y-3.675
X3.215Y-4.965
X3.215Y-5.065
X3.215Y-5.165
X3.235Y-3.675
X3.335Y-3.675
X3.435Y-3.675
X3.825Y-3.075
X3.825Y-3.175
X3.975Y-3.075
X3.975Y-3.175
X4.225Y-3.225
X4.225Y-3.325
X4.225Y-3.425
X4.225Y-3.525
X4.225Y-3.625
X4.225Y-3.725
X4.225Y-3.825
X4.225Y-3.925
X4.225Y-4.025
X4.225Y-4.125
X4.225Y-4.225
X4.225Y-4.325
X4.225Y-4.425
X4.225Y-4.525
X4.225Y-4.625
X4.225Y-4.725
X4.225Y-4.825
X4.225Y-4.925
X4.225Y-5.025
X4.225Y-5.125
X4.225Y-5.225
X4.225Y-5.325
X4.225Y-5.425
X4.225Y-5.525
X4.225Y-5.625
X4.325Y-3.225
X4.325Y-3.325
X4.325Y-3.425
X4.325Y-3.525
X4.325Y-3.625
X4.325Y-3.725
X4.325Y-3.825
X4.325Y-3.925
X4.325Y-4.025
X4.325Y-4.125
X4.325Y-4.225
X4.325Y-4.325
X4.325Y-4.425
X4.325Y-4.525
X4.325Y-4.625
X4.325Y-4.725
X4.325Y-4.825
X4.325Y-4.925
X4.325Y-5.025
X4.325Y-5.125
X4.325Y-5.225
X4.325Y-5.325
X4.325Y-5.425
X4.325Y-5.525
X4.325Y-5.625
T7
X2.975Y-3.273
X2.975Y-3.373
X2.975Y-3.473
X2.975Y-3.573
X2.975Y-3.673
X2.975Y-3.773
X2.975Y-3.873
X2.975Y-3.973
X2.975Y-4.073
X2.975Y-4.173
X2.975Y-4.273
X2.975Y-4.373
X2.975Y-4.473
X2.975Y-4.573
X2.975Y-4.673
X2.975Y-4.773
X2.975Y-4.873
X2.975Y-4.973
X2.975Y-5.073
X2.975Y-5.173
X3.575Y-3.271
X3.575Y-3.373
X3.575Y-3.473
X3.575Y-3.573
X3.575Y-3.673
X3.575Y-3.773
X3.575Y-3.873
X3.575Y-3.973
X3.575Y-4.073
X3.575Y-4.173
X3.575Y-4.273
X3.575Y-4.373
X3.575Y-4.473
X3.575Y-4.573
X3.575Y-4.673
X3.575Y-4.773
X3.575Y-4.873
X3.575Y-4.973
X3.575Y-5.073
X3.575Y-5.173
T3
G00X3.1424Y-3.041
M15
G01X3.1424Y-3.0154
M16
G05
G00X3.4476Y-3.041
M15
G01X3.4476Y-3.0154
M16
G05
T4
G00X3.1483Y-3.1887
M15
G01X3.1483Y-3.167
M16
G05
G00X3.4417Y-3.1887
M15
G01X3.4417Y-3.167
M16
G05
T0
M30
