M48
; DRILL file {KiCad (5.1.7-0-10_14)} date Thursday, May 27, 2021 at 08:48:52 PM
; FORMAT={-:-/ absolute / inch / decimal}
; #@! TF.CreationDate,2021-05-27T20:48:52-05:00
; #@! TF.GenerationSoftware,Kicad,Pcbnew,(5.1.7-0-10_14)
; #@! TF.FileFunction,Plated,1,2,PTH
FMAT,2
INCH
T1C0.0118
T2C0.0157
T3C0.0197
T4C0.0217
T5C0.0335
T6C0.0354
T7C0.0394
T8C0.0400
T9C0.0433
%
G90
G05
T1
X2.8207Y-4.1578
X2.8236Y-4.533
X2.835Y-5.255
X2.8364Y-4.655
X2.8412Y-4.1817
X2.843Y-5.2855
X2.8522Y-4.2145
X2.855Y-4.415
X2.855Y-5.145
X2.8576Y-4.845
X2.8645Y-3.6535
X2.866Y-4.105
X2.8675Y-3.9005
X2.8701Y-4.5793
X2.8709Y-4.7649
X2.8764Y-5.3206
X2.8935Y-4.296
X2.904Y-5.386
X2.9095Y-4.359
X2.9404Y-4.8251
X3.0088Y-4.8232
X3.0091Y-5.665
X3.0224Y-4.7341
X3.0314Y-3.905
X3.0409Y-5.3034
X3.0534Y-4.535
X3.054Y-4.2835
X3.0547Y-4.5784
X3.0547Y-4.9567
X3.0552Y-4.9926
X3.065Y-4.465
X3.071Y-4.7304
X3.0735Y-4.8962
X3.0735Y-4.697
X3.075Y-5.2751
X3.085Y-3.769
X3.0886Y-4.075
X3.091Y-4.87
X3.095Y-3.985
X3.1054Y-4.9419
X3.1085Y-4.3225
X3.1165Y-5.4665
X3.118Y-5.3815
X3.1345Y-4.558
X3.1346Y-4.7805
X3.135Y-5.675
X3.1355Y-5.073
X3.1368Y-4.88
X3.1406Y-4.3949
X3.1515Y-4.2965
X3.1525Y-5.6085
X3.1628Y-4.3726
X3.1665Y-5.1985
X3.1714Y-4.0892
X3.1743Y-4.9462
X3.1775Y-4.8055
X3.1821Y-4.5887
X3.1826Y-4.5489
X3.183Y-4.6202
X3.183Y-4.1295
X3.185Y-3.332
X3.185Y-3.4325
X3.185Y-4.3486
X3.1851Y-4.5175
X3.1917Y-5.0708
X3.1991Y-4.4893
X3.2Y-4.6495
X3.209Y-4.945
X3.2109Y-4.8123
X3.2116Y-5.2564
X3.215Y-4.0885
X3.215Y-5.675
X3.2289Y-4.9722
X3.2318Y-4.551
X3.2318Y-4.3028
X3.237Y-5.3485
X3.251Y-4.671
X3.2526Y-4.6141
X3.2541Y-3.9405
X3.2601Y-4.4374
X3.263Y-4.8325
X3.2666Y-4.5859
X3.2734Y-4.3571
X3.277Y-4.7182
X3.285Y-3.405
X3.2864Y-4.4201
X3.2908Y-5.2586
X3.2988Y-4.6955
X3.3005Y-5.4215
X3.306Y-5.6505
X3.3105Y-4.535
X3.3138Y-4.5822
X3.3187Y-4.8239
X3.3247Y-4.4485
X3.3263Y-4.3103
X3.335Y-3.005
X3.335Y-3.773
X3.3374Y-3.3999
X3.3391Y-4.6678
X3.342Y-3.8875
X3.345Y-5.685
X3.347Y-4.0901
X3.3479Y-4.159
X3.3516Y-4.6386
X3.365Y-5.415
X3.3686Y-4.3571
X3.371Y-4.897
X3.3782Y-4.1103
X3.385Y-5.195
X3.3908Y-4.8026
X3.395Y-4.6146
X3.4041Y-4.964
X3.405Y-5.535
X3.4055Y-4.5345
X3.4266Y-3.8164
X3.4267Y-4.7701
X3.434Y-5.2495
X3.4363Y-4.7042
X3.4458Y-4.3939
X3.4559Y-3.9783
X3.4736Y-4.4344
X3.475Y-4.675
X3.4756Y-4.4666
X3.4779Y-3.9558
X3.4779Y-4.3943
X3.495Y-4.775
X3.4953Y-3.8665
X3.4958Y-4.1032
X3.4958Y-3.7358
X3.5014Y-3.4267
X3.5015Y-3.9235
X3.505Y-3.825
X3.5059Y-4.0124
X3.5063Y-4.5239
X3.5185Y-4.721
X3.5186Y-3.7725
X3.5227Y-4.6652
X3.525Y-3.325
X3.525Y-4.335
X3.5256Y-4.4362
X3.5276Y-4.6341
X3.584Y-5.273
X3.5875Y-5.365
X3.6226Y-4.1255
X3.6395Y-4.8692
X3.6449Y-4.375
X3.6494Y-5.1945
X3.66Y-4.9255
X3.6626Y-4.777
X3.683Y-4.073
X3.6986Y-3.841
X3.7011Y-3.6226
X3.7014Y-4.1352
X3.7046Y-5.022
X3.7071Y-3.538
X3.7108Y-4.2597
X3.7126Y-4.4292
X3.715Y-3.735
X3.7152Y-4.665
X3.725Y-4.525
X3.7266Y-4.225
X3.7266Y-4.7471
X3.7341Y-5.061
X3.735Y-3.5617
X3.735Y-4.8549
X3.7388Y-4.6188
X3.7431Y-5.4194
X3.7444Y-4.9709
X3.7486Y-3.8256
X3.7516Y-3.9327
X3.7537Y-3.6811
X3.7637Y-5.5083
X3.7788Y-3.4262
X3.78Y-3.09
X3.7897Y-3.6784
X3.835Y-4.325
X3.8395Y-4.175
X3.945Y-3.505
X3.955Y-3.315
X3.955Y-3.605
X3.955Y-3.785
T2
X2.9785Y-5.6325
X2.9785Y-5.7515
X3.175Y-3.795
X3.185Y-3.585
X3.2628Y-5.2844
X3.265Y-5.6491
X3.2738Y-3.475
X3.28Y-3.58
X3.365Y-3.425
X3.395Y-3.295
X3.4266Y-4.3521
X3.445Y-3.605
X3.465Y-3.275
X3.6915Y-3.104
X3.695Y-3.4649
X3.6974Y-4.1896
X3.702Y-3.2095
X3.805Y-3.2984
X3.805Y-3.3772
X3.805Y-3.455
X3.805Y-3.555
X3.805Y-3.645
X3.805Y-5.095
X3.805Y-5.535
X3.8056Y-5.0055
X3.8077Y-3.2433
X3.8084Y-4.1226
X3.8093Y-5.185
X3.8093Y-5.265
X3.8093Y-5.355
X3.8093Y-5.445
X3.8156Y-3.8329
X3.8173Y-3.7444
X3.8185Y-3.925
X3.8194Y-4.917
X3.8302Y-4.8109
X4.0919Y-3.2735
X4.092Y-3.1765
X4.0934Y-3.7435
X4.0935Y-3.365
X4.0935Y-3.455
X4.0935Y-3.555
X4.0935Y-3.655
X4.0935Y-3.835
X4.0935Y-3.925
X4.0935Y-4.125
X4.0938Y-5.5362
X4.095Y-4.825
X4.095Y-4.915
X4.095Y-5.005
X4.095Y-5.095
X4.095Y-5.185
X4.095Y-5.275
X4.095Y-5.355
X4.095Y-5.445
X4.1105Y-3.0495
X4.135Y-4.405
T3
X3.621Y-5.827
X3.035Y-5.827
X3.2024Y-5.827
X3.4536Y-5.827
X3.1187Y-5.827
X3.3699Y-5.827
X3.5373Y-5.827
X3.2861Y-5.827
T6
X3.675Y-5.675
X3.7734Y-5.675
X3.8719Y-5.675
X3.9703Y-5.675
T7
X2.885Y-5.465
X2.885Y-5.565
X2.885Y-5.665
X2.885Y-5.765
X3.135Y-3.675
X3.235Y-3.675
X3.335Y-3.675
X3.435Y-3.675
X4.225Y-3.225
X4.225Y-3.325
X4.225Y-3.425
X4.225Y-3.525
X4.225Y-3.625
X4.225Y-3.725
X4.225Y-3.825
X4.225Y-3.925
X4.225Y-4.025
X4.225Y-4.125
X4.225Y-4.225
X4.225Y-4.325
X4.225Y-4.425
X4.225Y-4.525
X4.225Y-4.625
X4.225Y-4.725
X4.225Y-4.825
X4.225Y-4.925
X4.225Y-5.025
X4.225Y-5.125
X4.225Y-5.225
X4.225Y-5.325
X4.225Y-5.425
X4.225Y-5.525
X4.225Y-5.625
X4.325Y-3.225
X4.325Y-3.325
X4.325Y-3.425
X4.325Y-3.525
X4.325Y-3.625
X4.325Y-3.725
X4.325Y-3.825
X4.325Y-3.925
X4.325Y-4.025
X4.325Y-4.125
X4.325Y-4.225
X4.325Y-4.325
X4.325Y-4.425
X4.325Y-4.525
X4.325Y-4.625
X4.325Y-4.725
X4.325Y-4.825
X4.325Y-4.925
X4.325Y-5.025
X4.325Y-5.125
X4.325Y-5.225
X4.325Y-5.325
X4.325Y-5.425
X4.325Y-5.525
X4.325Y-5.625
X3.908Y-3.0735
X3.908Y-3.1735
X4.008Y-3.0735
X4.008Y-3.1735
T8
X2.975Y-3.273
X2.975Y-3.373
X2.975Y-3.473
X2.975Y-3.573
X2.975Y-3.673
X2.975Y-3.773
X2.975Y-3.873
X2.975Y-3.973
X2.975Y-4.073
X2.975Y-4.173
X2.975Y-4.273
X2.975Y-4.373
X2.975Y-4.473
X2.975Y-4.573
X2.975Y-4.673
X2.975Y-4.773
X2.975Y-4.873
X2.975Y-4.973
X2.975Y-5.073
X2.975Y-5.173
X3.575Y-3.271
X3.575Y-3.373
X3.575Y-3.473
X3.575Y-3.573
X3.575Y-3.673
X3.575Y-3.773
X3.575Y-3.873
X3.575Y-3.973
X3.575Y-4.073
X3.575Y-4.173
X3.575Y-4.273
X3.575Y-4.373
X3.575Y-4.473
X3.575Y-4.573
X3.575Y-4.673
X3.575Y-4.773
X3.575Y-4.873
X3.575Y-4.973
X3.575Y-5.073
X3.575Y-5.173
T9
X3.2783Y-4.8901
X3.2783Y-5.146
X3.4555Y-4.8901
X3.4555Y-5.146
T4
G00X3.1424Y-3.041
M15
G01X3.1424Y-3.0154
M16
G05
G00X3.4476Y-3.041
M15
G01X3.4476Y-3.0154
M16
G05
T5
G00X3.1483Y-3.1887
M15
G01X3.1483Y-3.167
M16
G05
G00X3.4417Y-3.1887
M15
G01X3.4417Y-3.167
M16
G05
T0
M30
