%TF.GenerationSoftware,KiCad,Pcbnew,(5.1.7-0-10_14)*%
%TF.CreationDate,2021-05-27T20:48:50-05:00*%
%TF.ProjectId,bluepill_scsi,626c7565-7069-46c6-9c5f-736373692e6b,rev?*%
%TF.SameCoordinates,Original*%
%TF.FileFunction,Legend,Top*%
%TF.FilePolarity,Positive*%
%FSLAX46Y46*%
G04 Gerber Fmt 4.6, Leading zero omitted, Abs format (unit mm)*
G04 Created by KiCad (PCBNEW (5.1.7-0-10_14)) date 2021-05-27 20:48:50*
%MOMM*%
%LPD*%
G01*
G04 APERTURE LIST*
%ADD10C,0.100000*%
%ADD11C,0.120000*%
%ADD12C,0.150000*%
%TA.AperFunction,Profile*%
%ADD13C,0.050000*%
%TD*%
%ADD14C,0.300000*%
%ADD15C,0.127000*%
%ADD16C,0.200000*%
G04 APERTURE END LIST*
D10*
X72263066Y-89007200D02*
X72196400Y-88973866D01*
X72096400Y-88973866D01*
X71996400Y-89007200D01*
X71929733Y-89073866D01*
X71896400Y-89140533D01*
X71863066Y-89273866D01*
X71863066Y-89373866D01*
X71896400Y-89507200D01*
X71929733Y-89573866D01*
X71996400Y-89640533D01*
X72096400Y-89673866D01*
X72163066Y-89673866D01*
X72263066Y-89640533D01*
X72296400Y-89607200D01*
X72296400Y-89373866D01*
X72163066Y-89373866D01*
X72596400Y-89673866D02*
X72596400Y-88973866D01*
X72996400Y-89673866D01*
X72996400Y-88973866D01*
X73329733Y-89673866D02*
X73329733Y-88973866D01*
X73496400Y-88973866D01*
X73596400Y-89007200D01*
X73663066Y-89073866D01*
X73696400Y-89140533D01*
X73729733Y-89273866D01*
X73729733Y-89373866D01*
X73696400Y-89507200D01*
X73663066Y-89573866D01*
X73596400Y-89640533D01*
X73496400Y-89673866D01*
X73329733Y-89673866D01*
D11*
X83439000Y-111633000D02*
G75*
G03*
X83439000Y-111633000I-254000J0D01*
G01*
D10*
X77804333Y-83436666D02*
X77804333Y-84003333D01*
X77837666Y-84070000D01*
X77871000Y-84103333D01*
X77937666Y-84136666D01*
X78071000Y-84136666D01*
X78137666Y-84103333D01*
X78171000Y-84070000D01*
X78204333Y-84003333D01*
X78204333Y-83436666D01*
X78504333Y-84103333D02*
X78604333Y-84136666D01*
X78771000Y-84136666D01*
X78837666Y-84103333D01*
X78871000Y-84070000D01*
X78904333Y-84003333D01*
X78904333Y-83936666D01*
X78871000Y-83870000D01*
X78837666Y-83836666D01*
X78771000Y-83803333D01*
X78637666Y-83770000D01*
X78571000Y-83736666D01*
X78537666Y-83703333D01*
X78504333Y-83636666D01*
X78504333Y-83570000D01*
X78537666Y-83503333D01*
X78571000Y-83470000D01*
X78637666Y-83436666D01*
X78804333Y-83436666D01*
X78904333Y-83470000D01*
X79437666Y-83770000D02*
X79537666Y-83803333D01*
X79571000Y-83836666D01*
X79604333Y-83903333D01*
X79604333Y-84003333D01*
X79571000Y-84070000D01*
X79537666Y-84103333D01*
X79471000Y-84136666D01*
X79204333Y-84136666D01*
X79204333Y-83436666D01*
X79437666Y-83436666D01*
X79504333Y-83470000D01*
X79537666Y-83503333D01*
X79571000Y-83570000D01*
X79571000Y-83636666D01*
X79537666Y-83703333D01*
X79504333Y-83736666D01*
X79437666Y-83770000D01*
X79204333Y-83770000D01*
X79904333Y-83870000D02*
X80437666Y-83870000D01*
X77994833Y-86764066D02*
X77994833Y-87330733D01*
X78028166Y-87397400D01*
X78061500Y-87430733D01*
X78128166Y-87464066D01*
X78261500Y-87464066D01*
X78328166Y-87430733D01*
X78361500Y-87397400D01*
X78394833Y-87330733D01*
X78394833Y-86764066D01*
X78694833Y-87430733D02*
X78794833Y-87464066D01*
X78961500Y-87464066D01*
X79028166Y-87430733D01*
X79061500Y-87397400D01*
X79094833Y-87330733D01*
X79094833Y-87264066D01*
X79061500Y-87197400D01*
X79028166Y-87164066D01*
X78961500Y-87130733D01*
X78828166Y-87097400D01*
X78761500Y-87064066D01*
X78728166Y-87030733D01*
X78694833Y-86964066D01*
X78694833Y-86897400D01*
X78728166Y-86830733D01*
X78761500Y-86797400D01*
X78828166Y-86764066D01*
X78994833Y-86764066D01*
X79094833Y-86797400D01*
X79628166Y-87097400D02*
X79728166Y-87130733D01*
X79761500Y-87164066D01*
X79794833Y-87230733D01*
X79794833Y-87330733D01*
X79761500Y-87397400D01*
X79728166Y-87430733D01*
X79661500Y-87464066D01*
X79394833Y-87464066D01*
X79394833Y-86764066D01*
X79628166Y-86764066D01*
X79694833Y-86797400D01*
X79728166Y-86830733D01*
X79761500Y-86897400D01*
X79761500Y-86964066D01*
X79728166Y-87030733D01*
X79694833Y-87064066D01*
X79628166Y-87097400D01*
X79394833Y-87097400D01*
X80094833Y-87197400D02*
X80628166Y-87197400D01*
X80361500Y-87464066D02*
X80361500Y-86930733D01*
X71837666Y-92453666D02*
X72071000Y-93153666D01*
X72304333Y-92453666D01*
X72937666Y-93087000D02*
X72904333Y-93120333D01*
X72804333Y-93153666D01*
X72737666Y-93153666D01*
X72637666Y-93120333D01*
X72571000Y-93053666D01*
X72537666Y-92987000D01*
X72504333Y-92853666D01*
X72504333Y-92753666D01*
X72537666Y-92620333D01*
X72571000Y-92553666D01*
X72637666Y-92487000D01*
X72737666Y-92453666D01*
X72804333Y-92453666D01*
X72904333Y-92487000D01*
X72937666Y-92520333D01*
X73637666Y-93087000D02*
X73604333Y-93120333D01*
X73504333Y-93153666D01*
X73437666Y-93153666D01*
X73337666Y-93120333D01*
X73271000Y-93053666D01*
X73237666Y-92987000D01*
X73204333Y-92853666D01*
X73204333Y-92753666D01*
X73237666Y-92620333D01*
X73271000Y-92553666D01*
X73337666Y-92487000D01*
X73437666Y-92453666D01*
X73504333Y-92453666D01*
X73604333Y-92487000D01*
X73637666Y-92520333D01*
X71937666Y-96263666D02*
X72371000Y-96263666D01*
X72137666Y-96530333D01*
X72237666Y-96530333D01*
X72304333Y-96563666D01*
X72337666Y-96597000D01*
X72371000Y-96663666D01*
X72371000Y-96830333D01*
X72337666Y-96897000D01*
X72304333Y-96930333D01*
X72237666Y-96963666D01*
X72037666Y-96963666D01*
X71971000Y-96930333D01*
X71937666Y-96897000D01*
X72604333Y-96497000D02*
X72771000Y-96963666D01*
X72937666Y-96497000D01*
X73137666Y-96263666D02*
X73571000Y-96263666D01*
X73337666Y-96530333D01*
X73437666Y-96530333D01*
X73504333Y-96563666D01*
X73537666Y-96597000D01*
X73571000Y-96663666D01*
X73571000Y-96830333D01*
X73537666Y-96897000D01*
X73504333Y-96930333D01*
X73437666Y-96963666D01*
X73237666Y-96963666D01*
X73171000Y-96930333D01*
X73137666Y-96897000D01*
X77075666Y-133427000D02*
X77175666Y-133460333D01*
X77209000Y-133493666D01*
X77242333Y-133560333D01*
X77242333Y-133660333D01*
X77209000Y-133727000D01*
X77175666Y-133760333D01*
X77109000Y-133793666D01*
X76842333Y-133793666D01*
X76842333Y-133093666D01*
X77075666Y-133093666D01*
X77142333Y-133127000D01*
X77175666Y-133160333D01*
X77209000Y-133227000D01*
X77209000Y-133293666D01*
X77175666Y-133360333D01*
X77142333Y-133393666D01*
X77075666Y-133427000D01*
X76842333Y-133427000D01*
X77675666Y-133093666D02*
X77809000Y-133093666D01*
X77875666Y-133127000D01*
X77942333Y-133193666D01*
X77975666Y-133327000D01*
X77975666Y-133560333D01*
X77942333Y-133693666D01*
X77875666Y-133760333D01*
X77809000Y-133793666D01*
X77675666Y-133793666D01*
X77609000Y-133760333D01*
X77542333Y-133693666D01*
X77509000Y-133560333D01*
X77509000Y-133327000D01*
X77542333Y-133193666D01*
X77609000Y-133127000D01*
X77675666Y-133093666D01*
X78409000Y-133093666D02*
X78542333Y-133093666D01*
X78609000Y-133127000D01*
X78675666Y-133193666D01*
X78709000Y-133327000D01*
X78709000Y-133560333D01*
X78675666Y-133693666D01*
X78609000Y-133760333D01*
X78542333Y-133793666D01*
X78409000Y-133793666D01*
X78342333Y-133760333D01*
X78275666Y-133693666D01*
X78242333Y-133560333D01*
X78242333Y-133327000D01*
X78275666Y-133193666D01*
X78342333Y-133127000D01*
X78409000Y-133093666D01*
X78909000Y-133093666D02*
X79309000Y-133093666D01*
X79109000Y-133793666D02*
X79109000Y-133093666D01*
X79675666Y-133093666D02*
X79742333Y-133093666D01*
X79809000Y-133127000D01*
X79842333Y-133160333D01*
X79875666Y-133227000D01*
X79909000Y-133360333D01*
X79909000Y-133527000D01*
X79875666Y-133660333D01*
X79842333Y-133727000D01*
X79809000Y-133760333D01*
X79742333Y-133793666D01*
X79675666Y-133793666D01*
X79609000Y-133760333D01*
X79575666Y-133727000D01*
X79542333Y-133660333D01*
X79509000Y-133527000D01*
X79509000Y-133360333D01*
X79542333Y-133227000D01*
X79575666Y-133160333D01*
X79609000Y-133127000D01*
X79675666Y-133093666D01*
X81139666Y-133427000D02*
X81239666Y-133460333D01*
X81273000Y-133493666D01*
X81306333Y-133560333D01*
X81306333Y-133660333D01*
X81273000Y-133727000D01*
X81239666Y-133760333D01*
X81173000Y-133793666D01*
X80906333Y-133793666D01*
X80906333Y-133093666D01*
X81139666Y-133093666D01*
X81206333Y-133127000D01*
X81239666Y-133160333D01*
X81273000Y-133227000D01*
X81273000Y-133293666D01*
X81239666Y-133360333D01*
X81206333Y-133393666D01*
X81139666Y-133427000D01*
X80906333Y-133427000D01*
X81739666Y-133093666D02*
X81873000Y-133093666D01*
X81939666Y-133127000D01*
X82006333Y-133193666D01*
X82039666Y-133327000D01*
X82039666Y-133560333D01*
X82006333Y-133693666D01*
X81939666Y-133760333D01*
X81873000Y-133793666D01*
X81739666Y-133793666D01*
X81673000Y-133760333D01*
X81606333Y-133693666D01*
X81573000Y-133560333D01*
X81573000Y-133327000D01*
X81606333Y-133193666D01*
X81673000Y-133127000D01*
X81739666Y-133093666D01*
X82473000Y-133093666D02*
X82606333Y-133093666D01*
X82673000Y-133127000D01*
X82739666Y-133193666D01*
X82773000Y-133327000D01*
X82773000Y-133560333D01*
X82739666Y-133693666D01*
X82673000Y-133760333D01*
X82606333Y-133793666D01*
X82473000Y-133793666D01*
X82406333Y-133760333D01*
X82339666Y-133693666D01*
X82306333Y-133560333D01*
X82306333Y-133327000D01*
X82339666Y-133193666D01*
X82406333Y-133127000D01*
X82473000Y-133093666D01*
X82973000Y-133093666D02*
X83373000Y-133093666D01*
X83173000Y-133793666D02*
X83173000Y-133093666D01*
X83973000Y-133793666D02*
X83573000Y-133793666D01*
X83773000Y-133793666D02*
X83773000Y-133093666D01*
X83706333Y-133193666D01*
X83639666Y-133260333D01*
X83573000Y-133293666D01*
D11*
X85471000Y-132461000D02*
X89281000Y-132461000D01*
X85471000Y-132461000D02*
X85471000Y-124587000D01*
X89281000Y-124587000D02*
X89281000Y-132461000D01*
X85471000Y-124587000D02*
X89281000Y-124587000D01*
D10*
X86486333Y-130491666D02*
X86253000Y-130158333D01*
X86086333Y-130491666D02*
X86086333Y-129791666D01*
X86353000Y-129791666D01*
X86419666Y-129825000D01*
X86453000Y-129858333D01*
X86486333Y-129925000D01*
X86486333Y-130025000D01*
X86453000Y-130091666D01*
X86419666Y-130125000D01*
X86353000Y-130158333D01*
X86086333Y-130158333D01*
X86786333Y-130125000D02*
X87019666Y-130125000D01*
X87119666Y-130491666D02*
X86786333Y-130491666D01*
X86786333Y-129791666D01*
X87119666Y-129791666D01*
X87386333Y-130458333D02*
X87486333Y-130491666D01*
X87653000Y-130491666D01*
X87719666Y-130458333D01*
X87753000Y-130425000D01*
X87786333Y-130358333D01*
X87786333Y-130291666D01*
X87753000Y-130225000D01*
X87719666Y-130191666D01*
X87653000Y-130158333D01*
X87519666Y-130125000D01*
X87453000Y-130091666D01*
X87419666Y-130058333D01*
X87386333Y-129991666D01*
X87386333Y-129925000D01*
X87419666Y-129858333D01*
X87453000Y-129825000D01*
X87519666Y-129791666D01*
X87686333Y-129791666D01*
X87786333Y-129825000D01*
X88086333Y-130125000D02*
X88319666Y-130125000D01*
X88419666Y-130491666D02*
X88086333Y-130491666D01*
X88086333Y-129791666D01*
X88419666Y-129791666D01*
X88619666Y-129791666D02*
X89019666Y-129791666D01*
X88819666Y-130491666D02*
X88819666Y-129791666D01*
X79095666Y-91217000D02*
X79029000Y-91183666D01*
X78929000Y-91183666D01*
X78829000Y-91217000D01*
X78762333Y-91283666D01*
X78729000Y-91350333D01*
X78695666Y-91483666D01*
X78695666Y-91583666D01*
X78729000Y-91717000D01*
X78762333Y-91783666D01*
X78829000Y-91850333D01*
X78929000Y-91883666D01*
X78995666Y-91883666D01*
X79095666Y-91850333D01*
X79129000Y-91817000D01*
X79129000Y-91583666D01*
X78995666Y-91583666D01*
X79429000Y-91883666D02*
X79429000Y-91183666D01*
X79829000Y-91883666D01*
X79829000Y-91183666D01*
X80162333Y-91883666D02*
X80162333Y-91183666D01*
X80329000Y-91183666D01*
X80429000Y-91217000D01*
X80495666Y-91283666D01*
X80529000Y-91350333D01*
X80562333Y-91483666D01*
X80562333Y-91583666D01*
X80529000Y-91717000D01*
X80495666Y-91783666D01*
X80429000Y-91850333D01*
X80329000Y-91883666D01*
X80162333Y-91883666D01*
X83992333Y-91883666D02*
X83992333Y-91183666D01*
X84159000Y-91183666D01*
X84259000Y-91217000D01*
X84325666Y-91283666D01*
X84359000Y-91350333D01*
X84392333Y-91483666D01*
X84392333Y-91583666D01*
X84359000Y-91717000D01*
X84325666Y-91783666D01*
X84259000Y-91850333D01*
X84159000Y-91883666D01*
X83992333Y-91883666D01*
X84692333Y-91883666D02*
X84692333Y-91183666D01*
X85159000Y-91183666D02*
X85292333Y-91183666D01*
X85359000Y-91217000D01*
X85425666Y-91283666D01*
X85459000Y-91417000D01*
X85459000Y-91650333D01*
X85425666Y-91783666D01*
X85359000Y-91850333D01*
X85292333Y-91883666D01*
X85159000Y-91883666D01*
X85092333Y-91850333D01*
X85025666Y-91783666D01*
X84992333Y-91650333D01*
X84992333Y-91417000D01*
X85025666Y-91283666D01*
X85092333Y-91217000D01*
X85159000Y-91183666D01*
X81752333Y-91817000D02*
X81719000Y-91850333D01*
X81619000Y-91883666D01*
X81552333Y-91883666D01*
X81452333Y-91850333D01*
X81385666Y-91783666D01*
X81352333Y-91717000D01*
X81319000Y-91583666D01*
X81319000Y-91483666D01*
X81352333Y-91350333D01*
X81385666Y-91283666D01*
X81452333Y-91217000D01*
X81552333Y-91183666D01*
X81619000Y-91183666D01*
X81719000Y-91217000D01*
X81752333Y-91250333D01*
X82385666Y-91883666D02*
X82052333Y-91883666D01*
X82052333Y-91183666D01*
X82619000Y-91883666D02*
X82619000Y-91183666D01*
X83019000Y-91883666D02*
X82719000Y-91483666D01*
X83019000Y-91183666D02*
X82619000Y-91583666D01*
D12*
X97694904Y-101274619D02*
X97742523Y-101227000D01*
X97837761Y-101179380D01*
X98075857Y-101179380D01*
X98171095Y-101227000D01*
X98218714Y-101274619D01*
X98266333Y-101369857D01*
X98266333Y-101465095D01*
X98218714Y-101607952D01*
X97647285Y-102179380D01*
X98266333Y-102179380D01*
X98647285Y-101274619D02*
X98694904Y-101227000D01*
X98790142Y-101179380D01*
X99028238Y-101179380D01*
X99123476Y-101227000D01*
X99171095Y-101274619D01*
X99218714Y-101369857D01*
X99218714Y-101465095D01*
X99171095Y-101607952D01*
X98599666Y-102179380D01*
X99218714Y-102179380D01*
X99837761Y-101179380D02*
X99933000Y-101179380D01*
X100028238Y-101227000D01*
X100075857Y-101274619D01*
X100123476Y-101369857D01*
X100171095Y-101560333D01*
X100171095Y-101798428D01*
X100123476Y-101988904D01*
X100075857Y-102084142D01*
X100028238Y-102131761D01*
X99933000Y-102179380D01*
X99837761Y-102179380D01*
X99742523Y-102131761D01*
X99694904Y-102084142D01*
X99647285Y-101988904D01*
X99599666Y-101798428D01*
X99599666Y-101560333D01*
X99647285Y-101369857D01*
X99694904Y-101274619D01*
X99742523Y-101227000D01*
X99837761Y-101179380D01*
X100949285Y-101179380D02*
X101568333Y-101179380D01*
X101235000Y-101560333D01*
X101377857Y-101560333D01*
X101473095Y-101607952D01*
X101520714Y-101655571D01*
X101568333Y-101750809D01*
X101568333Y-101988904D01*
X101520714Y-102084142D01*
X101473095Y-102131761D01*
X101377857Y-102179380D01*
X101092142Y-102179380D01*
X100996904Y-102131761D01*
X100949285Y-102084142D01*
X101901666Y-101179380D02*
X102520714Y-101179380D01*
X102187380Y-101560333D01*
X102330238Y-101560333D01*
X102425476Y-101607952D01*
X102473095Y-101655571D01*
X102520714Y-101750809D01*
X102520714Y-101988904D01*
X102473095Y-102084142D01*
X102425476Y-102131761D01*
X102330238Y-102179380D01*
X102044523Y-102179380D01*
X101949285Y-102131761D01*
X101901666Y-102084142D01*
X103139761Y-101179380D02*
X103235000Y-101179380D01*
X103330238Y-101227000D01*
X103377857Y-101274619D01*
X103425476Y-101369857D01*
X103473095Y-101560333D01*
X103473095Y-101798428D01*
X103425476Y-101988904D01*
X103377857Y-102084142D01*
X103330238Y-102131761D01*
X103235000Y-102179380D01*
X103139761Y-102179380D01*
X103044523Y-102131761D01*
X102996904Y-102084142D01*
X102949285Y-101988904D01*
X102901666Y-101798428D01*
X102901666Y-101560333D01*
X102949285Y-101369857D01*
X102996904Y-101274619D01*
X103044523Y-101227000D01*
X103139761Y-101179380D01*
D10*
X81731000Y-96455666D02*
X81731000Y-95755666D01*
X81997666Y-95755666D01*
X82064333Y-95789000D01*
X82097666Y-95822333D01*
X82131000Y-95889000D01*
X82131000Y-95989000D01*
X82097666Y-96055666D01*
X82064333Y-96089000D01*
X81997666Y-96122333D01*
X81731000Y-96122333D01*
X82831000Y-96389000D02*
X82797666Y-96422333D01*
X82697666Y-96455666D01*
X82631000Y-96455666D01*
X82531000Y-96422333D01*
X82464333Y-96355666D01*
X82431000Y-96289000D01*
X82397666Y-96155666D01*
X82397666Y-96055666D01*
X82431000Y-95922333D01*
X82464333Y-95855666D01*
X82531000Y-95789000D01*
X82631000Y-95755666D01*
X82697666Y-95755666D01*
X82797666Y-95789000D01*
X82831000Y-95822333D01*
X83497666Y-96455666D02*
X83097666Y-96455666D01*
X83297666Y-96455666D02*
X83297666Y-95755666D01*
X83231000Y-95855666D01*
X83164333Y-95922333D01*
X83097666Y-95955666D01*
X83731000Y-95755666D02*
X84164333Y-95755666D01*
X83931000Y-96022333D01*
X84031000Y-96022333D01*
X84097666Y-96055666D01*
X84131000Y-96089000D01*
X84164333Y-96155666D01*
X84164333Y-96322333D01*
X84131000Y-96389000D01*
X84097666Y-96422333D01*
X84031000Y-96455666D01*
X83831000Y-96455666D01*
X83764333Y-96422333D01*
X83731000Y-96389000D01*
X88224566Y-98713800D02*
X88224566Y-98280466D01*
X88491233Y-98513800D01*
X88491233Y-98413800D01*
X88524566Y-98347133D01*
X88557900Y-98313800D01*
X88624566Y-98280466D01*
X88791233Y-98280466D01*
X88857900Y-98313800D01*
X88891233Y-98347133D01*
X88924566Y-98413800D01*
X88924566Y-98613800D01*
X88891233Y-98680466D01*
X88857900Y-98713800D01*
X88857900Y-97980466D02*
X88891233Y-97947133D01*
X88924566Y-97980466D01*
X88891233Y-98013800D01*
X88857900Y-97980466D01*
X88924566Y-97980466D01*
X88224566Y-97713800D02*
X88224566Y-97280466D01*
X88491233Y-97513800D01*
X88491233Y-97413800D01*
X88524566Y-97347133D01*
X88557900Y-97313800D01*
X88624566Y-97280466D01*
X88791233Y-97280466D01*
X88857900Y-97313800D01*
X88891233Y-97347133D01*
X88924566Y-97413800D01*
X88924566Y-97613800D01*
X88891233Y-97680466D01*
X88857900Y-97713800D01*
X88457900Y-97047133D02*
X88924566Y-96880466D01*
X88457900Y-96713800D01*
X77416866Y-97763000D02*
X77416866Y-98096333D01*
X77750200Y-98129666D01*
X77716866Y-98096333D01*
X77683533Y-98029666D01*
X77683533Y-97863000D01*
X77716866Y-97796333D01*
X77750200Y-97763000D01*
X77816866Y-97729666D01*
X77983533Y-97729666D01*
X78050200Y-97763000D01*
X78083533Y-97796333D01*
X78116866Y-97863000D01*
X78116866Y-98029666D01*
X78083533Y-98096333D01*
X78050200Y-98129666D01*
X77650200Y-97496333D02*
X78116866Y-97329666D01*
X77650200Y-97163000D01*
X72256904Y-136340904D02*
X72256904Y-136988523D01*
X72295000Y-137064714D01*
X72333095Y-137102809D01*
X72409285Y-137140904D01*
X72561666Y-137140904D01*
X72637857Y-137102809D01*
X72675952Y-137064714D01*
X72714047Y-136988523D01*
X72714047Y-136340904D01*
X73056904Y-137102809D02*
X73171190Y-137140904D01*
X73361666Y-137140904D01*
X73437857Y-137102809D01*
X73475952Y-137064714D01*
X73514047Y-136988523D01*
X73514047Y-136912333D01*
X73475952Y-136836142D01*
X73437857Y-136798047D01*
X73361666Y-136759952D01*
X73209285Y-136721857D01*
X73133095Y-136683761D01*
X73095000Y-136645666D01*
X73056904Y-136569476D01*
X73056904Y-136493285D01*
X73095000Y-136417095D01*
X73133095Y-136379000D01*
X73209285Y-136340904D01*
X73399761Y-136340904D01*
X73514047Y-136379000D01*
X73818809Y-136912333D02*
X74199761Y-136912333D01*
X73742619Y-137140904D02*
X74009285Y-136340904D01*
X74275952Y-137140904D01*
X74999761Y-137140904D02*
X74733095Y-136759952D01*
X74542619Y-137140904D02*
X74542619Y-136340904D01*
X74847380Y-136340904D01*
X74923571Y-136379000D01*
X74961666Y-136417095D01*
X74999761Y-136493285D01*
X74999761Y-136607571D01*
X74961666Y-136683761D01*
X74923571Y-136721857D01*
X74847380Y-136759952D01*
X74542619Y-136759952D01*
X75228333Y-136340904D02*
X75685476Y-136340904D01*
X75456904Y-137140904D02*
X75456904Y-136340904D01*
X75914047Y-136417095D02*
X75952142Y-136379000D01*
X76028333Y-136340904D01*
X76218809Y-136340904D01*
X76295000Y-136379000D01*
X76333095Y-136417095D01*
X76371190Y-136493285D01*
X76371190Y-136569476D01*
X76333095Y-136683761D01*
X75875952Y-137140904D01*
X76371190Y-137140904D01*
D11*
X77343000Y-82677000D02*
X77089000Y-82677000D01*
D13*
X71755000Y-149225000D02*
X71120000Y-149225000D01*
X71120000Y-147955000D02*
X71120000Y-149225000D01*
X114935000Y-149225000D02*
X71755000Y-149225000D01*
X114935000Y-147955000D02*
X114935000Y-149225000D01*
D12*
X75126904Y-147827380D02*
X75126904Y-147332142D01*
X75431666Y-147598809D01*
X75431666Y-147484523D01*
X75469761Y-147408333D01*
X75507857Y-147370238D01*
X75584047Y-147332142D01*
X75774523Y-147332142D01*
X75850714Y-147370238D01*
X75888809Y-147408333D01*
X75926904Y-147484523D01*
X75926904Y-147713095D01*
X75888809Y-147789285D01*
X75850714Y-147827380D01*
X75850714Y-146989285D02*
X75888809Y-146951190D01*
X75926904Y-146989285D01*
X75888809Y-147027380D01*
X75850714Y-146989285D01*
X75926904Y-146989285D01*
X75126904Y-146684523D02*
X75126904Y-146189285D01*
X75431666Y-146455952D01*
X75431666Y-146341666D01*
X75469761Y-146265476D01*
X75507857Y-146227380D01*
X75584047Y-146189285D01*
X75774523Y-146189285D01*
X75850714Y-146227380D01*
X75888809Y-146265476D01*
X75926904Y-146341666D01*
X75926904Y-146570238D01*
X75888809Y-146646428D01*
X75850714Y-146684523D01*
X75926904Y-144170238D02*
X75545952Y-144436904D01*
X75926904Y-144627380D02*
X75126904Y-144627380D01*
X75126904Y-144322619D01*
X75165000Y-144246428D01*
X75203095Y-144208333D01*
X75279285Y-144170238D01*
X75393571Y-144170238D01*
X75469761Y-144208333D01*
X75507857Y-144246428D01*
X75545952Y-144322619D01*
X75545952Y-144627380D01*
X75126904Y-143903571D02*
X75926904Y-143370238D01*
X75126904Y-143370238D02*
X75926904Y-143903571D01*
X75126904Y-142570238D02*
X75126904Y-142113095D01*
X75926904Y-142341666D02*
X75126904Y-142341666D01*
X75126904Y-141922619D02*
X75926904Y-141389285D01*
X75126904Y-141389285D02*
X75926904Y-141922619D01*
X75165000Y-139446428D02*
X75126904Y-139522619D01*
X75126904Y-139636904D01*
X75165000Y-139751190D01*
X75241190Y-139827380D01*
X75317380Y-139865476D01*
X75469761Y-139903571D01*
X75584047Y-139903571D01*
X75736428Y-139865476D01*
X75812619Y-139827380D01*
X75888809Y-139751190D01*
X75926904Y-139636904D01*
X75926904Y-139560714D01*
X75888809Y-139446428D01*
X75850714Y-139408333D01*
X75584047Y-139408333D01*
X75584047Y-139560714D01*
X75393571Y-139065476D02*
X75926904Y-139065476D01*
X75469761Y-139065476D02*
X75431666Y-139027380D01*
X75393571Y-138951190D01*
X75393571Y-138836904D01*
X75431666Y-138760714D01*
X75507857Y-138722619D01*
X75926904Y-138722619D01*
X75926904Y-137998809D02*
X75126904Y-137998809D01*
X75888809Y-137998809D02*
X75926904Y-138075000D01*
X75926904Y-138227380D01*
X75888809Y-138303571D01*
X75850714Y-138341666D01*
X75774523Y-138379761D01*
X75545952Y-138379761D01*
X75469761Y-138341666D01*
X75431666Y-138303571D01*
X75393571Y-138227380D01*
X75393571Y-138075000D01*
X75431666Y-137998809D01*
X100949285Y-119975380D02*
X101568333Y-119975380D01*
X101235000Y-120356333D01*
X101377857Y-120356333D01*
X101473095Y-120403952D01*
X101520714Y-120451571D01*
X101568333Y-120546809D01*
X101568333Y-120784904D01*
X101520714Y-120880142D01*
X101473095Y-120927761D01*
X101377857Y-120975380D01*
X101092142Y-120975380D01*
X100996904Y-120927761D01*
X100949285Y-120880142D01*
X101901666Y-119975380D02*
X102520714Y-119975380D01*
X102187380Y-120356333D01*
X102330238Y-120356333D01*
X102425476Y-120403952D01*
X102473095Y-120451571D01*
X102520714Y-120546809D01*
X102520714Y-120784904D01*
X102473095Y-120880142D01*
X102425476Y-120927761D01*
X102330238Y-120975380D01*
X102044523Y-120975380D01*
X101949285Y-120927761D01*
X101901666Y-120880142D01*
X103139761Y-119975380D02*
X103235000Y-119975380D01*
X103330238Y-120023000D01*
X103377857Y-120070619D01*
X103425476Y-120165857D01*
X103473095Y-120356333D01*
X103473095Y-120594428D01*
X103425476Y-120784904D01*
X103377857Y-120880142D01*
X103330238Y-120927761D01*
X103235000Y-120975380D01*
X103139761Y-120975380D01*
X103044523Y-120927761D01*
X102996904Y-120880142D01*
X102949285Y-120784904D01*
X102901666Y-120594428D01*
X102901666Y-120356333D01*
X102949285Y-120165857D01*
X102996904Y-120070619D01*
X103044523Y-120023000D01*
X103139761Y-119975380D01*
X97694904Y-120070619D02*
X97742523Y-120023000D01*
X97837761Y-119975380D01*
X98075857Y-119975380D01*
X98171095Y-120023000D01*
X98218714Y-120070619D01*
X98266333Y-120165857D01*
X98266333Y-120261095D01*
X98218714Y-120403952D01*
X97647285Y-120975380D01*
X98266333Y-120975380D01*
X98647285Y-120070619D02*
X98694904Y-120023000D01*
X98790142Y-119975380D01*
X99028238Y-119975380D01*
X99123476Y-120023000D01*
X99171095Y-120070619D01*
X99218714Y-120165857D01*
X99218714Y-120261095D01*
X99171095Y-120403952D01*
X98599666Y-120975380D01*
X99218714Y-120975380D01*
X99837761Y-119975380D02*
X99933000Y-119975380D01*
X100028238Y-120023000D01*
X100075857Y-120070619D01*
X100123476Y-120165857D01*
X100171095Y-120356333D01*
X100171095Y-120594428D01*
X100123476Y-120784904D01*
X100075857Y-120880142D01*
X100028238Y-120927761D01*
X99933000Y-120975380D01*
X99837761Y-120975380D01*
X99742523Y-120927761D01*
X99694904Y-120880142D01*
X99647285Y-120784904D01*
X99599666Y-120594428D01*
X99599666Y-120356333D01*
X99647285Y-120165857D01*
X99694904Y-120070619D01*
X99742523Y-120023000D01*
X99837761Y-119975380D01*
D10*
X102812904Y-81965476D02*
X102812904Y-81508333D01*
X103612904Y-81736904D02*
X102812904Y-81736904D01*
X103193857Y-81241666D02*
X103193857Y-80975000D01*
X103612904Y-80860714D02*
X103612904Y-81241666D01*
X102812904Y-81241666D01*
X102812904Y-80860714D01*
X103612904Y-80060714D02*
X103231952Y-80327380D01*
X103612904Y-80517857D02*
X102812904Y-80517857D01*
X102812904Y-80213095D01*
X102851000Y-80136904D01*
X102889095Y-80098809D01*
X102965285Y-80060714D01*
X103079571Y-80060714D01*
X103155761Y-80098809D01*
X103193857Y-80136904D01*
X103231952Y-80213095D01*
X103231952Y-80517857D01*
X103612904Y-79717857D02*
X102812904Y-79717857D01*
X103384333Y-79451190D01*
X102812904Y-79184523D01*
X103612904Y-79184523D01*
X102812904Y-78041666D02*
X102812904Y-77889285D01*
X102851000Y-77813095D01*
X102927190Y-77736904D01*
X103079571Y-77698809D01*
X103346238Y-77698809D01*
X103498619Y-77736904D01*
X103574809Y-77813095D01*
X103612904Y-77889285D01*
X103612904Y-78041666D01*
X103574809Y-78117857D01*
X103498619Y-78194047D01*
X103346238Y-78232142D01*
X103079571Y-78232142D01*
X102927190Y-78194047D01*
X102851000Y-78117857D01*
X102812904Y-78041666D01*
X103612904Y-77355952D02*
X102812904Y-77355952D01*
X103612904Y-76898809D01*
X102812904Y-76898809D01*
D13*
X114935000Y-75565000D02*
X71120000Y-75565000D01*
X114935000Y-147955000D02*
X114935000Y-75565000D01*
X71120000Y-147955000D02*
X71120000Y-75565000D01*
D14*
X97253757Y-115877385D02*
X97325185Y-115663100D01*
X97396614Y-115591671D01*
X97539471Y-115520242D01*
X97753757Y-115520242D01*
X97896614Y-115591671D01*
X97968042Y-115663100D01*
X98039471Y-115805957D01*
X98039471Y-116377385D01*
X96539471Y-116377385D01*
X96539471Y-115877385D01*
X96610900Y-115734528D01*
X96682328Y-115663100D01*
X96825185Y-115591671D01*
X96968042Y-115591671D01*
X97110900Y-115663100D01*
X97182328Y-115734528D01*
X97253757Y-115877385D01*
X97253757Y-116377385D01*
X98039471Y-114663100D02*
X97968042Y-114805957D01*
X97825185Y-114877385D01*
X96539471Y-114877385D01*
X97039471Y-113448814D02*
X98039471Y-113448814D01*
X97039471Y-114091671D02*
X97825185Y-114091671D01*
X97968042Y-114020242D01*
X98039471Y-113877385D01*
X98039471Y-113663100D01*
X97968042Y-113520242D01*
X97896614Y-113448814D01*
X97968042Y-112163100D02*
X98039471Y-112305957D01*
X98039471Y-112591671D01*
X97968042Y-112734528D01*
X97825185Y-112805957D01*
X97253757Y-112805957D01*
X97110900Y-112734528D01*
X97039471Y-112591671D01*
X97039471Y-112305957D01*
X97110900Y-112163100D01*
X97253757Y-112091671D01*
X97396614Y-112091671D01*
X97539471Y-112805957D01*
X97968042Y-111520242D02*
X98039471Y-111305957D01*
X98039471Y-110948814D01*
X97968042Y-110805957D01*
X97896614Y-110734528D01*
X97753757Y-110663100D01*
X97610900Y-110663100D01*
X97468042Y-110734528D01*
X97396614Y-110805957D01*
X97325185Y-110948814D01*
X97253757Y-111234528D01*
X97182328Y-111377385D01*
X97110900Y-111448814D01*
X96968042Y-111520242D01*
X96825185Y-111520242D01*
X96682328Y-111448814D01*
X96610900Y-111377385D01*
X96539471Y-111234528D01*
X96539471Y-110877385D01*
X96610900Y-110663100D01*
X97896614Y-109163100D02*
X97968042Y-109234528D01*
X98039471Y-109448814D01*
X98039471Y-109591671D01*
X97968042Y-109805957D01*
X97825185Y-109948814D01*
X97682328Y-110020242D01*
X97396614Y-110091671D01*
X97182328Y-110091671D01*
X96896614Y-110020242D01*
X96753757Y-109948814D01*
X96610900Y-109805957D01*
X96539471Y-109591671D01*
X96539471Y-109448814D01*
X96610900Y-109234528D01*
X96682328Y-109163100D01*
X97968042Y-108591671D02*
X98039471Y-108377385D01*
X98039471Y-108020242D01*
X97968042Y-107877385D01*
X97896614Y-107805957D01*
X97753757Y-107734528D01*
X97610900Y-107734528D01*
X97468042Y-107805957D01*
X97396614Y-107877385D01*
X97325185Y-108020242D01*
X97253757Y-108305957D01*
X97182328Y-108448814D01*
X97110900Y-108520242D01*
X96968042Y-108591671D01*
X96825185Y-108591671D01*
X96682328Y-108520242D01*
X96610900Y-108448814D01*
X96539471Y-108305957D01*
X96539471Y-107948814D01*
X96610900Y-107734528D01*
X98039471Y-107091671D02*
X96539471Y-107091671D01*
X100160900Y-117305957D02*
X100160900Y-116591671D01*
X100589471Y-117448814D02*
X99089471Y-116948814D01*
X100589471Y-116448814D01*
X100589471Y-115734528D02*
X100518042Y-115877385D01*
X100375185Y-115948814D01*
X99089471Y-115948814D01*
X100589471Y-114948814D02*
X100518042Y-115091671D01*
X100375185Y-115163100D01*
X99089471Y-115163100D01*
X100018042Y-114377385D02*
X100018042Y-113234528D01*
X100589471Y-112520242D02*
X99089471Y-112520242D01*
X99589471Y-111805957D02*
X100589471Y-111805957D01*
X99732328Y-111805957D02*
X99660900Y-111734528D01*
X99589471Y-111591671D01*
X99589471Y-111377385D01*
X99660900Y-111234528D01*
X99803757Y-111163100D01*
X100589471Y-111163100D01*
X100018042Y-110448814D02*
X100018042Y-109305957D01*
X99089471Y-108305957D02*
X99089471Y-108020242D01*
X99160900Y-107877385D01*
X99303757Y-107734528D01*
X99589471Y-107663100D01*
X100089471Y-107663100D01*
X100375185Y-107734528D01*
X100518042Y-107877385D01*
X100589471Y-108020242D01*
X100589471Y-108305957D01*
X100518042Y-108448814D01*
X100375185Y-108591671D01*
X100089471Y-108663100D01*
X99589471Y-108663100D01*
X99303757Y-108591671D01*
X99160900Y-108448814D01*
X99089471Y-108305957D01*
X99589471Y-107020242D02*
X100589471Y-107020242D01*
X99732328Y-107020242D02*
X99660900Y-106948814D01*
X99589471Y-106805957D01*
X99589471Y-106591671D01*
X99660900Y-106448814D01*
X99803757Y-106377385D01*
X100589471Y-106377385D01*
X100518042Y-105091671D02*
X100589471Y-105234528D01*
X100589471Y-105520242D01*
X100518042Y-105663100D01*
X100375185Y-105734528D01*
X99803757Y-105734528D01*
X99660900Y-105663100D01*
X99589471Y-105520242D01*
X99589471Y-105234528D01*
X99660900Y-105091671D01*
X99803757Y-105020242D01*
X99946614Y-105020242D01*
X100089471Y-105734528D01*
X102139471Y-113305957D02*
X103139471Y-112948814D01*
X102139471Y-112591671D01*
X103139471Y-111234528D02*
X103139471Y-112091671D01*
X103139471Y-111663100D02*
X101639471Y-111663100D01*
X101853757Y-111805957D01*
X101996614Y-111948814D01*
X102068042Y-112091671D01*
X102996614Y-110591671D02*
X103068042Y-110520242D01*
X103139471Y-110591671D01*
X103068042Y-110663100D01*
X102996614Y-110591671D01*
X103139471Y-110591671D01*
X101639471Y-109591671D02*
X101639471Y-109448814D01*
X101710900Y-109305957D01*
X101782328Y-109234528D01*
X101925185Y-109163100D01*
X102210900Y-109091671D01*
X102568042Y-109091671D01*
X102853757Y-109163100D01*
X102996614Y-109234528D01*
X103068042Y-109305957D01*
X103139471Y-109448814D01*
X103139471Y-109591671D01*
X103068042Y-109734528D01*
X102996614Y-109805957D01*
X102853757Y-109877385D01*
X102568042Y-109948814D01*
X102210900Y-109948814D01*
X101925185Y-109877385D01*
X101782328Y-109805957D01*
X101710900Y-109734528D01*
X101639471Y-109591671D01*
D11*
%TO.C,TP14*%
X73721000Y-87566500D02*
G75*
G03*
X73721000Y-87566500I-950000J0D01*
G01*
%TO.C,J5*%
X114535000Y-142375000D02*
X113535000Y-142875000D01*
X114535000Y-143375000D02*
X114535000Y-142375000D01*
X113535000Y-142875000D02*
X114535000Y-143375000D01*
X111835000Y-110345000D02*
X113145000Y-110345000D01*
X111835000Y-110345000D02*
X111835000Y-110345000D01*
X111835000Y-78005000D02*
X111835000Y-110345000D01*
X105335000Y-78005000D02*
X111835000Y-78005000D01*
X105335000Y-146785000D02*
X105335000Y-78005000D01*
X111835000Y-146785000D02*
X105335000Y-146785000D01*
X111835000Y-114445000D02*
X111835000Y-146785000D01*
X113145000Y-114445000D02*
X111835000Y-114445000D01*
X113145000Y-76705000D02*
X113145000Y-148085000D01*
X104025000Y-76705000D02*
X113145000Y-76705000D01*
X104025000Y-148085000D02*
X104025000Y-76705000D01*
X113145000Y-148085000D02*
X104025000Y-148085000D01*
%TO.C,TP13*%
X77789000Y-148005800D02*
G75*
G03*
X77789000Y-148005800I-700000J0D01*
G01*
%TO.C,TP12*%
X79915342Y-148005800D02*
G75*
G03*
X79915342Y-148005800I-700000J0D01*
G01*
%TO.C,TP11*%
X84168026Y-148005800D02*
G75*
G03*
X84168026Y-148005800I-700000J0D01*
G01*
%TO.C,TP10*%
X88420710Y-148005800D02*
G75*
G03*
X88420710Y-148005800I-700000J0D01*
G01*
%TO.C,TP9*%
X90547052Y-148005800D02*
G75*
G03*
X90547052Y-148005800I-700000J0D01*
G01*
%TO.C,TP8*%
X92673400Y-148005800D02*
G75*
G03*
X92673400Y-148005800I-700000J0D01*
G01*
%TO.C,TP7*%
X82041684Y-148005800D02*
G75*
G03*
X82041684Y-148005800I-700000J0D01*
G01*
%TO.C,TP6*%
X86294368Y-148005800D02*
G75*
G03*
X86294368Y-148005800I-700000J0D01*
G01*
%TO.C,J1*%
X97933200Y-76736900D02*
X97933200Y-81936900D01*
X100533200Y-76736900D02*
X97933200Y-76736900D01*
X103133200Y-81936900D02*
X97933200Y-81936900D01*
X100533200Y-76736900D02*
X100533200Y-79336900D01*
X100533200Y-79336900D02*
X103133200Y-79336900D01*
X103133200Y-79336900D02*
X103133200Y-81936900D01*
X101803200Y-76736900D02*
X103133200Y-76736900D01*
X103133200Y-76736900D02*
X103133200Y-78066900D01*
%TO.C,SW1*%
X82269700Y-125208400D02*
X82269700Y-129708400D01*
X86269700Y-123958400D02*
X84769700Y-123958400D01*
X88769700Y-129708400D02*
X88769700Y-125208400D01*
X84769700Y-130958400D02*
X86269700Y-130958400D01*
%TO.C,D6*%
X90528900Y-80875700D02*
X92528900Y-80875700D01*
X92528900Y-80875700D02*
X92528900Y-76975700D01*
X90528900Y-80875700D02*
X90528900Y-76975700D01*
%TO.C,D4*%
X95240600Y-80875700D02*
X97240600Y-80875700D01*
X97240600Y-80875700D02*
X97240600Y-76975700D01*
X95240600Y-80875700D02*
X95240600Y-76975700D01*
%TO.C,D3*%
X92884750Y-80875700D02*
X94884750Y-80875700D01*
X94884750Y-80875700D02*
X94884750Y-76975700D01*
X92884750Y-80875700D02*
X92884750Y-76975700D01*
%TO.C,R47*%
X102218258Y-124318500D02*
X101743742Y-124318500D01*
X102218258Y-125363500D02*
X101743742Y-125363500D01*
%TO.C,R46*%
X98695742Y-125363500D02*
X99170258Y-125363500D01*
X98695742Y-124318500D02*
X99170258Y-124318500D01*
%TO.C,R45*%
X102218258Y-126604500D02*
X101743742Y-126604500D01*
X102218258Y-127649500D02*
X101743742Y-127649500D01*
%TO.C,R44*%
X98695742Y-127649500D02*
X99170258Y-127649500D01*
X98695742Y-126604500D02*
X99170258Y-126604500D01*
%TO.C,R43*%
X102218258Y-128890500D02*
X101743742Y-128890500D01*
X102218258Y-129935500D02*
X101743742Y-129935500D01*
%TO.C,R42*%
X98695742Y-129935500D02*
X99170258Y-129935500D01*
X98695742Y-128890500D02*
X99170258Y-128890500D01*
%TO.C,R41*%
X102218258Y-131176500D02*
X101743742Y-131176500D01*
X102218258Y-132221500D02*
X101743742Y-132221500D01*
%TO.C,R40*%
X98695742Y-132221500D02*
X99170258Y-132221500D01*
X98695742Y-131176500D02*
X99170258Y-131176500D01*
%TO.C,R39*%
X102218258Y-133208500D02*
X101743742Y-133208500D01*
X102218258Y-134253500D02*
X101743742Y-134253500D01*
%TO.C,R38*%
X98695742Y-134253500D02*
X99170258Y-134253500D01*
X98695742Y-133208500D02*
X99170258Y-133208500D01*
%TO.C,R37*%
X102218258Y-135494500D02*
X101743742Y-135494500D01*
X102218258Y-136539500D02*
X101743742Y-136539500D01*
%TO.C,R36*%
X98695742Y-136539500D02*
X99170258Y-136539500D01*
X98695742Y-135494500D02*
X99170258Y-135494500D01*
%TO.C,R35*%
X102218258Y-137780500D02*
X101743742Y-137780500D01*
X102218258Y-138825500D02*
X101743742Y-138825500D01*
%TO.C,R34*%
X98695742Y-138825500D02*
X99170258Y-138825500D01*
X98695742Y-137780500D02*
X99170258Y-137780500D01*
%TO.C,R33*%
X102218258Y-140066500D02*
X101743742Y-140066500D01*
X102218258Y-141111500D02*
X101743742Y-141111500D01*
%TO.C,R32*%
X98695742Y-141111500D02*
X99170258Y-141111500D01*
X98695742Y-140066500D02*
X99170258Y-140066500D01*
%TO.C,R31*%
X102218258Y-122032500D02*
X101743742Y-122032500D01*
X102218258Y-123077500D02*
X101743742Y-123077500D01*
%TO.C,R30*%
X98695742Y-123077500D02*
X99170258Y-123077500D01*
X98695742Y-122032500D02*
X99170258Y-122032500D01*
%TO.C,R29*%
X102218258Y-104252500D02*
X101743742Y-104252500D01*
X102218258Y-105297500D02*
X101743742Y-105297500D01*
%TO.C,R28*%
X98695742Y-105297500D02*
X99170258Y-105297500D01*
X98695742Y-104252500D02*
X99170258Y-104252500D01*
%TO.C,R27*%
X102218258Y-96886500D02*
X101743742Y-96886500D01*
X102218258Y-97931500D02*
X101743742Y-97931500D01*
%TO.C,R26*%
X98695742Y-97931500D02*
X99170258Y-97931500D01*
X98695742Y-96886500D02*
X99170258Y-96886500D01*
%TO.C,R25*%
X102218258Y-94346500D02*
X101743742Y-94346500D01*
X102218258Y-95391500D02*
X101743742Y-95391500D01*
%TO.C,R24*%
X98695742Y-95391500D02*
X99170258Y-95391500D01*
X98695742Y-94346500D02*
X99170258Y-94346500D01*
%TO.C,R23*%
X102218258Y-89774500D02*
X101743742Y-89774500D01*
X102218258Y-90819500D02*
X101743742Y-90819500D01*
%TO.C,R22*%
X98695742Y-90819500D02*
X99170258Y-90819500D01*
X98695742Y-89774500D02*
X99170258Y-89774500D01*
%TO.C,R21*%
X102218258Y-99426500D02*
X101743742Y-99426500D01*
X102218258Y-100471500D02*
X101743742Y-100471500D01*
%TO.C,R20*%
X98695742Y-100471500D02*
X99170258Y-100471500D01*
X98695742Y-99426500D02*
X99170258Y-99426500D01*
%TO.C,R19*%
X102218258Y-92314500D02*
X101743742Y-92314500D01*
X102218258Y-93359500D02*
X101743742Y-93359500D01*
%TO.C,R18*%
X98695742Y-93359500D02*
X99170258Y-93359500D01*
X98695742Y-92314500D02*
X99170258Y-92314500D01*
%TO.C,R17*%
X102218258Y-87488500D02*
X101743742Y-87488500D01*
X102218258Y-88533500D02*
X101743742Y-88533500D01*
%TO.C,R16*%
X98695742Y-88533500D02*
X99170258Y-88533500D01*
X98695742Y-87488500D02*
X99170258Y-87488500D01*
%TO.C,R15*%
X102218258Y-85202500D02*
X101743742Y-85202500D01*
X102218258Y-86247500D02*
X101743742Y-86247500D01*
%TO.C,R14*%
X98695742Y-86247500D02*
X99170258Y-86247500D01*
X98695742Y-85202500D02*
X99170258Y-85202500D01*
%TO.C,R13*%
X102218258Y-82662500D02*
X101743742Y-82662500D01*
X102218258Y-83707500D02*
X101743742Y-83707500D01*
%TO.C,R12*%
X98695742Y-83707500D02*
X99170258Y-83707500D01*
X98695742Y-82662500D02*
X99170258Y-82662500D01*
%TO.C,TP5*%
X73721000Y-91059000D02*
G75*
G03*
X73721000Y-91059000I-950000J0D01*
G01*
%TO.C,TP4*%
X73721000Y-94615000D02*
G75*
G03*
X73721000Y-94615000I-950000J0D01*
G01*
%TO.C,TP3*%
X80109100Y-85572600D02*
G75*
G03*
X80109100Y-85572600I-950000J0D01*
G01*
%TO.C,TP2*%
X80109100Y-88620600D02*
G75*
G03*
X80109100Y-88620600I-950000J0D01*
G01*
%TO.C,C6*%
X87108420Y-88267000D02*
X87389580Y-88267000D01*
X87108420Y-87247000D02*
X87389580Y-87247000D01*
%TO.C,C7*%
X87108420Y-86743000D02*
X87389580Y-86743000D01*
X87108420Y-85723000D02*
X87389580Y-85723000D01*
%TO.C,C5*%
X86600420Y-90807000D02*
X86881580Y-90807000D01*
X86600420Y-89787000D02*
X86881580Y-89787000D01*
%TO.C,J8*%
X74609000Y-137481000D02*
X71949000Y-137481000D01*
X74609000Y-145161000D02*
X74609000Y-137481000D01*
X71949000Y-145161000D02*
X71949000Y-137481000D01*
X74609000Y-145161000D02*
X71949000Y-145161000D01*
X74609000Y-146431000D02*
X74609000Y-147761000D01*
X74609000Y-147761000D02*
X73279000Y-147761000D01*
%TO.C,J6*%
X87775000Y-146155000D02*
X86915000Y-146155000D01*
X77075000Y-134515000D02*
X77075000Y-144335000D01*
X78305000Y-134515000D02*
X77075000Y-134515000D01*
X84275000Y-134515000D02*
X80605000Y-134515000D01*
X89255000Y-134515000D02*
X86575000Y-134515000D01*
X89255000Y-135235000D02*
X89255000Y-134515000D01*
X89255000Y-138935000D02*
X89255000Y-136635000D01*
X89255000Y-144785000D02*
X89255000Y-140335000D01*
%TO.C,Y2*%
X80643000Y-109369000D02*
X86393000Y-109369000D01*
X80643000Y-105769000D02*
X80643000Y-109369000D01*
X86393000Y-105769000D02*
X80643000Y-105769000D01*
%TO.C,Y3*%
X83018000Y-101614000D02*
X84368000Y-101614000D01*
X83018000Y-103364000D02*
X84368000Y-103364000D01*
%TO.C,U2*%
X82866802Y-111163887D02*
X81954634Y-110251719D01*
X83185000Y-110845689D02*
X82866802Y-111163887D01*
X83503198Y-111163887D02*
X83185000Y-110845689D01*
X88290311Y-115951000D02*
X87972113Y-116269198D01*
X87972113Y-115632802D02*
X88290311Y-115951000D01*
X78079689Y-115951000D02*
X78397887Y-115632802D01*
X78397887Y-116269198D02*
X78079689Y-115951000D01*
X83185000Y-121056311D02*
X83503198Y-120738113D01*
X82866802Y-120738113D02*
X83185000Y-121056311D01*
%TO.C,U1*%
X84085000Y-87417000D02*
X81635000Y-87417000D01*
X82285000Y-90637000D02*
X84085000Y-90637000D01*
%TO.C,R4*%
X78700100Y-123536942D02*
X78700100Y-124011458D01*
X79745100Y-123536942D02*
X79745100Y-124011458D01*
%TO.C,R3*%
X77214200Y-123536942D02*
X77214200Y-124011458D01*
X78259200Y-123536942D02*
X78259200Y-124011458D01*
%TO.C,R10*%
X84440500Y-84217742D02*
X84440500Y-84692258D01*
X85485500Y-84217742D02*
X85485500Y-84692258D01*
%TO.C,R6*%
X83392742Y-105297500D02*
X83867258Y-105297500D01*
X83392742Y-104252500D02*
X83867258Y-104252500D01*
%TO.C,R5*%
X82947742Y-99963500D02*
X83422258Y-99963500D01*
X82947742Y-98918500D02*
X83422258Y-98918500D01*
%TO.C,R11*%
X82916500Y-84217742D02*
X82916500Y-84692258D01*
X83961500Y-84217742D02*
X83961500Y-84692258D01*
%TO.C,R9*%
X82437500Y-84692258D02*
X82437500Y-84217742D01*
X81392500Y-84692258D02*
X81392500Y-84217742D01*
%TO.C,R7*%
X79645742Y-99963500D02*
X80120258Y-99963500D01*
X79645742Y-98918500D02*
X80120258Y-98918500D01*
%TO.C,R1*%
X86249742Y-99963500D02*
X86724258Y-99963500D01*
X86249742Y-98918500D02*
X86724258Y-98918500D01*
%TO.C,R2*%
X81269100Y-124024158D02*
X81269100Y-123549642D01*
X80224100Y-124024158D02*
X80224100Y-123549642D01*
%TO.C,J2*%
X88579000Y-92015000D02*
X88579000Y-93345000D01*
X87249000Y-92015000D02*
X88579000Y-92015000D01*
X85979000Y-92015000D02*
X85979000Y-94675000D01*
X85979000Y-94675000D02*
X78299000Y-94675000D01*
X85979000Y-92015000D02*
X78299000Y-92015000D01*
X78299000Y-92015000D02*
X78299000Y-94675000D01*
D12*
%TO.C,J3*%
X81893000Y-81267000D02*
X80893000Y-81267000D01*
X85493000Y-81267000D02*
X86493000Y-81267000D01*
X85493000Y-81692000D02*
X85493000Y-81267000D01*
X84768000Y-81692000D02*
X85493000Y-81692000D01*
X79543000Y-78117000D02*
X79543000Y-79517000D01*
X79543000Y-75567000D02*
X79543000Y-75717000D01*
X79843000Y-75567000D02*
X79543000Y-75567000D01*
X79843000Y-75117000D02*
X79843000Y-75567000D01*
X87543000Y-75567000D02*
X87543000Y-75117000D01*
X87843000Y-75567000D02*
X87543000Y-75567000D01*
X87843000Y-75717000D02*
X87843000Y-75567000D01*
X87843000Y-79517000D02*
X87843000Y-78117000D01*
D11*
%TO.C,D2*%
X81700000Y-98398000D02*
X83985000Y-98398000D01*
X81700000Y-96928000D02*
X81700000Y-98398000D01*
X83985000Y-96928000D02*
X81700000Y-96928000D01*
%TO.C,D5*%
X78398000Y-98398000D02*
X80683000Y-98398000D01*
X78398000Y-96928000D02*
X78398000Y-98398000D01*
X80683000Y-96928000D02*
X78398000Y-96928000D01*
%TO.C,D1*%
X85002000Y-98398000D02*
X87287000Y-98398000D01*
X85002000Y-96928000D02*
X85002000Y-98398000D01*
X87287000Y-96928000D02*
X85002000Y-96928000D01*
%TO.C,C1*%
X86614880Y-95476600D02*
X86333720Y-95476600D01*
X86614880Y-96496600D02*
X86333720Y-96496600D01*
%TO.C,C4*%
X87349420Y-111127000D02*
X87630580Y-111127000D01*
X87349420Y-110107000D02*
X87630580Y-110107000D01*
%TO.C,C3*%
X79007580Y-121016300D02*
X78726420Y-121016300D01*
X79007580Y-122036300D02*
X78726420Y-122036300D01*
%TO.C,C11*%
X87755000Y-120369420D02*
X87755000Y-120650580D01*
X88775000Y-120369420D02*
X88775000Y-120650580D01*
%TO.C,C10*%
X78615000Y-111519580D02*
X78615000Y-111238420D01*
X77595000Y-111519580D02*
X77595000Y-111238420D01*
%TO.C,C14*%
X88267000Y-107696580D02*
X88267000Y-107415420D01*
X87247000Y-107696580D02*
X87247000Y-107415420D01*
%TO.C,C13*%
X80139000Y-107709580D02*
X80139000Y-107428420D01*
X79119000Y-107709580D02*
X79119000Y-107428420D01*
%TO.C,C2*%
X80239480Y-130249200D02*
X79958320Y-130249200D01*
X80239480Y-131269200D02*
X79958320Y-131269200D01*
%TO.C,C12*%
X80277580Y-102233000D02*
X79996420Y-102233000D01*
X80277580Y-103253000D02*
X79996420Y-103253000D01*
%TO.C,C9*%
X87108420Y-103253000D02*
X87389580Y-103253000D01*
X87108420Y-102233000D02*
X87389580Y-102233000D01*
D15*
%TO.C,J4*%
X92095000Y-146645000D02*
X92095000Y-141745000D01*
X102095000Y-141745000D02*
X102095000Y-146645000D01*
X102095000Y-141745000D02*
X92095000Y-141745000D01*
X102095000Y-146645000D02*
X92095000Y-146645000D01*
D16*
X91545000Y-144145000D02*
G75*
G03*
X91545000Y-144145000I-100000J0D01*
G01*
%TD*%
%TO.C,J5*%
D12*
X102957380Y-145748333D02*
X103671666Y-145748333D01*
X103814523Y-145795952D01*
X103909761Y-145891190D01*
X103957380Y-146034047D01*
X103957380Y-146129285D01*
X102957380Y-144795952D02*
X102957380Y-145272142D01*
X103433571Y-145319761D01*
X103385952Y-145272142D01*
X103338333Y-145176904D01*
X103338333Y-144938809D01*
X103385952Y-144843571D01*
X103433571Y-144795952D01*
X103528809Y-144748333D01*
X103766904Y-144748333D01*
X103862142Y-144795952D01*
X103909761Y-144843571D01*
X103957380Y-144938809D01*
X103957380Y-145176904D01*
X103909761Y-145272142D01*
X103862142Y-145319761D01*
%TO.C,J1*%
X103585580Y-79670233D02*
X104299866Y-79670233D01*
X104442723Y-79717852D01*
X104537961Y-79813090D01*
X104585580Y-79955947D01*
X104585580Y-80051185D01*
X104585580Y-78670233D02*
X104585580Y-79241661D01*
X104585580Y-78955947D02*
X103585580Y-78955947D01*
X103728438Y-79051185D01*
X103823676Y-79146423D01*
X103871295Y-79241661D01*
%TO.C,SW1*%
X90174461Y-128791733D02*
X90222080Y-128648876D01*
X90222080Y-128410780D01*
X90174461Y-128315542D01*
X90126842Y-128267923D01*
X90031604Y-128220304D01*
X89936366Y-128220304D01*
X89841128Y-128267923D01*
X89793509Y-128315542D01*
X89745890Y-128410780D01*
X89698271Y-128601257D01*
X89650652Y-128696495D01*
X89603033Y-128744114D01*
X89507795Y-128791733D01*
X89412557Y-128791733D01*
X89317319Y-128744114D01*
X89269700Y-128696495D01*
X89222080Y-128601257D01*
X89222080Y-128363161D01*
X89269700Y-128220304D01*
X89222080Y-127886971D02*
X90222080Y-127648876D01*
X89507795Y-127458400D01*
X90222080Y-127267923D01*
X89222080Y-127029828D01*
X90222080Y-126125066D02*
X90222080Y-126696495D01*
X90222080Y-126410780D02*
X89222080Y-126410780D01*
X89364938Y-126506019D01*
X89460176Y-126601257D01*
X89507795Y-126696495D01*
%TO.C,D6*%
X89981280Y-79363795D02*
X88981280Y-79363795D01*
X88981280Y-79125700D01*
X89028900Y-78982842D01*
X89124138Y-78887604D01*
X89219376Y-78839985D01*
X89409852Y-78792366D01*
X89552709Y-78792366D01*
X89743185Y-78839985D01*
X89838423Y-78887604D01*
X89933661Y-78982842D01*
X89981280Y-79125700D01*
X89981280Y-79363795D01*
X88981280Y-77935223D02*
X88981280Y-78125700D01*
X89028900Y-78220938D01*
X89076519Y-78268557D01*
X89219376Y-78363795D01*
X89409852Y-78411414D01*
X89790804Y-78411414D01*
X89886042Y-78363795D01*
X89933661Y-78316176D01*
X89981280Y-78220938D01*
X89981280Y-78030461D01*
X89933661Y-77935223D01*
X89886042Y-77887604D01*
X89790804Y-77839985D01*
X89552709Y-77839985D01*
X89457471Y-77887604D01*
X89409852Y-77935223D01*
X89362233Y-78030461D01*
X89362233Y-78220938D01*
X89409852Y-78316176D01*
X89457471Y-78363795D01*
X89552709Y-78411414D01*
%TO.C,D4*%
X94692980Y-79363795D02*
X93692980Y-79363795D01*
X93692980Y-79125700D01*
X93740600Y-78982842D01*
X93835838Y-78887604D01*
X93931076Y-78839985D01*
X94121552Y-78792366D01*
X94264409Y-78792366D01*
X94454885Y-78839985D01*
X94550123Y-78887604D01*
X94645361Y-78982842D01*
X94692980Y-79125700D01*
X94692980Y-79363795D01*
X94026314Y-77935223D02*
X94692980Y-77935223D01*
X93645361Y-78173319D02*
X94359647Y-78411414D01*
X94359647Y-77792366D01*
%TO.C,D3*%
X92337130Y-79363795D02*
X91337130Y-79363795D01*
X91337130Y-79125700D01*
X91384750Y-78982842D01*
X91479988Y-78887604D01*
X91575226Y-78839985D01*
X91765702Y-78792366D01*
X91908559Y-78792366D01*
X92099035Y-78839985D01*
X92194273Y-78887604D01*
X92289511Y-78982842D01*
X92337130Y-79125700D01*
X92337130Y-79363795D01*
X91337130Y-78459033D02*
X91337130Y-77839985D01*
X91718083Y-78173319D01*
X91718083Y-78030461D01*
X91765702Y-77935223D01*
X91813321Y-77887604D01*
X91908559Y-77839985D01*
X92146654Y-77839985D01*
X92241892Y-77887604D01*
X92289511Y-77935223D01*
X92337130Y-78030461D01*
X92337130Y-78316176D01*
X92289511Y-78411414D01*
X92241892Y-78459033D01*
%TO.C,C6*%
D10*
X89531000Y-88127666D02*
X89564333Y-88161000D01*
X89597666Y-88261000D01*
X89597666Y-88327666D01*
X89564333Y-88427666D01*
X89497666Y-88494333D01*
X89431000Y-88527666D01*
X89297666Y-88561000D01*
X89197666Y-88561000D01*
X89064333Y-88527666D01*
X88997666Y-88494333D01*
X88931000Y-88427666D01*
X88897666Y-88327666D01*
X88897666Y-88261000D01*
X88931000Y-88161000D01*
X88964333Y-88127666D01*
X88897666Y-87527666D02*
X88897666Y-87661000D01*
X88931000Y-87727666D01*
X88964333Y-87761000D01*
X89064333Y-87827666D01*
X89197666Y-87861000D01*
X89464333Y-87861000D01*
X89531000Y-87827666D01*
X89564333Y-87794333D01*
X89597666Y-87727666D01*
X89597666Y-87594333D01*
X89564333Y-87527666D01*
X89531000Y-87494333D01*
X89464333Y-87461000D01*
X89297666Y-87461000D01*
X89231000Y-87494333D01*
X89197666Y-87527666D01*
X89164333Y-87594333D01*
X89164333Y-87727666D01*
X89197666Y-87794333D01*
X89231000Y-87827666D01*
X89297666Y-87861000D01*
%TO.C,C7*%
X89531000Y-86349666D02*
X89564333Y-86383000D01*
X89597666Y-86483000D01*
X89597666Y-86549666D01*
X89564333Y-86649666D01*
X89497666Y-86716333D01*
X89431000Y-86749666D01*
X89297666Y-86783000D01*
X89197666Y-86783000D01*
X89064333Y-86749666D01*
X88997666Y-86716333D01*
X88931000Y-86649666D01*
X88897666Y-86549666D01*
X88897666Y-86483000D01*
X88931000Y-86383000D01*
X88964333Y-86349666D01*
X88897666Y-86116333D02*
X88897666Y-85649666D01*
X89597666Y-85949666D01*
%TO.C,C5*%
X89023000Y-90413666D02*
X89056333Y-90447000D01*
X89089666Y-90547000D01*
X89089666Y-90613666D01*
X89056333Y-90713666D01*
X88989666Y-90780333D01*
X88923000Y-90813666D01*
X88789666Y-90847000D01*
X88689666Y-90847000D01*
X88556333Y-90813666D01*
X88489666Y-90780333D01*
X88423000Y-90713666D01*
X88389666Y-90613666D01*
X88389666Y-90547000D01*
X88423000Y-90447000D01*
X88456333Y-90413666D01*
X88389666Y-89780333D02*
X88389666Y-90113666D01*
X88723000Y-90147000D01*
X88689666Y-90113666D01*
X88656333Y-90047000D01*
X88656333Y-89880333D01*
X88689666Y-89813666D01*
X88723000Y-89780333D01*
X88789666Y-89747000D01*
X88956333Y-89747000D01*
X89023000Y-89780333D01*
X89056333Y-89813666D01*
X89089666Y-89880333D01*
X89089666Y-90047000D01*
X89056333Y-90113666D01*
X89023000Y-90147000D01*
%TO.C,J8*%
D12*
X73199666Y-134961380D02*
X73199666Y-135675666D01*
X73152047Y-135818523D01*
X73056809Y-135913761D01*
X72913952Y-135961380D01*
X72818714Y-135961380D01*
X73818714Y-135389952D02*
X73723476Y-135342333D01*
X73675857Y-135294714D01*
X73628238Y-135199476D01*
X73628238Y-135151857D01*
X73675857Y-135056619D01*
X73723476Y-135009000D01*
X73818714Y-134961380D01*
X74009190Y-134961380D01*
X74104428Y-135009000D01*
X74152047Y-135056619D01*
X74199666Y-135151857D01*
X74199666Y-135199476D01*
X74152047Y-135294714D01*
X74104428Y-135342333D01*
X74009190Y-135389952D01*
X73818714Y-135389952D01*
X73723476Y-135437571D01*
X73675857Y-135485190D01*
X73628238Y-135580428D01*
X73628238Y-135770904D01*
X73675857Y-135866142D01*
X73723476Y-135913761D01*
X73818714Y-135961380D01*
X74009190Y-135961380D01*
X74104428Y-135913761D01*
X74152047Y-135866142D01*
X74199666Y-135770904D01*
X74199666Y-135580428D01*
X74152047Y-135485190D01*
X74104428Y-135437571D01*
X74009190Y-135389952D01*
%TO.C,J6*%
X82851666Y-146967380D02*
X82851666Y-147681666D01*
X82804047Y-147824523D01*
X82708809Y-147919761D01*
X82565952Y-147967380D01*
X82470714Y-147967380D01*
X83756428Y-146967380D02*
X83565952Y-146967380D01*
X83470714Y-147015000D01*
X83423095Y-147062619D01*
X83327857Y-147205476D01*
X83280238Y-147395952D01*
X83280238Y-147776904D01*
X83327857Y-147872142D01*
X83375476Y-147919761D01*
X83470714Y-147967380D01*
X83661190Y-147967380D01*
X83756428Y-147919761D01*
X83804047Y-147872142D01*
X83851666Y-147776904D01*
X83851666Y-147538809D01*
X83804047Y-147443571D01*
X83756428Y-147395952D01*
X83661190Y-147348333D01*
X83470714Y-147348333D01*
X83375476Y-147395952D01*
X83327857Y-147443571D01*
X83280238Y-147538809D01*
%TO.C,Y2*%
X86264809Y-105259190D02*
X86264809Y-105735380D01*
X85931476Y-104735380D02*
X86264809Y-105259190D01*
X86598142Y-104735380D01*
X86883857Y-104830619D02*
X86931476Y-104783000D01*
X87026714Y-104735380D01*
X87264809Y-104735380D01*
X87360047Y-104783000D01*
X87407666Y-104830619D01*
X87455285Y-104925857D01*
X87455285Y-105021095D01*
X87407666Y-105163952D01*
X86836238Y-105735380D01*
X87455285Y-105735380D01*
%TO.C,Y3*%
X83978809Y-100941190D02*
X83978809Y-101417380D01*
X83645476Y-100417380D02*
X83978809Y-100941190D01*
X84312142Y-100417380D01*
X84550238Y-100417380D02*
X85169285Y-100417380D01*
X84835952Y-100798333D01*
X84978809Y-100798333D01*
X85074047Y-100845952D01*
X85121666Y-100893571D01*
X85169285Y-100988809D01*
X85169285Y-101226904D01*
X85121666Y-101322142D01*
X85074047Y-101369761D01*
X84978809Y-101417380D01*
X84693095Y-101417380D01*
X84597857Y-101369761D01*
X84550238Y-101322142D01*
%TO.C,U2*%
X87170052Y-110888451D02*
X86597632Y-111460871D01*
X86563960Y-111561886D01*
X86563960Y-111629230D01*
X86597632Y-111730245D01*
X86732319Y-111864932D01*
X86833334Y-111898604D01*
X86900678Y-111898604D01*
X87001693Y-111864932D01*
X87574113Y-111292512D01*
X87809815Y-111662902D02*
X87877158Y-111662902D01*
X87978174Y-111696573D01*
X88146532Y-111864932D01*
X88180204Y-111965947D01*
X88180204Y-112033291D01*
X88146532Y-112134306D01*
X88079189Y-112201650D01*
X87944502Y-112268993D01*
X87136380Y-112268993D01*
X87574113Y-112706726D01*
%TO.C,U1*%
X81407095Y-86193380D02*
X81407095Y-87002904D01*
X81454714Y-87098142D01*
X81502333Y-87145761D01*
X81597571Y-87193380D01*
X81788047Y-87193380D01*
X81883285Y-87145761D01*
X81930904Y-87098142D01*
X81978523Y-87002904D01*
X81978523Y-86193380D01*
X82978523Y-87193380D02*
X82407095Y-87193380D01*
X82692809Y-87193380D02*
X82692809Y-86193380D01*
X82597571Y-86336238D01*
X82502333Y-86431476D01*
X82407095Y-86479095D01*
%TO.C,R4*%
X81104980Y-123940866D02*
X80628790Y-124274200D01*
X81104980Y-124512295D02*
X80104980Y-124512295D01*
X80104980Y-124131342D01*
X80152600Y-124036104D01*
X80200219Y-123988485D01*
X80295457Y-123940866D01*
X80438314Y-123940866D01*
X80533552Y-123988485D01*
X80581171Y-124036104D01*
X80628790Y-124131342D01*
X80628790Y-124512295D01*
X80438314Y-123083723D02*
X81104980Y-123083723D01*
X80057361Y-123321819D02*
X80771647Y-123559914D01*
X80771647Y-122940866D01*
%TO.C,R3*%
X79619080Y-123940866D02*
X79142890Y-124274200D01*
X79619080Y-124512295D02*
X78619080Y-124512295D01*
X78619080Y-124131342D01*
X78666700Y-124036104D01*
X78714319Y-123988485D01*
X78809557Y-123940866D01*
X78952414Y-123940866D01*
X79047652Y-123988485D01*
X79095271Y-124036104D01*
X79142890Y-124131342D01*
X79142890Y-124512295D01*
X78619080Y-123607533D02*
X78619080Y-122988485D01*
X79000033Y-123321819D01*
X79000033Y-123178961D01*
X79047652Y-123083723D01*
X79095271Y-123036104D01*
X79190509Y-122988485D01*
X79428604Y-122988485D01*
X79523842Y-123036104D01*
X79571461Y-123083723D01*
X79619080Y-123178961D01*
X79619080Y-123464676D01*
X79571461Y-123559914D01*
X79523842Y-123607533D01*
%TO.C,R10*%
D10*
X85275000Y-82485666D02*
X85041666Y-82152333D01*
X84875000Y-82485666D02*
X84875000Y-81785666D01*
X85141666Y-81785666D01*
X85208333Y-81819000D01*
X85241666Y-81852333D01*
X85275000Y-81919000D01*
X85275000Y-82019000D01*
X85241666Y-82085666D01*
X85208333Y-82119000D01*
X85141666Y-82152333D01*
X84875000Y-82152333D01*
X85941666Y-82485666D02*
X85541666Y-82485666D01*
X85741666Y-82485666D02*
X85741666Y-81785666D01*
X85675000Y-81885666D01*
X85608333Y-81952333D01*
X85541666Y-81985666D01*
X86375000Y-81785666D02*
X86441666Y-81785666D01*
X86508333Y-81819000D01*
X86541666Y-81852333D01*
X86575000Y-81919000D01*
X86608333Y-82052333D01*
X86608333Y-82219000D01*
X86575000Y-82352333D01*
X86541666Y-82419000D01*
X86508333Y-82452333D01*
X86441666Y-82485666D01*
X86375000Y-82485666D01*
X86308333Y-82452333D01*
X86275000Y-82419000D01*
X86241666Y-82352333D01*
X86208333Y-82219000D01*
X86208333Y-82052333D01*
X86241666Y-81919000D01*
X86275000Y-81852333D01*
X86308333Y-81819000D01*
X86375000Y-81785666D01*
%TO.C,R6*%
D12*
X80986333Y-105227380D02*
X80653000Y-104751190D01*
X80414904Y-105227380D02*
X80414904Y-104227380D01*
X80795857Y-104227380D01*
X80891095Y-104275000D01*
X80938714Y-104322619D01*
X80986333Y-104417857D01*
X80986333Y-104560714D01*
X80938714Y-104655952D01*
X80891095Y-104703571D01*
X80795857Y-104751190D01*
X80414904Y-104751190D01*
X81843476Y-104227380D02*
X81653000Y-104227380D01*
X81557761Y-104275000D01*
X81510142Y-104322619D01*
X81414904Y-104465476D01*
X81367285Y-104655952D01*
X81367285Y-105036904D01*
X81414904Y-105132142D01*
X81462523Y-105179761D01*
X81557761Y-105227380D01*
X81748238Y-105227380D01*
X81843476Y-105179761D01*
X81891095Y-105132142D01*
X81938714Y-105036904D01*
X81938714Y-104798809D01*
X81891095Y-104703571D01*
X81843476Y-104655952D01*
X81748238Y-104608333D01*
X81557761Y-104608333D01*
X81462523Y-104655952D01*
X81414904Y-104703571D01*
X81367285Y-104798809D01*
%TO.C,R11*%
D10*
X82989000Y-82485666D02*
X82755666Y-82152333D01*
X82589000Y-82485666D02*
X82589000Y-81785666D01*
X82855666Y-81785666D01*
X82922333Y-81819000D01*
X82955666Y-81852333D01*
X82989000Y-81919000D01*
X82989000Y-82019000D01*
X82955666Y-82085666D01*
X82922333Y-82119000D01*
X82855666Y-82152333D01*
X82589000Y-82152333D01*
X83655666Y-82485666D02*
X83255666Y-82485666D01*
X83455666Y-82485666D02*
X83455666Y-81785666D01*
X83389000Y-81885666D01*
X83322333Y-81952333D01*
X83255666Y-81985666D01*
X84322333Y-82485666D02*
X83922333Y-82485666D01*
X84122333Y-82485666D02*
X84122333Y-81785666D01*
X84055666Y-81885666D01*
X83989000Y-81952333D01*
X83922333Y-81985666D01*
%TO.C,R9*%
X81290333Y-82485666D02*
X81057000Y-82152333D01*
X80890333Y-82485666D02*
X80890333Y-81785666D01*
X81157000Y-81785666D01*
X81223666Y-81819000D01*
X81257000Y-81852333D01*
X81290333Y-81919000D01*
X81290333Y-82019000D01*
X81257000Y-82085666D01*
X81223666Y-82119000D01*
X81157000Y-82152333D01*
X80890333Y-82152333D01*
X81623666Y-82485666D02*
X81757000Y-82485666D01*
X81823666Y-82452333D01*
X81857000Y-82419000D01*
X81923666Y-82319000D01*
X81957000Y-82185666D01*
X81957000Y-81919000D01*
X81923666Y-81852333D01*
X81890333Y-81819000D01*
X81823666Y-81785666D01*
X81690333Y-81785666D01*
X81623666Y-81819000D01*
X81590333Y-81852333D01*
X81557000Y-81919000D01*
X81557000Y-82085666D01*
X81590333Y-82152333D01*
X81623666Y-82185666D01*
X81690333Y-82219000D01*
X81823666Y-82219000D01*
X81890333Y-82185666D01*
X81923666Y-82152333D01*
X81957000Y-82085666D01*
%TO.C,R2*%
D12*
X79768980Y-123953566D02*
X79292790Y-124286900D01*
X79768980Y-124524995D02*
X78768980Y-124524995D01*
X78768980Y-124144042D01*
X78816600Y-124048804D01*
X78864219Y-124001185D01*
X78959457Y-123953566D01*
X79102314Y-123953566D01*
X79197552Y-124001185D01*
X79245171Y-124048804D01*
X79292790Y-124144042D01*
X79292790Y-124524995D01*
X78864219Y-123572614D02*
X78816600Y-123524995D01*
X78768980Y-123429757D01*
X78768980Y-123191661D01*
X78816600Y-123096423D01*
X78864219Y-123048804D01*
X78959457Y-123001185D01*
X79054695Y-123001185D01*
X79197552Y-123048804D01*
X79768980Y-123620233D01*
X79768980Y-123001185D01*
%TO.C,J2*%
X89031380Y-93678333D02*
X89745666Y-93678333D01*
X89888523Y-93725952D01*
X89983761Y-93821190D01*
X90031380Y-93964047D01*
X90031380Y-94059285D01*
X89126619Y-93249761D02*
X89079000Y-93202142D01*
X89031380Y-93106904D01*
X89031380Y-92868809D01*
X89079000Y-92773571D01*
X89126619Y-92725952D01*
X89221857Y-92678333D01*
X89317095Y-92678333D01*
X89459952Y-92725952D01*
X90031380Y-93297380D01*
X90031380Y-92678333D01*
%TO.C,J3*%
X83359666Y-77557380D02*
X83359666Y-78271666D01*
X83312047Y-78414523D01*
X83216809Y-78509761D01*
X83073952Y-78557380D01*
X82978714Y-78557380D01*
X83740619Y-77557380D02*
X84359666Y-77557380D01*
X84026333Y-77938333D01*
X84169190Y-77938333D01*
X84264428Y-77985952D01*
X84312047Y-78033571D01*
X84359666Y-78128809D01*
X84359666Y-78366904D01*
X84312047Y-78462142D01*
X84264428Y-78509761D01*
X84169190Y-78557380D01*
X83883476Y-78557380D01*
X83788238Y-78509761D01*
X83740619Y-78462142D01*
%TO.C,C1*%
D10*
X88491233Y-96274700D02*
X88457900Y-96308033D01*
X88357900Y-96341366D01*
X88291233Y-96341366D01*
X88191233Y-96308033D01*
X88124566Y-96241366D01*
X88091233Y-96174700D01*
X88057900Y-96041366D01*
X88057900Y-95941366D01*
X88091233Y-95808033D01*
X88124566Y-95741366D01*
X88191233Y-95674700D01*
X88291233Y-95641366D01*
X88357900Y-95641366D01*
X88457900Y-95674700D01*
X88491233Y-95708033D01*
X89157900Y-96341366D02*
X88757900Y-96341366D01*
X88957900Y-96341366D02*
X88957900Y-95641366D01*
X88891233Y-95741366D01*
X88824566Y-95808033D01*
X88757900Y-95841366D01*
%TO.C,C4*%
X87894333Y-109851000D02*
X87861000Y-109884333D01*
X87761000Y-109917666D01*
X87694333Y-109917666D01*
X87594333Y-109884333D01*
X87527666Y-109817666D01*
X87494333Y-109751000D01*
X87461000Y-109617666D01*
X87461000Y-109517666D01*
X87494333Y-109384333D01*
X87527666Y-109317666D01*
X87594333Y-109251000D01*
X87694333Y-109217666D01*
X87761000Y-109217666D01*
X87861000Y-109251000D01*
X87894333Y-109284333D01*
X88494333Y-109451000D02*
X88494333Y-109917666D01*
X88327666Y-109184333D02*
X88161000Y-109684333D01*
X88594333Y-109684333D01*
%TO.C,C3*%
X78496333Y-120506300D02*
X78463000Y-120539633D01*
X78363000Y-120572966D01*
X78296333Y-120572966D01*
X78196333Y-120539633D01*
X78129666Y-120472966D01*
X78096333Y-120406300D01*
X78063000Y-120272966D01*
X78063000Y-120172966D01*
X78096333Y-120039633D01*
X78129666Y-119972966D01*
X78196333Y-119906300D01*
X78296333Y-119872966D01*
X78363000Y-119872966D01*
X78463000Y-119906300D01*
X78496333Y-119939633D01*
X78729666Y-119872966D02*
X79163000Y-119872966D01*
X78929666Y-120139633D01*
X79029666Y-120139633D01*
X79096333Y-120172966D01*
X79129666Y-120206300D01*
X79163000Y-120272966D01*
X79163000Y-120439633D01*
X79129666Y-120506300D01*
X79096333Y-120539633D01*
X79029666Y-120572966D01*
X78829666Y-120572966D01*
X78763000Y-120539633D01*
X78729666Y-120506300D01*
%TO.C,C11*%
D12*
X90052142Y-121152857D02*
X90099761Y-121200476D01*
X90147380Y-121343333D01*
X90147380Y-121438571D01*
X90099761Y-121581428D01*
X90004523Y-121676666D01*
X89909285Y-121724285D01*
X89718809Y-121771904D01*
X89575952Y-121771904D01*
X89385476Y-121724285D01*
X89290238Y-121676666D01*
X89195000Y-121581428D01*
X89147380Y-121438571D01*
X89147380Y-121343333D01*
X89195000Y-121200476D01*
X89242619Y-121152857D01*
X90147380Y-120200476D02*
X90147380Y-120771904D01*
X90147380Y-120486190D02*
X89147380Y-120486190D01*
X89290238Y-120581428D01*
X89385476Y-120676666D01*
X89433095Y-120771904D01*
X90147380Y-119248095D02*
X90147380Y-119819523D01*
X90147380Y-119533809D02*
X89147380Y-119533809D01*
X89290238Y-119629047D01*
X89385476Y-119724285D01*
X89433095Y-119819523D01*
%TO.C,C10*%
D10*
X79625000Y-111321000D02*
X79658333Y-111354333D01*
X79691666Y-111454333D01*
X79691666Y-111521000D01*
X79658333Y-111621000D01*
X79591666Y-111687666D01*
X79525000Y-111721000D01*
X79391666Y-111754333D01*
X79291666Y-111754333D01*
X79158333Y-111721000D01*
X79091666Y-111687666D01*
X79025000Y-111621000D01*
X78991666Y-111521000D01*
X78991666Y-111454333D01*
X79025000Y-111354333D01*
X79058333Y-111321000D01*
X79691666Y-110654333D02*
X79691666Y-111054333D01*
X79691666Y-110854333D02*
X78991666Y-110854333D01*
X79091666Y-110921000D01*
X79158333Y-110987666D01*
X79191666Y-111054333D01*
X78991666Y-110221000D02*
X78991666Y-110154333D01*
X79025000Y-110087666D01*
X79058333Y-110054333D01*
X79125000Y-110021000D01*
X79258333Y-109987666D01*
X79425000Y-109987666D01*
X79558333Y-110021000D01*
X79625000Y-110054333D01*
X79658333Y-110087666D01*
X79691666Y-110154333D01*
X79691666Y-110221000D01*
X79658333Y-110287666D01*
X79625000Y-110321000D01*
X79558333Y-110354333D01*
X79425000Y-110387666D01*
X79258333Y-110387666D01*
X79125000Y-110354333D01*
X79058333Y-110321000D01*
X79025000Y-110287666D01*
X78991666Y-110221000D01*
%TO.C,C14*%
D12*
X89384142Y-108211857D02*
X89431761Y-108259476D01*
X89479380Y-108402333D01*
X89479380Y-108497571D01*
X89431761Y-108640428D01*
X89336523Y-108735666D01*
X89241285Y-108783285D01*
X89050809Y-108830904D01*
X88907952Y-108830904D01*
X88717476Y-108783285D01*
X88622238Y-108735666D01*
X88527000Y-108640428D01*
X88479380Y-108497571D01*
X88479380Y-108402333D01*
X88527000Y-108259476D01*
X88574619Y-108211857D01*
X89479380Y-107259476D02*
X89479380Y-107830904D01*
X89479380Y-107545190D02*
X88479380Y-107545190D01*
X88622238Y-107640428D01*
X88717476Y-107735666D01*
X88765095Y-107830904D01*
X88812714Y-106402333D02*
X89479380Y-106402333D01*
X88431761Y-106640428D02*
X89146047Y-106878523D01*
X89146047Y-106259476D01*
%TO.C,C13*%
X78556142Y-108211857D02*
X78603761Y-108259476D01*
X78651380Y-108402333D01*
X78651380Y-108497571D01*
X78603761Y-108640428D01*
X78508523Y-108735666D01*
X78413285Y-108783285D01*
X78222809Y-108830904D01*
X78079952Y-108830904D01*
X77889476Y-108783285D01*
X77794238Y-108735666D01*
X77699000Y-108640428D01*
X77651380Y-108497571D01*
X77651380Y-108402333D01*
X77699000Y-108259476D01*
X77746619Y-108211857D01*
X78651380Y-107259476D02*
X78651380Y-107830904D01*
X78651380Y-107545190D02*
X77651380Y-107545190D01*
X77794238Y-107640428D01*
X77889476Y-107735666D01*
X77937095Y-107830904D01*
X77651380Y-106926142D02*
X77651380Y-106307095D01*
X78032333Y-106640428D01*
X78032333Y-106497571D01*
X78079952Y-106402333D01*
X78127571Y-106354714D01*
X78222809Y-106307095D01*
X78460904Y-106307095D01*
X78556142Y-106354714D01*
X78603761Y-106402333D01*
X78651380Y-106497571D01*
X78651380Y-106783285D01*
X78603761Y-106878523D01*
X78556142Y-106926142D01*
%TO.C,C2*%
X77481133Y-131141742D02*
X77433514Y-131189361D01*
X77290657Y-131236980D01*
X77195419Y-131236980D01*
X77052561Y-131189361D01*
X76957323Y-131094123D01*
X76909704Y-130998885D01*
X76862085Y-130808409D01*
X76862085Y-130665552D01*
X76909704Y-130475076D01*
X76957323Y-130379838D01*
X77052561Y-130284600D01*
X77195419Y-130236980D01*
X77290657Y-130236980D01*
X77433514Y-130284600D01*
X77481133Y-130332219D01*
X77862085Y-130332219D02*
X77909704Y-130284600D01*
X78004942Y-130236980D01*
X78243038Y-130236980D01*
X78338276Y-130284600D01*
X78385895Y-130332219D01*
X78433514Y-130427457D01*
X78433514Y-130522695D01*
X78385895Y-130665552D01*
X77814466Y-131236980D01*
X78433514Y-131236980D01*
%TO.C,C12*%
X79748142Y-101576142D02*
X79700523Y-101623761D01*
X79557666Y-101671380D01*
X79462428Y-101671380D01*
X79319571Y-101623761D01*
X79224333Y-101528523D01*
X79176714Y-101433285D01*
X79129095Y-101242809D01*
X79129095Y-101099952D01*
X79176714Y-100909476D01*
X79224333Y-100814238D01*
X79319571Y-100719000D01*
X79462428Y-100671380D01*
X79557666Y-100671380D01*
X79700523Y-100719000D01*
X79748142Y-100766619D01*
X80700523Y-101671380D02*
X80129095Y-101671380D01*
X80414809Y-101671380D02*
X80414809Y-100671380D01*
X80319571Y-100814238D01*
X80224333Y-100909476D01*
X80129095Y-100957095D01*
X81081476Y-100766619D02*
X81129095Y-100719000D01*
X81224333Y-100671380D01*
X81462428Y-100671380D01*
X81557666Y-100719000D01*
X81605285Y-100766619D01*
X81652904Y-100861857D01*
X81652904Y-100957095D01*
X81605285Y-101099952D01*
X81033857Y-101671380D01*
X81652904Y-101671380D01*
%TO.C,C9*%
X86574333Y-101670142D02*
X86526714Y-101717761D01*
X86383857Y-101765380D01*
X86288619Y-101765380D01*
X86145761Y-101717761D01*
X86050523Y-101622523D01*
X86002904Y-101527285D01*
X85955285Y-101336809D01*
X85955285Y-101193952D01*
X86002904Y-101003476D01*
X86050523Y-100908238D01*
X86145761Y-100813000D01*
X86288619Y-100765380D01*
X86383857Y-100765380D01*
X86526714Y-100813000D01*
X86574333Y-100860619D01*
X87050523Y-101765380D02*
X87241000Y-101765380D01*
X87336238Y-101717761D01*
X87383857Y-101670142D01*
X87479095Y-101527285D01*
X87526714Y-101336809D01*
X87526714Y-100955857D01*
X87479095Y-100860619D01*
X87431476Y-100813000D01*
X87336238Y-100765380D01*
X87145761Y-100765380D01*
X87050523Y-100813000D01*
X87002904Y-100860619D01*
X86955285Y-100955857D01*
X86955285Y-101193952D01*
X87002904Y-101289190D01*
X87050523Y-101336809D01*
X87145761Y-101384428D01*
X87336238Y-101384428D01*
X87431476Y-101336809D01*
X87479095Y-101289190D01*
X87526714Y-101193952D01*
%TO.C,U3*%
X72477380Y-83946904D02*
X73286904Y-83946904D01*
X73382142Y-83899285D01*
X73429761Y-83851666D01*
X73477380Y-83756428D01*
X73477380Y-83565952D01*
X73429761Y-83470714D01*
X73382142Y-83423095D01*
X73286904Y-83375476D01*
X72477380Y-83375476D01*
X72477380Y-82994523D02*
X72477380Y-82375476D01*
X72858333Y-82708809D01*
X72858333Y-82565952D01*
X72905952Y-82470714D01*
X72953571Y-82423095D01*
X73048809Y-82375476D01*
X73286904Y-82375476D01*
X73382142Y-82423095D01*
X73429761Y-82470714D01*
X73477380Y-82565952D01*
X73477380Y-82851666D01*
X73429761Y-82946904D01*
X73382142Y-82994523D01*
%TO.C,J4*%
X90471666Y-142327380D02*
X90471666Y-143041666D01*
X90424047Y-143184523D01*
X90328809Y-143279761D01*
X90185952Y-143327380D01*
X90090714Y-143327380D01*
X91376428Y-142660714D02*
X91376428Y-143327380D01*
X91138333Y-142279761D02*
X90900238Y-142994047D01*
X91519285Y-142994047D01*
%TD*%
M02*
