%TF.GenerationSoftware,KiCad,Pcbnew,(5.1.7-0-10_14)*%
%TF.CreationDate,2021-05-27T20:48:50-05:00*%
%TF.ProjectId,bluepill_scsi,626c7565-7069-46c6-9c5f-736373692e6b,rev?*%
%TF.SameCoordinates,Original*%
%TF.FileFunction,Paste,Top*%
%TF.FilePolarity,Positive*%
%FSLAX46Y46*%
G04 Gerber Fmt 4.6, Leading zero omitted, Abs format (unit mm)*
G04 Created by KiCad (PCBNEW (5.1.7-0-10_14)) date 2021-05-27 20:48:50*
%MOMM*%
%LPD*%
G01*
G04 APERTURE LIST*
%TA.AperFunction,Profile*%
%ADD10C,0.050000*%
%TD*%
%ADD11R,1.200000X0.900000*%
%ADD12R,1.900000X1.350000*%
%ADD13R,1.200000X1.000000*%
%ADD14R,1.550000X1.350000*%
%ADD15R,1.170000X1.800000*%
%ADD16R,0.850000X1.100000*%
%ADD17R,0.750000X1.100000*%
%ADD18R,2.000000X2.400000*%
%ADD19R,1.000000X1.800000*%
%ADD20R,1.060000X0.650000*%
%ADD21R,0.450000X1.300000*%
G04 APERTURE END LIST*
D10*
X71755000Y-149225000D02*
X71120000Y-149225000D01*
X71120000Y-147955000D02*
X71120000Y-149225000D01*
X114935000Y-149225000D02*
X71755000Y-149225000D01*
X114935000Y-147955000D02*
X114935000Y-149225000D01*
X114935000Y-75565000D02*
X71120000Y-75565000D01*
X114935000Y-147955000D02*
X114935000Y-75565000D01*
X71120000Y-147955000D02*
X71120000Y-75565000D01*
D11*
%TO.C,D6*%
X91528900Y-76975700D03*
X91528900Y-80275700D03*
%TD*%
%TO.C,D4*%
X96240600Y-76975700D03*
X96240600Y-80275700D03*
%TD*%
%TO.C,D3*%
X93884750Y-76975700D03*
X93884750Y-80275700D03*
%TD*%
%TO.C,R47*%
G36*
G01*
X101556000Y-124566000D02*
X101556000Y-125116000D01*
G75*
G02*
X101356000Y-125316000I-200000J0D01*
G01*
X100956000Y-125316000D01*
G75*
G02*
X100756000Y-125116000I0J200000D01*
G01*
X100756000Y-124566000D01*
G75*
G02*
X100956000Y-124366000I200000J0D01*
G01*
X101356000Y-124366000D01*
G75*
G02*
X101556000Y-124566000I0J-200000D01*
G01*
G37*
G36*
G01*
X103206000Y-124566000D02*
X103206000Y-125116000D01*
G75*
G02*
X103006000Y-125316000I-200000J0D01*
G01*
X102606000Y-125316000D01*
G75*
G02*
X102406000Y-125116000I0J200000D01*
G01*
X102406000Y-124566000D01*
G75*
G02*
X102606000Y-124366000I200000J0D01*
G01*
X103006000Y-124366000D01*
G75*
G02*
X103206000Y-124566000I0J-200000D01*
G01*
G37*
%TD*%
%TO.C,R46*%
G36*
G01*
X99358000Y-125116000D02*
X99358000Y-124566000D01*
G75*
G02*
X99558000Y-124366000I200000J0D01*
G01*
X99958000Y-124366000D01*
G75*
G02*
X100158000Y-124566000I0J-200000D01*
G01*
X100158000Y-125116000D01*
G75*
G02*
X99958000Y-125316000I-200000J0D01*
G01*
X99558000Y-125316000D01*
G75*
G02*
X99358000Y-125116000I0J200000D01*
G01*
G37*
G36*
G01*
X97708000Y-125116000D02*
X97708000Y-124566000D01*
G75*
G02*
X97908000Y-124366000I200000J0D01*
G01*
X98308000Y-124366000D01*
G75*
G02*
X98508000Y-124566000I0J-200000D01*
G01*
X98508000Y-125116000D01*
G75*
G02*
X98308000Y-125316000I-200000J0D01*
G01*
X97908000Y-125316000D01*
G75*
G02*
X97708000Y-125116000I0J200000D01*
G01*
G37*
%TD*%
%TO.C,R45*%
G36*
G01*
X101556000Y-126852000D02*
X101556000Y-127402000D01*
G75*
G02*
X101356000Y-127602000I-200000J0D01*
G01*
X100956000Y-127602000D01*
G75*
G02*
X100756000Y-127402000I0J200000D01*
G01*
X100756000Y-126852000D01*
G75*
G02*
X100956000Y-126652000I200000J0D01*
G01*
X101356000Y-126652000D01*
G75*
G02*
X101556000Y-126852000I0J-200000D01*
G01*
G37*
G36*
G01*
X103206000Y-126852000D02*
X103206000Y-127402000D01*
G75*
G02*
X103006000Y-127602000I-200000J0D01*
G01*
X102606000Y-127602000D01*
G75*
G02*
X102406000Y-127402000I0J200000D01*
G01*
X102406000Y-126852000D01*
G75*
G02*
X102606000Y-126652000I200000J0D01*
G01*
X103006000Y-126652000D01*
G75*
G02*
X103206000Y-126852000I0J-200000D01*
G01*
G37*
%TD*%
%TO.C,R44*%
G36*
G01*
X99358000Y-127402000D02*
X99358000Y-126852000D01*
G75*
G02*
X99558000Y-126652000I200000J0D01*
G01*
X99958000Y-126652000D01*
G75*
G02*
X100158000Y-126852000I0J-200000D01*
G01*
X100158000Y-127402000D01*
G75*
G02*
X99958000Y-127602000I-200000J0D01*
G01*
X99558000Y-127602000D01*
G75*
G02*
X99358000Y-127402000I0J200000D01*
G01*
G37*
G36*
G01*
X97708000Y-127402000D02*
X97708000Y-126852000D01*
G75*
G02*
X97908000Y-126652000I200000J0D01*
G01*
X98308000Y-126652000D01*
G75*
G02*
X98508000Y-126852000I0J-200000D01*
G01*
X98508000Y-127402000D01*
G75*
G02*
X98308000Y-127602000I-200000J0D01*
G01*
X97908000Y-127602000D01*
G75*
G02*
X97708000Y-127402000I0J200000D01*
G01*
G37*
%TD*%
%TO.C,R43*%
G36*
G01*
X101556000Y-129138000D02*
X101556000Y-129688000D01*
G75*
G02*
X101356000Y-129888000I-200000J0D01*
G01*
X100956000Y-129888000D01*
G75*
G02*
X100756000Y-129688000I0J200000D01*
G01*
X100756000Y-129138000D01*
G75*
G02*
X100956000Y-128938000I200000J0D01*
G01*
X101356000Y-128938000D01*
G75*
G02*
X101556000Y-129138000I0J-200000D01*
G01*
G37*
G36*
G01*
X103206000Y-129138000D02*
X103206000Y-129688000D01*
G75*
G02*
X103006000Y-129888000I-200000J0D01*
G01*
X102606000Y-129888000D01*
G75*
G02*
X102406000Y-129688000I0J200000D01*
G01*
X102406000Y-129138000D01*
G75*
G02*
X102606000Y-128938000I200000J0D01*
G01*
X103006000Y-128938000D01*
G75*
G02*
X103206000Y-129138000I0J-200000D01*
G01*
G37*
%TD*%
%TO.C,R42*%
G36*
G01*
X99358000Y-129688000D02*
X99358000Y-129138000D01*
G75*
G02*
X99558000Y-128938000I200000J0D01*
G01*
X99958000Y-128938000D01*
G75*
G02*
X100158000Y-129138000I0J-200000D01*
G01*
X100158000Y-129688000D01*
G75*
G02*
X99958000Y-129888000I-200000J0D01*
G01*
X99558000Y-129888000D01*
G75*
G02*
X99358000Y-129688000I0J200000D01*
G01*
G37*
G36*
G01*
X97708000Y-129688000D02*
X97708000Y-129138000D01*
G75*
G02*
X97908000Y-128938000I200000J0D01*
G01*
X98308000Y-128938000D01*
G75*
G02*
X98508000Y-129138000I0J-200000D01*
G01*
X98508000Y-129688000D01*
G75*
G02*
X98308000Y-129888000I-200000J0D01*
G01*
X97908000Y-129888000D01*
G75*
G02*
X97708000Y-129688000I0J200000D01*
G01*
G37*
%TD*%
%TO.C,R41*%
G36*
G01*
X101556000Y-131424000D02*
X101556000Y-131974000D01*
G75*
G02*
X101356000Y-132174000I-200000J0D01*
G01*
X100956000Y-132174000D01*
G75*
G02*
X100756000Y-131974000I0J200000D01*
G01*
X100756000Y-131424000D01*
G75*
G02*
X100956000Y-131224000I200000J0D01*
G01*
X101356000Y-131224000D01*
G75*
G02*
X101556000Y-131424000I0J-200000D01*
G01*
G37*
G36*
G01*
X103206000Y-131424000D02*
X103206000Y-131974000D01*
G75*
G02*
X103006000Y-132174000I-200000J0D01*
G01*
X102606000Y-132174000D01*
G75*
G02*
X102406000Y-131974000I0J200000D01*
G01*
X102406000Y-131424000D01*
G75*
G02*
X102606000Y-131224000I200000J0D01*
G01*
X103006000Y-131224000D01*
G75*
G02*
X103206000Y-131424000I0J-200000D01*
G01*
G37*
%TD*%
%TO.C,R40*%
G36*
G01*
X99358000Y-131974000D02*
X99358000Y-131424000D01*
G75*
G02*
X99558000Y-131224000I200000J0D01*
G01*
X99958000Y-131224000D01*
G75*
G02*
X100158000Y-131424000I0J-200000D01*
G01*
X100158000Y-131974000D01*
G75*
G02*
X99958000Y-132174000I-200000J0D01*
G01*
X99558000Y-132174000D01*
G75*
G02*
X99358000Y-131974000I0J200000D01*
G01*
G37*
G36*
G01*
X97708000Y-131974000D02*
X97708000Y-131424000D01*
G75*
G02*
X97908000Y-131224000I200000J0D01*
G01*
X98308000Y-131224000D01*
G75*
G02*
X98508000Y-131424000I0J-200000D01*
G01*
X98508000Y-131974000D01*
G75*
G02*
X98308000Y-132174000I-200000J0D01*
G01*
X97908000Y-132174000D01*
G75*
G02*
X97708000Y-131974000I0J200000D01*
G01*
G37*
%TD*%
%TO.C,R39*%
G36*
G01*
X101556000Y-133456000D02*
X101556000Y-134006000D01*
G75*
G02*
X101356000Y-134206000I-200000J0D01*
G01*
X100956000Y-134206000D01*
G75*
G02*
X100756000Y-134006000I0J200000D01*
G01*
X100756000Y-133456000D01*
G75*
G02*
X100956000Y-133256000I200000J0D01*
G01*
X101356000Y-133256000D01*
G75*
G02*
X101556000Y-133456000I0J-200000D01*
G01*
G37*
G36*
G01*
X103206000Y-133456000D02*
X103206000Y-134006000D01*
G75*
G02*
X103006000Y-134206000I-200000J0D01*
G01*
X102606000Y-134206000D01*
G75*
G02*
X102406000Y-134006000I0J200000D01*
G01*
X102406000Y-133456000D01*
G75*
G02*
X102606000Y-133256000I200000J0D01*
G01*
X103006000Y-133256000D01*
G75*
G02*
X103206000Y-133456000I0J-200000D01*
G01*
G37*
%TD*%
%TO.C,R38*%
G36*
G01*
X99358000Y-134006000D02*
X99358000Y-133456000D01*
G75*
G02*
X99558000Y-133256000I200000J0D01*
G01*
X99958000Y-133256000D01*
G75*
G02*
X100158000Y-133456000I0J-200000D01*
G01*
X100158000Y-134006000D01*
G75*
G02*
X99958000Y-134206000I-200000J0D01*
G01*
X99558000Y-134206000D01*
G75*
G02*
X99358000Y-134006000I0J200000D01*
G01*
G37*
G36*
G01*
X97708000Y-134006000D02*
X97708000Y-133456000D01*
G75*
G02*
X97908000Y-133256000I200000J0D01*
G01*
X98308000Y-133256000D01*
G75*
G02*
X98508000Y-133456000I0J-200000D01*
G01*
X98508000Y-134006000D01*
G75*
G02*
X98308000Y-134206000I-200000J0D01*
G01*
X97908000Y-134206000D01*
G75*
G02*
X97708000Y-134006000I0J200000D01*
G01*
G37*
%TD*%
%TO.C,R37*%
G36*
G01*
X101556000Y-135742000D02*
X101556000Y-136292000D01*
G75*
G02*
X101356000Y-136492000I-200000J0D01*
G01*
X100956000Y-136492000D01*
G75*
G02*
X100756000Y-136292000I0J200000D01*
G01*
X100756000Y-135742000D01*
G75*
G02*
X100956000Y-135542000I200000J0D01*
G01*
X101356000Y-135542000D01*
G75*
G02*
X101556000Y-135742000I0J-200000D01*
G01*
G37*
G36*
G01*
X103206000Y-135742000D02*
X103206000Y-136292000D01*
G75*
G02*
X103006000Y-136492000I-200000J0D01*
G01*
X102606000Y-136492000D01*
G75*
G02*
X102406000Y-136292000I0J200000D01*
G01*
X102406000Y-135742000D01*
G75*
G02*
X102606000Y-135542000I200000J0D01*
G01*
X103006000Y-135542000D01*
G75*
G02*
X103206000Y-135742000I0J-200000D01*
G01*
G37*
%TD*%
%TO.C,R36*%
G36*
G01*
X99358000Y-136292000D02*
X99358000Y-135742000D01*
G75*
G02*
X99558000Y-135542000I200000J0D01*
G01*
X99958000Y-135542000D01*
G75*
G02*
X100158000Y-135742000I0J-200000D01*
G01*
X100158000Y-136292000D01*
G75*
G02*
X99958000Y-136492000I-200000J0D01*
G01*
X99558000Y-136492000D01*
G75*
G02*
X99358000Y-136292000I0J200000D01*
G01*
G37*
G36*
G01*
X97708000Y-136292000D02*
X97708000Y-135742000D01*
G75*
G02*
X97908000Y-135542000I200000J0D01*
G01*
X98308000Y-135542000D01*
G75*
G02*
X98508000Y-135742000I0J-200000D01*
G01*
X98508000Y-136292000D01*
G75*
G02*
X98308000Y-136492000I-200000J0D01*
G01*
X97908000Y-136492000D01*
G75*
G02*
X97708000Y-136292000I0J200000D01*
G01*
G37*
%TD*%
%TO.C,R35*%
G36*
G01*
X101556000Y-138028000D02*
X101556000Y-138578000D01*
G75*
G02*
X101356000Y-138778000I-200000J0D01*
G01*
X100956000Y-138778000D01*
G75*
G02*
X100756000Y-138578000I0J200000D01*
G01*
X100756000Y-138028000D01*
G75*
G02*
X100956000Y-137828000I200000J0D01*
G01*
X101356000Y-137828000D01*
G75*
G02*
X101556000Y-138028000I0J-200000D01*
G01*
G37*
G36*
G01*
X103206000Y-138028000D02*
X103206000Y-138578000D01*
G75*
G02*
X103006000Y-138778000I-200000J0D01*
G01*
X102606000Y-138778000D01*
G75*
G02*
X102406000Y-138578000I0J200000D01*
G01*
X102406000Y-138028000D01*
G75*
G02*
X102606000Y-137828000I200000J0D01*
G01*
X103006000Y-137828000D01*
G75*
G02*
X103206000Y-138028000I0J-200000D01*
G01*
G37*
%TD*%
%TO.C,R34*%
G36*
G01*
X99358000Y-138578000D02*
X99358000Y-138028000D01*
G75*
G02*
X99558000Y-137828000I200000J0D01*
G01*
X99958000Y-137828000D01*
G75*
G02*
X100158000Y-138028000I0J-200000D01*
G01*
X100158000Y-138578000D01*
G75*
G02*
X99958000Y-138778000I-200000J0D01*
G01*
X99558000Y-138778000D01*
G75*
G02*
X99358000Y-138578000I0J200000D01*
G01*
G37*
G36*
G01*
X97708000Y-138578000D02*
X97708000Y-138028000D01*
G75*
G02*
X97908000Y-137828000I200000J0D01*
G01*
X98308000Y-137828000D01*
G75*
G02*
X98508000Y-138028000I0J-200000D01*
G01*
X98508000Y-138578000D01*
G75*
G02*
X98308000Y-138778000I-200000J0D01*
G01*
X97908000Y-138778000D01*
G75*
G02*
X97708000Y-138578000I0J200000D01*
G01*
G37*
%TD*%
%TO.C,R33*%
G36*
G01*
X101556000Y-140314000D02*
X101556000Y-140864000D01*
G75*
G02*
X101356000Y-141064000I-200000J0D01*
G01*
X100956000Y-141064000D01*
G75*
G02*
X100756000Y-140864000I0J200000D01*
G01*
X100756000Y-140314000D01*
G75*
G02*
X100956000Y-140114000I200000J0D01*
G01*
X101356000Y-140114000D01*
G75*
G02*
X101556000Y-140314000I0J-200000D01*
G01*
G37*
G36*
G01*
X103206000Y-140314000D02*
X103206000Y-140864000D01*
G75*
G02*
X103006000Y-141064000I-200000J0D01*
G01*
X102606000Y-141064000D01*
G75*
G02*
X102406000Y-140864000I0J200000D01*
G01*
X102406000Y-140314000D01*
G75*
G02*
X102606000Y-140114000I200000J0D01*
G01*
X103006000Y-140114000D01*
G75*
G02*
X103206000Y-140314000I0J-200000D01*
G01*
G37*
%TD*%
%TO.C,R32*%
G36*
G01*
X99358000Y-140864000D02*
X99358000Y-140314000D01*
G75*
G02*
X99558000Y-140114000I200000J0D01*
G01*
X99958000Y-140114000D01*
G75*
G02*
X100158000Y-140314000I0J-200000D01*
G01*
X100158000Y-140864000D01*
G75*
G02*
X99958000Y-141064000I-200000J0D01*
G01*
X99558000Y-141064000D01*
G75*
G02*
X99358000Y-140864000I0J200000D01*
G01*
G37*
G36*
G01*
X97708000Y-140864000D02*
X97708000Y-140314000D01*
G75*
G02*
X97908000Y-140114000I200000J0D01*
G01*
X98308000Y-140114000D01*
G75*
G02*
X98508000Y-140314000I0J-200000D01*
G01*
X98508000Y-140864000D01*
G75*
G02*
X98308000Y-141064000I-200000J0D01*
G01*
X97908000Y-141064000D01*
G75*
G02*
X97708000Y-140864000I0J200000D01*
G01*
G37*
%TD*%
%TO.C,R31*%
G36*
G01*
X101556000Y-122280000D02*
X101556000Y-122830000D01*
G75*
G02*
X101356000Y-123030000I-200000J0D01*
G01*
X100956000Y-123030000D01*
G75*
G02*
X100756000Y-122830000I0J200000D01*
G01*
X100756000Y-122280000D01*
G75*
G02*
X100956000Y-122080000I200000J0D01*
G01*
X101356000Y-122080000D01*
G75*
G02*
X101556000Y-122280000I0J-200000D01*
G01*
G37*
G36*
G01*
X103206000Y-122280000D02*
X103206000Y-122830000D01*
G75*
G02*
X103006000Y-123030000I-200000J0D01*
G01*
X102606000Y-123030000D01*
G75*
G02*
X102406000Y-122830000I0J200000D01*
G01*
X102406000Y-122280000D01*
G75*
G02*
X102606000Y-122080000I200000J0D01*
G01*
X103006000Y-122080000D01*
G75*
G02*
X103206000Y-122280000I0J-200000D01*
G01*
G37*
%TD*%
%TO.C,R30*%
G36*
G01*
X99358000Y-122830000D02*
X99358000Y-122280000D01*
G75*
G02*
X99558000Y-122080000I200000J0D01*
G01*
X99958000Y-122080000D01*
G75*
G02*
X100158000Y-122280000I0J-200000D01*
G01*
X100158000Y-122830000D01*
G75*
G02*
X99958000Y-123030000I-200000J0D01*
G01*
X99558000Y-123030000D01*
G75*
G02*
X99358000Y-122830000I0J200000D01*
G01*
G37*
G36*
G01*
X97708000Y-122830000D02*
X97708000Y-122280000D01*
G75*
G02*
X97908000Y-122080000I200000J0D01*
G01*
X98308000Y-122080000D01*
G75*
G02*
X98508000Y-122280000I0J-200000D01*
G01*
X98508000Y-122830000D01*
G75*
G02*
X98308000Y-123030000I-200000J0D01*
G01*
X97908000Y-123030000D01*
G75*
G02*
X97708000Y-122830000I0J200000D01*
G01*
G37*
%TD*%
%TO.C,R29*%
G36*
G01*
X101556000Y-104500000D02*
X101556000Y-105050000D01*
G75*
G02*
X101356000Y-105250000I-200000J0D01*
G01*
X100956000Y-105250000D01*
G75*
G02*
X100756000Y-105050000I0J200000D01*
G01*
X100756000Y-104500000D01*
G75*
G02*
X100956000Y-104300000I200000J0D01*
G01*
X101356000Y-104300000D01*
G75*
G02*
X101556000Y-104500000I0J-200000D01*
G01*
G37*
G36*
G01*
X103206000Y-104500000D02*
X103206000Y-105050000D01*
G75*
G02*
X103006000Y-105250000I-200000J0D01*
G01*
X102606000Y-105250000D01*
G75*
G02*
X102406000Y-105050000I0J200000D01*
G01*
X102406000Y-104500000D01*
G75*
G02*
X102606000Y-104300000I200000J0D01*
G01*
X103006000Y-104300000D01*
G75*
G02*
X103206000Y-104500000I0J-200000D01*
G01*
G37*
%TD*%
%TO.C,R28*%
G36*
G01*
X99358000Y-105050000D02*
X99358000Y-104500000D01*
G75*
G02*
X99558000Y-104300000I200000J0D01*
G01*
X99958000Y-104300000D01*
G75*
G02*
X100158000Y-104500000I0J-200000D01*
G01*
X100158000Y-105050000D01*
G75*
G02*
X99958000Y-105250000I-200000J0D01*
G01*
X99558000Y-105250000D01*
G75*
G02*
X99358000Y-105050000I0J200000D01*
G01*
G37*
G36*
G01*
X97708000Y-105050000D02*
X97708000Y-104500000D01*
G75*
G02*
X97908000Y-104300000I200000J0D01*
G01*
X98308000Y-104300000D01*
G75*
G02*
X98508000Y-104500000I0J-200000D01*
G01*
X98508000Y-105050000D01*
G75*
G02*
X98308000Y-105250000I-200000J0D01*
G01*
X97908000Y-105250000D01*
G75*
G02*
X97708000Y-105050000I0J200000D01*
G01*
G37*
%TD*%
%TO.C,R27*%
G36*
G01*
X101556000Y-97134000D02*
X101556000Y-97684000D01*
G75*
G02*
X101356000Y-97884000I-200000J0D01*
G01*
X100956000Y-97884000D01*
G75*
G02*
X100756000Y-97684000I0J200000D01*
G01*
X100756000Y-97134000D01*
G75*
G02*
X100956000Y-96934000I200000J0D01*
G01*
X101356000Y-96934000D01*
G75*
G02*
X101556000Y-97134000I0J-200000D01*
G01*
G37*
G36*
G01*
X103206000Y-97134000D02*
X103206000Y-97684000D01*
G75*
G02*
X103006000Y-97884000I-200000J0D01*
G01*
X102606000Y-97884000D01*
G75*
G02*
X102406000Y-97684000I0J200000D01*
G01*
X102406000Y-97134000D01*
G75*
G02*
X102606000Y-96934000I200000J0D01*
G01*
X103006000Y-96934000D01*
G75*
G02*
X103206000Y-97134000I0J-200000D01*
G01*
G37*
%TD*%
%TO.C,R26*%
G36*
G01*
X99358000Y-97684000D02*
X99358000Y-97134000D01*
G75*
G02*
X99558000Y-96934000I200000J0D01*
G01*
X99958000Y-96934000D01*
G75*
G02*
X100158000Y-97134000I0J-200000D01*
G01*
X100158000Y-97684000D01*
G75*
G02*
X99958000Y-97884000I-200000J0D01*
G01*
X99558000Y-97884000D01*
G75*
G02*
X99358000Y-97684000I0J200000D01*
G01*
G37*
G36*
G01*
X97708000Y-97684000D02*
X97708000Y-97134000D01*
G75*
G02*
X97908000Y-96934000I200000J0D01*
G01*
X98308000Y-96934000D01*
G75*
G02*
X98508000Y-97134000I0J-200000D01*
G01*
X98508000Y-97684000D01*
G75*
G02*
X98308000Y-97884000I-200000J0D01*
G01*
X97908000Y-97884000D01*
G75*
G02*
X97708000Y-97684000I0J200000D01*
G01*
G37*
%TD*%
%TO.C,R25*%
G36*
G01*
X101556000Y-94594000D02*
X101556000Y-95144000D01*
G75*
G02*
X101356000Y-95344000I-200000J0D01*
G01*
X100956000Y-95344000D01*
G75*
G02*
X100756000Y-95144000I0J200000D01*
G01*
X100756000Y-94594000D01*
G75*
G02*
X100956000Y-94394000I200000J0D01*
G01*
X101356000Y-94394000D01*
G75*
G02*
X101556000Y-94594000I0J-200000D01*
G01*
G37*
G36*
G01*
X103206000Y-94594000D02*
X103206000Y-95144000D01*
G75*
G02*
X103006000Y-95344000I-200000J0D01*
G01*
X102606000Y-95344000D01*
G75*
G02*
X102406000Y-95144000I0J200000D01*
G01*
X102406000Y-94594000D01*
G75*
G02*
X102606000Y-94394000I200000J0D01*
G01*
X103006000Y-94394000D01*
G75*
G02*
X103206000Y-94594000I0J-200000D01*
G01*
G37*
%TD*%
%TO.C,R24*%
G36*
G01*
X99358000Y-95144000D02*
X99358000Y-94594000D01*
G75*
G02*
X99558000Y-94394000I200000J0D01*
G01*
X99958000Y-94394000D01*
G75*
G02*
X100158000Y-94594000I0J-200000D01*
G01*
X100158000Y-95144000D01*
G75*
G02*
X99958000Y-95344000I-200000J0D01*
G01*
X99558000Y-95344000D01*
G75*
G02*
X99358000Y-95144000I0J200000D01*
G01*
G37*
G36*
G01*
X97708000Y-95144000D02*
X97708000Y-94594000D01*
G75*
G02*
X97908000Y-94394000I200000J0D01*
G01*
X98308000Y-94394000D01*
G75*
G02*
X98508000Y-94594000I0J-200000D01*
G01*
X98508000Y-95144000D01*
G75*
G02*
X98308000Y-95344000I-200000J0D01*
G01*
X97908000Y-95344000D01*
G75*
G02*
X97708000Y-95144000I0J200000D01*
G01*
G37*
%TD*%
%TO.C,R23*%
G36*
G01*
X101556000Y-90022000D02*
X101556000Y-90572000D01*
G75*
G02*
X101356000Y-90772000I-200000J0D01*
G01*
X100956000Y-90772000D01*
G75*
G02*
X100756000Y-90572000I0J200000D01*
G01*
X100756000Y-90022000D01*
G75*
G02*
X100956000Y-89822000I200000J0D01*
G01*
X101356000Y-89822000D01*
G75*
G02*
X101556000Y-90022000I0J-200000D01*
G01*
G37*
G36*
G01*
X103206000Y-90022000D02*
X103206000Y-90572000D01*
G75*
G02*
X103006000Y-90772000I-200000J0D01*
G01*
X102606000Y-90772000D01*
G75*
G02*
X102406000Y-90572000I0J200000D01*
G01*
X102406000Y-90022000D01*
G75*
G02*
X102606000Y-89822000I200000J0D01*
G01*
X103006000Y-89822000D01*
G75*
G02*
X103206000Y-90022000I0J-200000D01*
G01*
G37*
%TD*%
%TO.C,R22*%
G36*
G01*
X99358000Y-90572000D02*
X99358000Y-90022000D01*
G75*
G02*
X99558000Y-89822000I200000J0D01*
G01*
X99958000Y-89822000D01*
G75*
G02*
X100158000Y-90022000I0J-200000D01*
G01*
X100158000Y-90572000D01*
G75*
G02*
X99958000Y-90772000I-200000J0D01*
G01*
X99558000Y-90772000D01*
G75*
G02*
X99358000Y-90572000I0J200000D01*
G01*
G37*
G36*
G01*
X97708000Y-90572000D02*
X97708000Y-90022000D01*
G75*
G02*
X97908000Y-89822000I200000J0D01*
G01*
X98308000Y-89822000D01*
G75*
G02*
X98508000Y-90022000I0J-200000D01*
G01*
X98508000Y-90572000D01*
G75*
G02*
X98308000Y-90772000I-200000J0D01*
G01*
X97908000Y-90772000D01*
G75*
G02*
X97708000Y-90572000I0J200000D01*
G01*
G37*
%TD*%
%TO.C,R21*%
G36*
G01*
X101556000Y-99674000D02*
X101556000Y-100224000D01*
G75*
G02*
X101356000Y-100424000I-200000J0D01*
G01*
X100956000Y-100424000D01*
G75*
G02*
X100756000Y-100224000I0J200000D01*
G01*
X100756000Y-99674000D01*
G75*
G02*
X100956000Y-99474000I200000J0D01*
G01*
X101356000Y-99474000D01*
G75*
G02*
X101556000Y-99674000I0J-200000D01*
G01*
G37*
G36*
G01*
X103206000Y-99674000D02*
X103206000Y-100224000D01*
G75*
G02*
X103006000Y-100424000I-200000J0D01*
G01*
X102606000Y-100424000D01*
G75*
G02*
X102406000Y-100224000I0J200000D01*
G01*
X102406000Y-99674000D01*
G75*
G02*
X102606000Y-99474000I200000J0D01*
G01*
X103006000Y-99474000D01*
G75*
G02*
X103206000Y-99674000I0J-200000D01*
G01*
G37*
%TD*%
%TO.C,R20*%
G36*
G01*
X99358000Y-100224000D02*
X99358000Y-99674000D01*
G75*
G02*
X99558000Y-99474000I200000J0D01*
G01*
X99958000Y-99474000D01*
G75*
G02*
X100158000Y-99674000I0J-200000D01*
G01*
X100158000Y-100224000D01*
G75*
G02*
X99958000Y-100424000I-200000J0D01*
G01*
X99558000Y-100424000D01*
G75*
G02*
X99358000Y-100224000I0J200000D01*
G01*
G37*
G36*
G01*
X97708000Y-100224000D02*
X97708000Y-99674000D01*
G75*
G02*
X97908000Y-99474000I200000J0D01*
G01*
X98308000Y-99474000D01*
G75*
G02*
X98508000Y-99674000I0J-200000D01*
G01*
X98508000Y-100224000D01*
G75*
G02*
X98308000Y-100424000I-200000J0D01*
G01*
X97908000Y-100424000D01*
G75*
G02*
X97708000Y-100224000I0J200000D01*
G01*
G37*
%TD*%
%TO.C,R19*%
G36*
G01*
X101556000Y-92562000D02*
X101556000Y-93112000D01*
G75*
G02*
X101356000Y-93312000I-200000J0D01*
G01*
X100956000Y-93312000D01*
G75*
G02*
X100756000Y-93112000I0J200000D01*
G01*
X100756000Y-92562000D01*
G75*
G02*
X100956000Y-92362000I200000J0D01*
G01*
X101356000Y-92362000D01*
G75*
G02*
X101556000Y-92562000I0J-200000D01*
G01*
G37*
G36*
G01*
X103206000Y-92562000D02*
X103206000Y-93112000D01*
G75*
G02*
X103006000Y-93312000I-200000J0D01*
G01*
X102606000Y-93312000D01*
G75*
G02*
X102406000Y-93112000I0J200000D01*
G01*
X102406000Y-92562000D01*
G75*
G02*
X102606000Y-92362000I200000J0D01*
G01*
X103006000Y-92362000D01*
G75*
G02*
X103206000Y-92562000I0J-200000D01*
G01*
G37*
%TD*%
%TO.C,R18*%
G36*
G01*
X99358000Y-93112000D02*
X99358000Y-92562000D01*
G75*
G02*
X99558000Y-92362000I200000J0D01*
G01*
X99958000Y-92362000D01*
G75*
G02*
X100158000Y-92562000I0J-200000D01*
G01*
X100158000Y-93112000D01*
G75*
G02*
X99958000Y-93312000I-200000J0D01*
G01*
X99558000Y-93312000D01*
G75*
G02*
X99358000Y-93112000I0J200000D01*
G01*
G37*
G36*
G01*
X97708000Y-93112000D02*
X97708000Y-92562000D01*
G75*
G02*
X97908000Y-92362000I200000J0D01*
G01*
X98308000Y-92362000D01*
G75*
G02*
X98508000Y-92562000I0J-200000D01*
G01*
X98508000Y-93112000D01*
G75*
G02*
X98308000Y-93312000I-200000J0D01*
G01*
X97908000Y-93312000D01*
G75*
G02*
X97708000Y-93112000I0J200000D01*
G01*
G37*
%TD*%
%TO.C,R17*%
G36*
G01*
X101556000Y-87736000D02*
X101556000Y-88286000D01*
G75*
G02*
X101356000Y-88486000I-200000J0D01*
G01*
X100956000Y-88486000D01*
G75*
G02*
X100756000Y-88286000I0J200000D01*
G01*
X100756000Y-87736000D01*
G75*
G02*
X100956000Y-87536000I200000J0D01*
G01*
X101356000Y-87536000D01*
G75*
G02*
X101556000Y-87736000I0J-200000D01*
G01*
G37*
G36*
G01*
X103206000Y-87736000D02*
X103206000Y-88286000D01*
G75*
G02*
X103006000Y-88486000I-200000J0D01*
G01*
X102606000Y-88486000D01*
G75*
G02*
X102406000Y-88286000I0J200000D01*
G01*
X102406000Y-87736000D01*
G75*
G02*
X102606000Y-87536000I200000J0D01*
G01*
X103006000Y-87536000D01*
G75*
G02*
X103206000Y-87736000I0J-200000D01*
G01*
G37*
%TD*%
%TO.C,R16*%
G36*
G01*
X99358000Y-88286000D02*
X99358000Y-87736000D01*
G75*
G02*
X99558000Y-87536000I200000J0D01*
G01*
X99958000Y-87536000D01*
G75*
G02*
X100158000Y-87736000I0J-200000D01*
G01*
X100158000Y-88286000D01*
G75*
G02*
X99958000Y-88486000I-200000J0D01*
G01*
X99558000Y-88486000D01*
G75*
G02*
X99358000Y-88286000I0J200000D01*
G01*
G37*
G36*
G01*
X97708000Y-88286000D02*
X97708000Y-87736000D01*
G75*
G02*
X97908000Y-87536000I200000J0D01*
G01*
X98308000Y-87536000D01*
G75*
G02*
X98508000Y-87736000I0J-200000D01*
G01*
X98508000Y-88286000D01*
G75*
G02*
X98308000Y-88486000I-200000J0D01*
G01*
X97908000Y-88486000D01*
G75*
G02*
X97708000Y-88286000I0J200000D01*
G01*
G37*
%TD*%
%TO.C,R15*%
G36*
G01*
X101556000Y-85450000D02*
X101556000Y-86000000D01*
G75*
G02*
X101356000Y-86200000I-200000J0D01*
G01*
X100956000Y-86200000D01*
G75*
G02*
X100756000Y-86000000I0J200000D01*
G01*
X100756000Y-85450000D01*
G75*
G02*
X100956000Y-85250000I200000J0D01*
G01*
X101356000Y-85250000D01*
G75*
G02*
X101556000Y-85450000I0J-200000D01*
G01*
G37*
G36*
G01*
X103206000Y-85450000D02*
X103206000Y-86000000D01*
G75*
G02*
X103006000Y-86200000I-200000J0D01*
G01*
X102606000Y-86200000D01*
G75*
G02*
X102406000Y-86000000I0J200000D01*
G01*
X102406000Y-85450000D01*
G75*
G02*
X102606000Y-85250000I200000J0D01*
G01*
X103006000Y-85250000D01*
G75*
G02*
X103206000Y-85450000I0J-200000D01*
G01*
G37*
%TD*%
%TO.C,R14*%
G36*
G01*
X99358000Y-86000000D02*
X99358000Y-85450000D01*
G75*
G02*
X99558000Y-85250000I200000J0D01*
G01*
X99958000Y-85250000D01*
G75*
G02*
X100158000Y-85450000I0J-200000D01*
G01*
X100158000Y-86000000D01*
G75*
G02*
X99958000Y-86200000I-200000J0D01*
G01*
X99558000Y-86200000D01*
G75*
G02*
X99358000Y-86000000I0J200000D01*
G01*
G37*
G36*
G01*
X97708000Y-86000000D02*
X97708000Y-85450000D01*
G75*
G02*
X97908000Y-85250000I200000J0D01*
G01*
X98308000Y-85250000D01*
G75*
G02*
X98508000Y-85450000I0J-200000D01*
G01*
X98508000Y-86000000D01*
G75*
G02*
X98308000Y-86200000I-200000J0D01*
G01*
X97908000Y-86200000D01*
G75*
G02*
X97708000Y-86000000I0J200000D01*
G01*
G37*
%TD*%
%TO.C,R13*%
G36*
G01*
X101556000Y-82910000D02*
X101556000Y-83460000D01*
G75*
G02*
X101356000Y-83660000I-200000J0D01*
G01*
X100956000Y-83660000D01*
G75*
G02*
X100756000Y-83460000I0J200000D01*
G01*
X100756000Y-82910000D01*
G75*
G02*
X100956000Y-82710000I200000J0D01*
G01*
X101356000Y-82710000D01*
G75*
G02*
X101556000Y-82910000I0J-200000D01*
G01*
G37*
G36*
G01*
X103206000Y-82910000D02*
X103206000Y-83460000D01*
G75*
G02*
X103006000Y-83660000I-200000J0D01*
G01*
X102606000Y-83660000D01*
G75*
G02*
X102406000Y-83460000I0J200000D01*
G01*
X102406000Y-82910000D01*
G75*
G02*
X102606000Y-82710000I200000J0D01*
G01*
X103006000Y-82710000D01*
G75*
G02*
X103206000Y-82910000I0J-200000D01*
G01*
G37*
%TD*%
%TO.C,R12*%
G36*
G01*
X99358000Y-83460000D02*
X99358000Y-82910000D01*
G75*
G02*
X99558000Y-82710000I200000J0D01*
G01*
X99958000Y-82710000D01*
G75*
G02*
X100158000Y-82910000I0J-200000D01*
G01*
X100158000Y-83460000D01*
G75*
G02*
X99958000Y-83660000I-200000J0D01*
G01*
X99558000Y-83660000D01*
G75*
G02*
X99358000Y-83460000I0J200000D01*
G01*
G37*
G36*
G01*
X97708000Y-83460000D02*
X97708000Y-82910000D01*
G75*
G02*
X97908000Y-82710000I200000J0D01*
G01*
X98308000Y-82710000D01*
G75*
G02*
X98508000Y-82910000I0J-200000D01*
G01*
X98508000Y-83460000D01*
G75*
G02*
X98308000Y-83660000I-200000J0D01*
G01*
X97908000Y-83660000D01*
G75*
G02*
X97708000Y-83460000I0J200000D01*
G01*
G37*
%TD*%
%TO.C,C6*%
G36*
G01*
X87574000Y-88007000D02*
X87574000Y-87507000D01*
G75*
G02*
X87799000Y-87282000I225000J0D01*
G01*
X88249000Y-87282000D01*
G75*
G02*
X88474000Y-87507000I0J-225000D01*
G01*
X88474000Y-88007000D01*
G75*
G02*
X88249000Y-88232000I-225000J0D01*
G01*
X87799000Y-88232000D01*
G75*
G02*
X87574000Y-88007000I0J225000D01*
G01*
G37*
G36*
G01*
X86024000Y-88007000D02*
X86024000Y-87507000D01*
G75*
G02*
X86249000Y-87282000I225000J0D01*
G01*
X86699000Y-87282000D01*
G75*
G02*
X86924000Y-87507000I0J-225000D01*
G01*
X86924000Y-88007000D01*
G75*
G02*
X86699000Y-88232000I-225000J0D01*
G01*
X86249000Y-88232000D01*
G75*
G02*
X86024000Y-88007000I0J225000D01*
G01*
G37*
%TD*%
%TO.C,C7*%
G36*
G01*
X87574000Y-86483000D02*
X87574000Y-85983000D01*
G75*
G02*
X87799000Y-85758000I225000J0D01*
G01*
X88249000Y-85758000D01*
G75*
G02*
X88474000Y-85983000I0J-225000D01*
G01*
X88474000Y-86483000D01*
G75*
G02*
X88249000Y-86708000I-225000J0D01*
G01*
X87799000Y-86708000D01*
G75*
G02*
X87574000Y-86483000I0J225000D01*
G01*
G37*
G36*
G01*
X86024000Y-86483000D02*
X86024000Y-85983000D01*
G75*
G02*
X86249000Y-85758000I225000J0D01*
G01*
X86699000Y-85758000D01*
G75*
G02*
X86924000Y-85983000I0J-225000D01*
G01*
X86924000Y-86483000D01*
G75*
G02*
X86699000Y-86708000I-225000J0D01*
G01*
X86249000Y-86708000D01*
G75*
G02*
X86024000Y-86483000I0J225000D01*
G01*
G37*
%TD*%
%TO.C,C5*%
G36*
G01*
X87066000Y-90547000D02*
X87066000Y-90047000D01*
G75*
G02*
X87291000Y-89822000I225000J0D01*
G01*
X87741000Y-89822000D01*
G75*
G02*
X87966000Y-90047000I0J-225000D01*
G01*
X87966000Y-90547000D01*
G75*
G02*
X87741000Y-90772000I-225000J0D01*
G01*
X87291000Y-90772000D01*
G75*
G02*
X87066000Y-90547000I0J225000D01*
G01*
G37*
G36*
G01*
X85516000Y-90547000D02*
X85516000Y-90047000D01*
G75*
G02*
X85741000Y-89822000I225000J0D01*
G01*
X86191000Y-89822000D01*
G75*
G02*
X86416000Y-90047000I0J-225000D01*
G01*
X86416000Y-90547000D01*
G75*
G02*
X86191000Y-90772000I-225000J0D01*
G01*
X85741000Y-90772000D01*
G75*
G02*
X85516000Y-90547000I0J225000D01*
G01*
G37*
%TD*%
D12*
%TO.C,J6*%
X79455000Y-134960000D03*
X85425000Y-134960000D03*
D13*
X88925000Y-139635000D03*
X88925000Y-135935000D03*
D14*
X88750000Y-145660000D03*
D15*
X77430000Y-145435000D03*
D16*
X79690000Y-145785000D03*
X80790000Y-145785000D03*
X81890000Y-145785000D03*
X82990000Y-145785000D03*
X84090000Y-145785000D03*
X85190000Y-145785000D03*
D17*
X78640000Y-145785000D03*
D16*
X86290000Y-145785000D03*
%TD*%
D18*
%TO.C,Y2*%
X85543000Y-107569000D03*
X81843000Y-107569000D03*
%TD*%
D19*
%TO.C,Y3*%
X82443000Y-102489000D03*
X84943000Y-102489000D03*
%TD*%
%TO.C,U2*%
G36*
G01*
X83609264Y-111425516D02*
X84546180Y-110488600D01*
G75*
G02*
X84652246Y-110488600I53033J-53033D01*
G01*
X84758312Y-110594666D01*
G75*
G02*
X84758312Y-110700732I-53033J-53033D01*
G01*
X83821396Y-111637648D01*
G75*
G02*
X83715330Y-111637648I-53033J53033D01*
G01*
X83609264Y-111531582D01*
G75*
G02*
X83609264Y-111425516I53033J53033D01*
G01*
G37*
G36*
G01*
X83962818Y-111779070D02*
X84899734Y-110842154D01*
G75*
G02*
X85005800Y-110842154I53033J-53033D01*
G01*
X85111866Y-110948220D01*
G75*
G02*
X85111866Y-111054286I-53033J-53033D01*
G01*
X84174950Y-111991202D01*
G75*
G02*
X84068884Y-111991202I-53033J53033D01*
G01*
X83962818Y-111885136D01*
G75*
G02*
X83962818Y-111779070I53033J53033D01*
G01*
G37*
G36*
G01*
X84316371Y-112132623D02*
X85253287Y-111195707D01*
G75*
G02*
X85359353Y-111195707I53033J-53033D01*
G01*
X85465419Y-111301773D01*
G75*
G02*
X85465419Y-111407839I-53033J-53033D01*
G01*
X84528503Y-112344755D01*
G75*
G02*
X84422437Y-112344755I-53033J53033D01*
G01*
X84316371Y-112238689D01*
G75*
G02*
X84316371Y-112132623I53033J53033D01*
G01*
G37*
G36*
G01*
X84669925Y-112486177D02*
X85606841Y-111549261D01*
G75*
G02*
X85712907Y-111549261I53033J-53033D01*
G01*
X85818973Y-111655327D01*
G75*
G02*
X85818973Y-111761393I-53033J-53033D01*
G01*
X84882057Y-112698309D01*
G75*
G02*
X84775991Y-112698309I-53033J53033D01*
G01*
X84669925Y-112592243D01*
G75*
G02*
X84669925Y-112486177I53033J53033D01*
G01*
G37*
G36*
G01*
X85023478Y-112839730D02*
X85960394Y-111902814D01*
G75*
G02*
X86066460Y-111902814I53033J-53033D01*
G01*
X86172526Y-112008880D01*
G75*
G02*
X86172526Y-112114946I-53033J-53033D01*
G01*
X85235610Y-113051862D01*
G75*
G02*
X85129544Y-113051862I-53033J53033D01*
G01*
X85023478Y-112945796D01*
G75*
G02*
X85023478Y-112839730I53033J53033D01*
G01*
G37*
G36*
G01*
X85377031Y-113193283D02*
X86313947Y-112256367D01*
G75*
G02*
X86420013Y-112256367I53033J-53033D01*
G01*
X86526079Y-112362433D01*
G75*
G02*
X86526079Y-112468499I-53033J-53033D01*
G01*
X85589163Y-113405415D01*
G75*
G02*
X85483097Y-113405415I-53033J53033D01*
G01*
X85377031Y-113299349D01*
G75*
G02*
X85377031Y-113193283I53033J53033D01*
G01*
G37*
G36*
G01*
X85730585Y-113546837D02*
X86667501Y-112609921D01*
G75*
G02*
X86773567Y-112609921I53033J-53033D01*
G01*
X86879633Y-112715987D01*
G75*
G02*
X86879633Y-112822053I-53033J-53033D01*
G01*
X85942717Y-113758969D01*
G75*
G02*
X85836651Y-113758969I-53033J53033D01*
G01*
X85730585Y-113652903D01*
G75*
G02*
X85730585Y-113546837I53033J53033D01*
G01*
G37*
G36*
G01*
X86084138Y-113900390D02*
X87021054Y-112963474D01*
G75*
G02*
X87127120Y-112963474I53033J-53033D01*
G01*
X87233186Y-113069540D01*
G75*
G02*
X87233186Y-113175606I-53033J-53033D01*
G01*
X86296270Y-114112522D01*
G75*
G02*
X86190204Y-114112522I-53033J53033D01*
G01*
X86084138Y-114006456D01*
G75*
G02*
X86084138Y-113900390I53033J53033D01*
G01*
G37*
G36*
G01*
X86437691Y-114253943D02*
X87374607Y-113317027D01*
G75*
G02*
X87480673Y-113317027I53033J-53033D01*
G01*
X87586739Y-113423093D01*
G75*
G02*
X87586739Y-113529159I-53033J-53033D01*
G01*
X86649823Y-114466075D01*
G75*
G02*
X86543757Y-114466075I-53033J53033D01*
G01*
X86437691Y-114360009D01*
G75*
G02*
X86437691Y-114253943I53033J53033D01*
G01*
G37*
G36*
G01*
X86791245Y-114607497D02*
X87728161Y-113670581D01*
G75*
G02*
X87834227Y-113670581I53033J-53033D01*
G01*
X87940293Y-113776647D01*
G75*
G02*
X87940293Y-113882713I-53033J-53033D01*
G01*
X87003377Y-114819629D01*
G75*
G02*
X86897311Y-114819629I-53033J53033D01*
G01*
X86791245Y-114713563D01*
G75*
G02*
X86791245Y-114607497I53033J53033D01*
G01*
G37*
G36*
G01*
X87144798Y-114961050D02*
X88081714Y-114024134D01*
G75*
G02*
X88187780Y-114024134I53033J-53033D01*
G01*
X88293846Y-114130200D01*
G75*
G02*
X88293846Y-114236266I-53033J-53033D01*
G01*
X87356930Y-115173182D01*
G75*
G02*
X87250864Y-115173182I-53033J53033D01*
G01*
X87144798Y-115067116D01*
G75*
G02*
X87144798Y-114961050I53033J53033D01*
G01*
G37*
G36*
G01*
X87498352Y-115314604D02*
X88435268Y-114377688D01*
G75*
G02*
X88541334Y-114377688I53033J-53033D01*
G01*
X88647400Y-114483754D01*
G75*
G02*
X88647400Y-114589820I-53033J-53033D01*
G01*
X87710484Y-115526736D01*
G75*
G02*
X87604418Y-115526736I-53033J53033D01*
G01*
X87498352Y-115420670D01*
G75*
G02*
X87498352Y-115314604I53033J53033D01*
G01*
G37*
G36*
G01*
X87498352Y-116481330D02*
X87604418Y-116375264D01*
G75*
G02*
X87710484Y-116375264I53033J-53033D01*
G01*
X88647400Y-117312180D01*
G75*
G02*
X88647400Y-117418246I-53033J-53033D01*
G01*
X88541334Y-117524312D01*
G75*
G02*
X88435268Y-117524312I-53033J53033D01*
G01*
X87498352Y-116587396D01*
G75*
G02*
X87498352Y-116481330I53033J53033D01*
G01*
G37*
G36*
G01*
X87144798Y-116834884D02*
X87250864Y-116728818D01*
G75*
G02*
X87356930Y-116728818I53033J-53033D01*
G01*
X88293846Y-117665734D01*
G75*
G02*
X88293846Y-117771800I-53033J-53033D01*
G01*
X88187780Y-117877866D01*
G75*
G02*
X88081714Y-117877866I-53033J53033D01*
G01*
X87144798Y-116940950D01*
G75*
G02*
X87144798Y-116834884I53033J53033D01*
G01*
G37*
G36*
G01*
X86791245Y-117188437D02*
X86897311Y-117082371D01*
G75*
G02*
X87003377Y-117082371I53033J-53033D01*
G01*
X87940293Y-118019287D01*
G75*
G02*
X87940293Y-118125353I-53033J-53033D01*
G01*
X87834227Y-118231419D01*
G75*
G02*
X87728161Y-118231419I-53033J53033D01*
G01*
X86791245Y-117294503D01*
G75*
G02*
X86791245Y-117188437I53033J53033D01*
G01*
G37*
G36*
G01*
X86437691Y-117541991D02*
X86543757Y-117435925D01*
G75*
G02*
X86649823Y-117435925I53033J-53033D01*
G01*
X87586739Y-118372841D01*
G75*
G02*
X87586739Y-118478907I-53033J-53033D01*
G01*
X87480673Y-118584973D01*
G75*
G02*
X87374607Y-118584973I-53033J53033D01*
G01*
X86437691Y-117648057D01*
G75*
G02*
X86437691Y-117541991I53033J53033D01*
G01*
G37*
G36*
G01*
X86084138Y-117895544D02*
X86190204Y-117789478D01*
G75*
G02*
X86296270Y-117789478I53033J-53033D01*
G01*
X87233186Y-118726394D01*
G75*
G02*
X87233186Y-118832460I-53033J-53033D01*
G01*
X87127120Y-118938526D01*
G75*
G02*
X87021054Y-118938526I-53033J53033D01*
G01*
X86084138Y-118001610D01*
G75*
G02*
X86084138Y-117895544I53033J53033D01*
G01*
G37*
G36*
G01*
X85730585Y-118249097D02*
X85836651Y-118143031D01*
G75*
G02*
X85942717Y-118143031I53033J-53033D01*
G01*
X86879633Y-119079947D01*
G75*
G02*
X86879633Y-119186013I-53033J-53033D01*
G01*
X86773567Y-119292079D01*
G75*
G02*
X86667501Y-119292079I-53033J53033D01*
G01*
X85730585Y-118355163D01*
G75*
G02*
X85730585Y-118249097I53033J53033D01*
G01*
G37*
G36*
G01*
X85377031Y-118602651D02*
X85483097Y-118496585D01*
G75*
G02*
X85589163Y-118496585I53033J-53033D01*
G01*
X86526079Y-119433501D01*
G75*
G02*
X86526079Y-119539567I-53033J-53033D01*
G01*
X86420013Y-119645633D01*
G75*
G02*
X86313947Y-119645633I-53033J53033D01*
G01*
X85377031Y-118708717D01*
G75*
G02*
X85377031Y-118602651I53033J53033D01*
G01*
G37*
G36*
G01*
X85023478Y-118956204D02*
X85129544Y-118850138D01*
G75*
G02*
X85235610Y-118850138I53033J-53033D01*
G01*
X86172526Y-119787054D01*
G75*
G02*
X86172526Y-119893120I-53033J-53033D01*
G01*
X86066460Y-119999186D01*
G75*
G02*
X85960394Y-119999186I-53033J53033D01*
G01*
X85023478Y-119062270D01*
G75*
G02*
X85023478Y-118956204I53033J53033D01*
G01*
G37*
G36*
G01*
X84669925Y-119309757D02*
X84775991Y-119203691D01*
G75*
G02*
X84882057Y-119203691I53033J-53033D01*
G01*
X85818973Y-120140607D01*
G75*
G02*
X85818973Y-120246673I-53033J-53033D01*
G01*
X85712907Y-120352739D01*
G75*
G02*
X85606841Y-120352739I-53033J53033D01*
G01*
X84669925Y-119415823D01*
G75*
G02*
X84669925Y-119309757I53033J53033D01*
G01*
G37*
G36*
G01*
X84316371Y-119663311D02*
X84422437Y-119557245D01*
G75*
G02*
X84528503Y-119557245I53033J-53033D01*
G01*
X85465419Y-120494161D01*
G75*
G02*
X85465419Y-120600227I-53033J-53033D01*
G01*
X85359353Y-120706293D01*
G75*
G02*
X85253287Y-120706293I-53033J53033D01*
G01*
X84316371Y-119769377D01*
G75*
G02*
X84316371Y-119663311I53033J53033D01*
G01*
G37*
G36*
G01*
X83962818Y-120016864D02*
X84068884Y-119910798D01*
G75*
G02*
X84174950Y-119910798I53033J-53033D01*
G01*
X85111866Y-120847714D01*
G75*
G02*
X85111866Y-120953780I-53033J-53033D01*
G01*
X85005800Y-121059846D01*
G75*
G02*
X84899734Y-121059846I-53033J53033D01*
G01*
X83962818Y-120122930D01*
G75*
G02*
X83962818Y-120016864I53033J53033D01*
G01*
G37*
G36*
G01*
X83609264Y-120370418D02*
X83715330Y-120264352D01*
G75*
G02*
X83821396Y-120264352I53033J-53033D01*
G01*
X84758312Y-121201268D01*
G75*
G02*
X84758312Y-121307334I-53033J-53033D01*
G01*
X84652246Y-121413400D01*
G75*
G02*
X84546180Y-121413400I-53033J53033D01*
G01*
X83609264Y-120476484D01*
G75*
G02*
X83609264Y-120370418I53033J53033D01*
G01*
G37*
G36*
G01*
X81611688Y-121201268D02*
X82548604Y-120264352D01*
G75*
G02*
X82654670Y-120264352I53033J-53033D01*
G01*
X82760736Y-120370418D01*
G75*
G02*
X82760736Y-120476484I-53033J-53033D01*
G01*
X81823820Y-121413400D01*
G75*
G02*
X81717754Y-121413400I-53033J53033D01*
G01*
X81611688Y-121307334D01*
G75*
G02*
X81611688Y-121201268I53033J53033D01*
G01*
G37*
G36*
G01*
X81258134Y-120847714D02*
X82195050Y-119910798D01*
G75*
G02*
X82301116Y-119910798I53033J-53033D01*
G01*
X82407182Y-120016864D01*
G75*
G02*
X82407182Y-120122930I-53033J-53033D01*
G01*
X81470266Y-121059846D01*
G75*
G02*
X81364200Y-121059846I-53033J53033D01*
G01*
X81258134Y-120953780D01*
G75*
G02*
X81258134Y-120847714I53033J53033D01*
G01*
G37*
G36*
G01*
X80904581Y-120494161D02*
X81841497Y-119557245D01*
G75*
G02*
X81947563Y-119557245I53033J-53033D01*
G01*
X82053629Y-119663311D01*
G75*
G02*
X82053629Y-119769377I-53033J-53033D01*
G01*
X81116713Y-120706293D01*
G75*
G02*
X81010647Y-120706293I-53033J53033D01*
G01*
X80904581Y-120600227D01*
G75*
G02*
X80904581Y-120494161I53033J53033D01*
G01*
G37*
G36*
G01*
X80551027Y-120140607D02*
X81487943Y-119203691D01*
G75*
G02*
X81594009Y-119203691I53033J-53033D01*
G01*
X81700075Y-119309757D01*
G75*
G02*
X81700075Y-119415823I-53033J-53033D01*
G01*
X80763159Y-120352739D01*
G75*
G02*
X80657093Y-120352739I-53033J53033D01*
G01*
X80551027Y-120246673D01*
G75*
G02*
X80551027Y-120140607I53033J53033D01*
G01*
G37*
G36*
G01*
X80197474Y-119787054D02*
X81134390Y-118850138D01*
G75*
G02*
X81240456Y-118850138I53033J-53033D01*
G01*
X81346522Y-118956204D01*
G75*
G02*
X81346522Y-119062270I-53033J-53033D01*
G01*
X80409606Y-119999186D01*
G75*
G02*
X80303540Y-119999186I-53033J53033D01*
G01*
X80197474Y-119893120D01*
G75*
G02*
X80197474Y-119787054I53033J53033D01*
G01*
G37*
G36*
G01*
X79843921Y-119433501D02*
X80780837Y-118496585D01*
G75*
G02*
X80886903Y-118496585I53033J-53033D01*
G01*
X80992969Y-118602651D01*
G75*
G02*
X80992969Y-118708717I-53033J-53033D01*
G01*
X80056053Y-119645633D01*
G75*
G02*
X79949987Y-119645633I-53033J53033D01*
G01*
X79843921Y-119539567D01*
G75*
G02*
X79843921Y-119433501I53033J53033D01*
G01*
G37*
G36*
G01*
X79490367Y-119079947D02*
X80427283Y-118143031D01*
G75*
G02*
X80533349Y-118143031I53033J-53033D01*
G01*
X80639415Y-118249097D01*
G75*
G02*
X80639415Y-118355163I-53033J-53033D01*
G01*
X79702499Y-119292079D01*
G75*
G02*
X79596433Y-119292079I-53033J53033D01*
G01*
X79490367Y-119186013D01*
G75*
G02*
X79490367Y-119079947I53033J53033D01*
G01*
G37*
G36*
G01*
X79136814Y-118726394D02*
X80073730Y-117789478D01*
G75*
G02*
X80179796Y-117789478I53033J-53033D01*
G01*
X80285862Y-117895544D01*
G75*
G02*
X80285862Y-118001610I-53033J-53033D01*
G01*
X79348946Y-118938526D01*
G75*
G02*
X79242880Y-118938526I-53033J53033D01*
G01*
X79136814Y-118832460D01*
G75*
G02*
X79136814Y-118726394I53033J53033D01*
G01*
G37*
G36*
G01*
X78783261Y-118372841D02*
X79720177Y-117435925D01*
G75*
G02*
X79826243Y-117435925I53033J-53033D01*
G01*
X79932309Y-117541991D01*
G75*
G02*
X79932309Y-117648057I-53033J-53033D01*
G01*
X78995393Y-118584973D01*
G75*
G02*
X78889327Y-118584973I-53033J53033D01*
G01*
X78783261Y-118478907D01*
G75*
G02*
X78783261Y-118372841I53033J53033D01*
G01*
G37*
G36*
G01*
X78429707Y-118019287D02*
X79366623Y-117082371D01*
G75*
G02*
X79472689Y-117082371I53033J-53033D01*
G01*
X79578755Y-117188437D01*
G75*
G02*
X79578755Y-117294503I-53033J-53033D01*
G01*
X78641839Y-118231419D01*
G75*
G02*
X78535773Y-118231419I-53033J53033D01*
G01*
X78429707Y-118125353D01*
G75*
G02*
X78429707Y-118019287I53033J53033D01*
G01*
G37*
G36*
G01*
X78076154Y-117665734D02*
X79013070Y-116728818D01*
G75*
G02*
X79119136Y-116728818I53033J-53033D01*
G01*
X79225202Y-116834884D01*
G75*
G02*
X79225202Y-116940950I-53033J-53033D01*
G01*
X78288286Y-117877866D01*
G75*
G02*
X78182220Y-117877866I-53033J53033D01*
G01*
X78076154Y-117771800D01*
G75*
G02*
X78076154Y-117665734I53033J53033D01*
G01*
G37*
G36*
G01*
X77722600Y-117312180D02*
X78659516Y-116375264D01*
G75*
G02*
X78765582Y-116375264I53033J-53033D01*
G01*
X78871648Y-116481330D01*
G75*
G02*
X78871648Y-116587396I-53033J-53033D01*
G01*
X77934732Y-117524312D01*
G75*
G02*
X77828666Y-117524312I-53033J53033D01*
G01*
X77722600Y-117418246D01*
G75*
G02*
X77722600Y-117312180I53033J53033D01*
G01*
G37*
G36*
G01*
X77722600Y-114483754D02*
X77828666Y-114377688D01*
G75*
G02*
X77934732Y-114377688I53033J-53033D01*
G01*
X78871648Y-115314604D01*
G75*
G02*
X78871648Y-115420670I-53033J-53033D01*
G01*
X78765582Y-115526736D01*
G75*
G02*
X78659516Y-115526736I-53033J53033D01*
G01*
X77722600Y-114589820D01*
G75*
G02*
X77722600Y-114483754I53033J53033D01*
G01*
G37*
G36*
G01*
X78076154Y-114130200D02*
X78182220Y-114024134D01*
G75*
G02*
X78288286Y-114024134I53033J-53033D01*
G01*
X79225202Y-114961050D01*
G75*
G02*
X79225202Y-115067116I-53033J-53033D01*
G01*
X79119136Y-115173182D01*
G75*
G02*
X79013070Y-115173182I-53033J53033D01*
G01*
X78076154Y-114236266D01*
G75*
G02*
X78076154Y-114130200I53033J53033D01*
G01*
G37*
G36*
G01*
X78429707Y-113776647D02*
X78535773Y-113670581D01*
G75*
G02*
X78641839Y-113670581I53033J-53033D01*
G01*
X79578755Y-114607497D01*
G75*
G02*
X79578755Y-114713563I-53033J-53033D01*
G01*
X79472689Y-114819629D01*
G75*
G02*
X79366623Y-114819629I-53033J53033D01*
G01*
X78429707Y-113882713D01*
G75*
G02*
X78429707Y-113776647I53033J53033D01*
G01*
G37*
G36*
G01*
X78783261Y-113423093D02*
X78889327Y-113317027D01*
G75*
G02*
X78995393Y-113317027I53033J-53033D01*
G01*
X79932309Y-114253943D01*
G75*
G02*
X79932309Y-114360009I-53033J-53033D01*
G01*
X79826243Y-114466075D01*
G75*
G02*
X79720177Y-114466075I-53033J53033D01*
G01*
X78783261Y-113529159D01*
G75*
G02*
X78783261Y-113423093I53033J53033D01*
G01*
G37*
G36*
G01*
X79136814Y-113069540D02*
X79242880Y-112963474D01*
G75*
G02*
X79348946Y-112963474I53033J-53033D01*
G01*
X80285862Y-113900390D01*
G75*
G02*
X80285862Y-114006456I-53033J-53033D01*
G01*
X80179796Y-114112522D01*
G75*
G02*
X80073730Y-114112522I-53033J53033D01*
G01*
X79136814Y-113175606D01*
G75*
G02*
X79136814Y-113069540I53033J53033D01*
G01*
G37*
G36*
G01*
X79490367Y-112715987D02*
X79596433Y-112609921D01*
G75*
G02*
X79702499Y-112609921I53033J-53033D01*
G01*
X80639415Y-113546837D01*
G75*
G02*
X80639415Y-113652903I-53033J-53033D01*
G01*
X80533349Y-113758969D01*
G75*
G02*
X80427283Y-113758969I-53033J53033D01*
G01*
X79490367Y-112822053D01*
G75*
G02*
X79490367Y-112715987I53033J53033D01*
G01*
G37*
G36*
G01*
X79843921Y-112362433D02*
X79949987Y-112256367D01*
G75*
G02*
X80056053Y-112256367I53033J-53033D01*
G01*
X80992969Y-113193283D01*
G75*
G02*
X80992969Y-113299349I-53033J-53033D01*
G01*
X80886903Y-113405415D01*
G75*
G02*
X80780837Y-113405415I-53033J53033D01*
G01*
X79843921Y-112468499D01*
G75*
G02*
X79843921Y-112362433I53033J53033D01*
G01*
G37*
G36*
G01*
X80197474Y-112008880D02*
X80303540Y-111902814D01*
G75*
G02*
X80409606Y-111902814I53033J-53033D01*
G01*
X81346522Y-112839730D01*
G75*
G02*
X81346522Y-112945796I-53033J-53033D01*
G01*
X81240456Y-113051862D01*
G75*
G02*
X81134390Y-113051862I-53033J53033D01*
G01*
X80197474Y-112114946D01*
G75*
G02*
X80197474Y-112008880I53033J53033D01*
G01*
G37*
G36*
G01*
X80551027Y-111655327D02*
X80657093Y-111549261D01*
G75*
G02*
X80763159Y-111549261I53033J-53033D01*
G01*
X81700075Y-112486177D01*
G75*
G02*
X81700075Y-112592243I-53033J-53033D01*
G01*
X81594009Y-112698309D01*
G75*
G02*
X81487943Y-112698309I-53033J53033D01*
G01*
X80551027Y-111761393D01*
G75*
G02*
X80551027Y-111655327I53033J53033D01*
G01*
G37*
G36*
G01*
X80904581Y-111301773D02*
X81010647Y-111195707D01*
G75*
G02*
X81116713Y-111195707I53033J-53033D01*
G01*
X82053629Y-112132623D01*
G75*
G02*
X82053629Y-112238689I-53033J-53033D01*
G01*
X81947563Y-112344755D01*
G75*
G02*
X81841497Y-112344755I-53033J53033D01*
G01*
X80904581Y-111407839D01*
G75*
G02*
X80904581Y-111301773I53033J53033D01*
G01*
G37*
G36*
G01*
X81258134Y-110948220D02*
X81364200Y-110842154D01*
G75*
G02*
X81470266Y-110842154I53033J-53033D01*
G01*
X82407182Y-111779070D01*
G75*
G02*
X82407182Y-111885136I-53033J-53033D01*
G01*
X82301116Y-111991202D01*
G75*
G02*
X82195050Y-111991202I-53033J53033D01*
G01*
X81258134Y-111054286D01*
G75*
G02*
X81258134Y-110948220I53033J53033D01*
G01*
G37*
G36*
G01*
X81611688Y-110594666D02*
X81717754Y-110488600D01*
G75*
G02*
X81823820Y-110488600I53033J-53033D01*
G01*
X82760736Y-111425516D01*
G75*
G02*
X82760736Y-111531582I-53033J-53033D01*
G01*
X82654670Y-111637648D01*
G75*
G02*
X82548604Y-111637648I-53033J53033D01*
G01*
X81611688Y-110700732D01*
G75*
G02*
X81611688Y-110594666I53033J53033D01*
G01*
G37*
%TD*%
D20*
%TO.C,U1*%
X84285000Y-88077000D03*
X84285000Y-89977000D03*
X82085000Y-89977000D03*
X82085000Y-89027000D03*
X82085000Y-88077000D03*
%TD*%
%TO.C,R4*%
G36*
G01*
X78947600Y-124199200D02*
X79497600Y-124199200D01*
G75*
G02*
X79697600Y-124399200I0J-200000D01*
G01*
X79697600Y-124799200D01*
G75*
G02*
X79497600Y-124999200I-200000J0D01*
G01*
X78947600Y-124999200D01*
G75*
G02*
X78747600Y-124799200I0J200000D01*
G01*
X78747600Y-124399200D01*
G75*
G02*
X78947600Y-124199200I200000J0D01*
G01*
G37*
G36*
G01*
X78947600Y-122549200D02*
X79497600Y-122549200D01*
G75*
G02*
X79697600Y-122749200I0J-200000D01*
G01*
X79697600Y-123149200D01*
G75*
G02*
X79497600Y-123349200I-200000J0D01*
G01*
X78947600Y-123349200D01*
G75*
G02*
X78747600Y-123149200I0J200000D01*
G01*
X78747600Y-122749200D01*
G75*
G02*
X78947600Y-122549200I200000J0D01*
G01*
G37*
%TD*%
%TO.C,R3*%
G36*
G01*
X77461700Y-124199200D02*
X78011700Y-124199200D01*
G75*
G02*
X78211700Y-124399200I0J-200000D01*
G01*
X78211700Y-124799200D01*
G75*
G02*
X78011700Y-124999200I-200000J0D01*
G01*
X77461700Y-124999200D01*
G75*
G02*
X77261700Y-124799200I0J200000D01*
G01*
X77261700Y-124399200D01*
G75*
G02*
X77461700Y-124199200I200000J0D01*
G01*
G37*
G36*
G01*
X77461700Y-122549200D02*
X78011700Y-122549200D01*
G75*
G02*
X78211700Y-122749200I0J-200000D01*
G01*
X78211700Y-123149200D01*
G75*
G02*
X78011700Y-123349200I-200000J0D01*
G01*
X77461700Y-123349200D01*
G75*
G02*
X77261700Y-123149200I0J200000D01*
G01*
X77261700Y-122749200D01*
G75*
G02*
X77461700Y-122549200I200000J0D01*
G01*
G37*
%TD*%
%TO.C,R10*%
G36*
G01*
X84688000Y-84880000D02*
X85238000Y-84880000D01*
G75*
G02*
X85438000Y-85080000I0J-200000D01*
G01*
X85438000Y-85480000D01*
G75*
G02*
X85238000Y-85680000I-200000J0D01*
G01*
X84688000Y-85680000D01*
G75*
G02*
X84488000Y-85480000I0J200000D01*
G01*
X84488000Y-85080000D01*
G75*
G02*
X84688000Y-84880000I200000J0D01*
G01*
G37*
G36*
G01*
X84688000Y-83230000D02*
X85238000Y-83230000D01*
G75*
G02*
X85438000Y-83430000I0J-200000D01*
G01*
X85438000Y-83830000D01*
G75*
G02*
X85238000Y-84030000I-200000J0D01*
G01*
X84688000Y-84030000D01*
G75*
G02*
X84488000Y-83830000I0J200000D01*
G01*
X84488000Y-83430000D01*
G75*
G02*
X84688000Y-83230000I200000J0D01*
G01*
G37*
%TD*%
%TO.C,R6*%
G36*
G01*
X84055000Y-105050000D02*
X84055000Y-104500000D01*
G75*
G02*
X84255000Y-104300000I200000J0D01*
G01*
X84655000Y-104300000D01*
G75*
G02*
X84855000Y-104500000I0J-200000D01*
G01*
X84855000Y-105050000D01*
G75*
G02*
X84655000Y-105250000I-200000J0D01*
G01*
X84255000Y-105250000D01*
G75*
G02*
X84055000Y-105050000I0J200000D01*
G01*
G37*
G36*
G01*
X82405000Y-105050000D02*
X82405000Y-104500000D01*
G75*
G02*
X82605000Y-104300000I200000J0D01*
G01*
X83005000Y-104300000D01*
G75*
G02*
X83205000Y-104500000I0J-200000D01*
G01*
X83205000Y-105050000D01*
G75*
G02*
X83005000Y-105250000I-200000J0D01*
G01*
X82605000Y-105250000D01*
G75*
G02*
X82405000Y-105050000I0J200000D01*
G01*
G37*
%TD*%
%TO.C,R5*%
G36*
G01*
X83610000Y-99716000D02*
X83610000Y-99166000D01*
G75*
G02*
X83810000Y-98966000I200000J0D01*
G01*
X84210000Y-98966000D01*
G75*
G02*
X84410000Y-99166000I0J-200000D01*
G01*
X84410000Y-99716000D01*
G75*
G02*
X84210000Y-99916000I-200000J0D01*
G01*
X83810000Y-99916000D01*
G75*
G02*
X83610000Y-99716000I0J200000D01*
G01*
G37*
G36*
G01*
X81960000Y-99716000D02*
X81960000Y-99166000D01*
G75*
G02*
X82160000Y-98966000I200000J0D01*
G01*
X82560000Y-98966000D01*
G75*
G02*
X82760000Y-99166000I0J-200000D01*
G01*
X82760000Y-99716000D01*
G75*
G02*
X82560000Y-99916000I-200000J0D01*
G01*
X82160000Y-99916000D01*
G75*
G02*
X81960000Y-99716000I0J200000D01*
G01*
G37*
%TD*%
%TO.C,R11*%
G36*
G01*
X83164000Y-84880000D02*
X83714000Y-84880000D01*
G75*
G02*
X83914000Y-85080000I0J-200000D01*
G01*
X83914000Y-85480000D01*
G75*
G02*
X83714000Y-85680000I-200000J0D01*
G01*
X83164000Y-85680000D01*
G75*
G02*
X82964000Y-85480000I0J200000D01*
G01*
X82964000Y-85080000D01*
G75*
G02*
X83164000Y-84880000I200000J0D01*
G01*
G37*
G36*
G01*
X83164000Y-83230000D02*
X83714000Y-83230000D01*
G75*
G02*
X83914000Y-83430000I0J-200000D01*
G01*
X83914000Y-83830000D01*
G75*
G02*
X83714000Y-84030000I-200000J0D01*
G01*
X83164000Y-84030000D01*
G75*
G02*
X82964000Y-83830000I0J200000D01*
G01*
X82964000Y-83430000D01*
G75*
G02*
X83164000Y-83230000I200000J0D01*
G01*
G37*
%TD*%
%TO.C,R9*%
G36*
G01*
X82190000Y-84030000D02*
X81640000Y-84030000D01*
G75*
G02*
X81440000Y-83830000I0J200000D01*
G01*
X81440000Y-83430000D01*
G75*
G02*
X81640000Y-83230000I200000J0D01*
G01*
X82190000Y-83230000D01*
G75*
G02*
X82390000Y-83430000I0J-200000D01*
G01*
X82390000Y-83830000D01*
G75*
G02*
X82190000Y-84030000I-200000J0D01*
G01*
G37*
G36*
G01*
X82190000Y-85680000D02*
X81640000Y-85680000D01*
G75*
G02*
X81440000Y-85480000I0J200000D01*
G01*
X81440000Y-85080000D01*
G75*
G02*
X81640000Y-84880000I200000J0D01*
G01*
X82190000Y-84880000D01*
G75*
G02*
X82390000Y-85080000I0J-200000D01*
G01*
X82390000Y-85480000D01*
G75*
G02*
X82190000Y-85680000I-200000J0D01*
G01*
G37*
%TD*%
%TO.C,R7*%
G36*
G01*
X80308000Y-99716000D02*
X80308000Y-99166000D01*
G75*
G02*
X80508000Y-98966000I200000J0D01*
G01*
X80908000Y-98966000D01*
G75*
G02*
X81108000Y-99166000I0J-200000D01*
G01*
X81108000Y-99716000D01*
G75*
G02*
X80908000Y-99916000I-200000J0D01*
G01*
X80508000Y-99916000D01*
G75*
G02*
X80308000Y-99716000I0J200000D01*
G01*
G37*
G36*
G01*
X78658000Y-99716000D02*
X78658000Y-99166000D01*
G75*
G02*
X78858000Y-98966000I200000J0D01*
G01*
X79258000Y-98966000D01*
G75*
G02*
X79458000Y-99166000I0J-200000D01*
G01*
X79458000Y-99716000D01*
G75*
G02*
X79258000Y-99916000I-200000J0D01*
G01*
X78858000Y-99916000D01*
G75*
G02*
X78658000Y-99716000I0J200000D01*
G01*
G37*
%TD*%
%TO.C,R1*%
G36*
G01*
X86912000Y-99716000D02*
X86912000Y-99166000D01*
G75*
G02*
X87112000Y-98966000I200000J0D01*
G01*
X87512000Y-98966000D01*
G75*
G02*
X87712000Y-99166000I0J-200000D01*
G01*
X87712000Y-99716000D01*
G75*
G02*
X87512000Y-99916000I-200000J0D01*
G01*
X87112000Y-99916000D01*
G75*
G02*
X86912000Y-99716000I0J200000D01*
G01*
G37*
G36*
G01*
X85262000Y-99716000D02*
X85262000Y-99166000D01*
G75*
G02*
X85462000Y-98966000I200000J0D01*
G01*
X85862000Y-98966000D01*
G75*
G02*
X86062000Y-99166000I0J-200000D01*
G01*
X86062000Y-99716000D01*
G75*
G02*
X85862000Y-99916000I-200000J0D01*
G01*
X85462000Y-99916000D01*
G75*
G02*
X85262000Y-99716000I0J200000D01*
G01*
G37*
%TD*%
%TO.C,R2*%
G36*
G01*
X81021600Y-123361900D02*
X80471600Y-123361900D01*
G75*
G02*
X80271600Y-123161900I0J200000D01*
G01*
X80271600Y-122761900D01*
G75*
G02*
X80471600Y-122561900I200000J0D01*
G01*
X81021600Y-122561900D01*
G75*
G02*
X81221600Y-122761900I0J-200000D01*
G01*
X81221600Y-123161900D01*
G75*
G02*
X81021600Y-123361900I-200000J0D01*
G01*
G37*
G36*
G01*
X81021600Y-125011900D02*
X80471600Y-125011900D01*
G75*
G02*
X80271600Y-124811900I0J200000D01*
G01*
X80271600Y-124411900D01*
G75*
G02*
X80471600Y-124211900I200000J0D01*
G01*
X81021600Y-124211900D01*
G75*
G02*
X81221600Y-124411900I0J-200000D01*
G01*
X81221600Y-124811900D01*
G75*
G02*
X81021600Y-125011900I-200000J0D01*
G01*
G37*
%TD*%
D21*
%TO.C,J3*%
X82393000Y-80767000D03*
X83043000Y-80767000D03*
X83693000Y-80767000D03*
X84343000Y-80767000D03*
X84993000Y-80767000D03*
%TD*%
%TO.C,D2*%
G36*
G01*
X83535000Y-97919250D02*
X83535000Y-97406750D01*
G75*
G02*
X83753750Y-97188000I218750J0D01*
G01*
X84191250Y-97188000D01*
G75*
G02*
X84410000Y-97406750I0J-218750D01*
G01*
X84410000Y-97919250D01*
G75*
G02*
X84191250Y-98138000I-218750J0D01*
G01*
X83753750Y-98138000D01*
G75*
G02*
X83535000Y-97919250I0J218750D01*
G01*
G37*
G36*
G01*
X81960000Y-97919250D02*
X81960000Y-97406750D01*
G75*
G02*
X82178750Y-97188000I218750J0D01*
G01*
X82616250Y-97188000D01*
G75*
G02*
X82835000Y-97406750I0J-218750D01*
G01*
X82835000Y-97919250D01*
G75*
G02*
X82616250Y-98138000I-218750J0D01*
G01*
X82178750Y-98138000D01*
G75*
G02*
X81960000Y-97919250I0J218750D01*
G01*
G37*
%TD*%
%TO.C,D5*%
G36*
G01*
X80233000Y-97919250D02*
X80233000Y-97406750D01*
G75*
G02*
X80451750Y-97188000I218750J0D01*
G01*
X80889250Y-97188000D01*
G75*
G02*
X81108000Y-97406750I0J-218750D01*
G01*
X81108000Y-97919250D01*
G75*
G02*
X80889250Y-98138000I-218750J0D01*
G01*
X80451750Y-98138000D01*
G75*
G02*
X80233000Y-97919250I0J218750D01*
G01*
G37*
G36*
G01*
X78658000Y-97919250D02*
X78658000Y-97406750D01*
G75*
G02*
X78876750Y-97188000I218750J0D01*
G01*
X79314250Y-97188000D01*
G75*
G02*
X79533000Y-97406750I0J-218750D01*
G01*
X79533000Y-97919250D01*
G75*
G02*
X79314250Y-98138000I-218750J0D01*
G01*
X78876750Y-98138000D01*
G75*
G02*
X78658000Y-97919250I0J218750D01*
G01*
G37*
%TD*%
%TO.C,D1*%
G36*
G01*
X86837000Y-97919250D02*
X86837000Y-97406750D01*
G75*
G02*
X87055750Y-97188000I218750J0D01*
G01*
X87493250Y-97188000D01*
G75*
G02*
X87712000Y-97406750I0J-218750D01*
G01*
X87712000Y-97919250D01*
G75*
G02*
X87493250Y-98138000I-218750J0D01*
G01*
X87055750Y-98138000D01*
G75*
G02*
X86837000Y-97919250I0J218750D01*
G01*
G37*
G36*
G01*
X85262000Y-97919250D02*
X85262000Y-97406750D01*
G75*
G02*
X85480750Y-97188000I218750J0D01*
G01*
X85918250Y-97188000D01*
G75*
G02*
X86137000Y-97406750I0J-218750D01*
G01*
X86137000Y-97919250D01*
G75*
G02*
X85918250Y-98138000I-218750J0D01*
G01*
X85480750Y-98138000D01*
G75*
G02*
X85262000Y-97919250I0J218750D01*
G01*
G37*
%TD*%
%TO.C,C1*%
G36*
G01*
X86149300Y-95736600D02*
X86149300Y-96236600D01*
G75*
G02*
X85924300Y-96461600I-225000J0D01*
G01*
X85474300Y-96461600D01*
G75*
G02*
X85249300Y-96236600I0J225000D01*
G01*
X85249300Y-95736600D01*
G75*
G02*
X85474300Y-95511600I225000J0D01*
G01*
X85924300Y-95511600D01*
G75*
G02*
X86149300Y-95736600I0J-225000D01*
G01*
G37*
G36*
G01*
X87699300Y-95736600D02*
X87699300Y-96236600D01*
G75*
G02*
X87474300Y-96461600I-225000J0D01*
G01*
X87024300Y-96461600D01*
G75*
G02*
X86799300Y-96236600I0J225000D01*
G01*
X86799300Y-95736600D01*
G75*
G02*
X87024300Y-95511600I225000J0D01*
G01*
X87474300Y-95511600D01*
G75*
G02*
X87699300Y-95736600I0J-225000D01*
G01*
G37*
%TD*%
%TO.C,C4*%
G36*
G01*
X87815000Y-110867000D02*
X87815000Y-110367000D01*
G75*
G02*
X88040000Y-110142000I225000J0D01*
G01*
X88490000Y-110142000D01*
G75*
G02*
X88715000Y-110367000I0J-225000D01*
G01*
X88715000Y-110867000D01*
G75*
G02*
X88490000Y-111092000I-225000J0D01*
G01*
X88040000Y-111092000D01*
G75*
G02*
X87815000Y-110867000I0J225000D01*
G01*
G37*
G36*
G01*
X86265000Y-110867000D02*
X86265000Y-110367000D01*
G75*
G02*
X86490000Y-110142000I225000J0D01*
G01*
X86940000Y-110142000D01*
G75*
G02*
X87165000Y-110367000I0J-225000D01*
G01*
X87165000Y-110867000D01*
G75*
G02*
X86940000Y-111092000I-225000J0D01*
G01*
X86490000Y-111092000D01*
G75*
G02*
X86265000Y-110867000I0J225000D01*
G01*
G37*
%TD*%
%TO.C,C3*%
G36*
G01*
X78542000Y-121276300D02*
X78542000Y-121776300D01*
G75*
G02*
X78317000Y-122001300I-225000J0D01*
G01*
X77867000Y-122001300D01*
G75*
G02*
X77642000Y-121776300I0J225000D01*
G01*
X77642000Y-121276300D01*
G75*
G02*
X77867000Y-121051300I225000J0D01*
G01*
X78317000Y-121051300D01*
G75*
G02*
X78542000Y-121276300I0J-225000D01*
G01*
G37*
G36*
G01*
X80092000Y-121276300D02*
X80092000Y-121776300D01*
G75*
G02*
X79867000Y-122001300I-225000J0D01*
G01*
X79417000Y-122001300D01*
G75*
G02*
X79192000Y-121776300I0J225000D01*
G01*
X79192000Y-121276300D01*
G75*
G02*
X79417000Y-121051300I225000J0D01*
G01*
X79867000Y-121051300D01*
G75*
G02*
X80092000Y-121276300I0J-225000D01*
G01*
G37*
%TD*%
%TO.C,C11*%
G36*
G01*
X88015000Y-120835000D02*
X88515000Y-120835000D01*
G75*
G02*
X88740000Y-121060000I0J-225000D01*
G01*
X88740000Y-121510000D01*
G75*
G02*
X88515000Y-121735000I-225000J0D01*
G01*
X88015000Y-121735000D01*
G75*
G02*
X87790000Y-121510000I0J225000D01*
G01*
X87790000Y-121060000D01*
G75*
G02*
X88015000Y-120835000I225000J0D01*
G01*
G37*
G36*
G01*
X88015000Y-119285000D02*
X88515000Y-119285000D01*
G75*
G02*
X88740000Y-119510000I0J-225000D01*
G01*
X88740000Y-119960000D01*
G75*
G02*
X88515000Y-120185000I-225000J0D01*
G01*
X88015000Y-120185000D01*
G75*
G02*
X87790000Y-119960000I0J225000D01*
G01*
X87790000Y-119510000D01*
G75*
G02*
X88015000Y-119285000I225000J0D01*
G01*
G37*
%TD*%
%TO.C,C10*%
G36*
G01*
X78355000Y-111054000D02*
X77855000Y-111054000D01*
G75*
G02*
X77630000Y-110829000I0J225000D01*
G01*
X77630000Y-110379000D01*
G75*
G02*
X77855000Y-110154000I225000J0D01*
G01*
X78355000Y-110154000D01*
G75*
G02*
X78580000Y-110379000I0J-225000D01*
G01*
X78580000Y-110829000D01*
G75*
G02*
X78355000Y-111054000I-225000J0D01*
G01*
G37*
G36*
G01*
X78355000Y-112604000D02*
X77855000Y-112604000D01*
G75*
G02*
X77630000Y-112379000I0J225000D01*
G01*
X77630000Y-111929000D01*
G75*
G02*
X77855000Y-111704000I225000J0D01*
G01*
X78355000Y-111704000D01*
G75*
G02*
X78580000Y-111929000I0J-225000D01*
G01*
X78580000Y-112379000D01*
G75*
G02*
X78355000Y-112604000I-225000J0D01*
G01*
G37*
%TD*%
%TO.C,C14*%
G36*
G01*
X88007000Y-107231000D02*
X87507000Y-107231000D01*
G75*
G02*
X87282000Y-107006000I0J225000D01*
G01*
X87282000Y-106556000D01*
G75*
G02*
X87507000Y-106331000I225000J0D01*
G01*
X88007000Y-106331000D01*
G75*
G02*
X88232000Y-106556000I0J-225000D01*
G01*
X88232000Y-107006000D01*
G75*
G02*
X88007000Y-107231000I-225000J0D01*
G01*
G37*
G36*
G01*
X88007000Y-108781000D02*
X87507000Y-108781000D01*
G75*
G02*
X87282000Y-108556000I0J225000D01*
G01*
X87282000Y-108106000D01*
G75*
G02*
X87507000Y-107881000I225000J0D01*
G01*
X88007000Y-107881000D01*
G75*
G02*
X88232000Y-108106000I0J-225000D01*
G01*
X88232000Y-108556000D01*
G75*
G02*
X88007000Y-108781000I-225000J0D01*
G01*
G37*
%TD*%
%TO.C,C13*%
G36*
G01*
X79879000Y-107244000D02*
X79379000Y-107244000D01*
G75*
G02*
X79154000Y-107019000I0J225000D01*
G01*
X79154000Y-106569000D01*
G75*
G02*
X79379000Y-106344000I225000J0D01*
G01*
X79879000Y-106344000D01*
G75*
G02*
X80104000Y-106569000I0J-225000D01*
G01*
X80104000Y-107019000D01*
G75*
G02*
X79879000Y-107244000I-225000J0D01*
G01*
G37*
G36*
G01*
X79879000Y-108794000D02*
X79379000Y-108794000D01*
G75*
G02*
X79154000Y-108569000I0J225000D01*
G01*
X79154000Y-108119000D01*
G75*
G02*
X79379000Y-107894000I225000J0D01*
G01*
X79879000Y-107894000D01*
G75*
G02*
X80104000Y-108119000I0J-225000D01*
G01*
X80104000Y-108569000D01*
G75*
G02*
X79879000Y-108794000I-225000J0D01*
G01*
G37*
%TD*%
%TO.C,C2*%
G36*
G01*
X79773900Y-130509200D02*
X79773900Y-131009200D01*
G75*
G02*
X79548900Y-131234200I-225000J0D01*
G01*
X79098900Y-131234200D01*
G75*
G02*
X78873900Y-131009200I0J225000D01*
G01*
X78873900Y-130509200D01*
G75*
G02*
X79098900Y-130284200I225000J0D01*
G01*
X79548900Y-130284200D01*
G75*
G02*
X79773900Y-130509200I0J-225000D01*
G01*
G37*
G36*
G01*
X81323900Y-130509200D02*
X81323900Y-131009200D01*
G75*
G02*
X81098900Y-131234200I-225000J0D01*
G01*
X80648900Y-131234200D01*
G75*
G02*
X80423900Y-131009200I0J225000D01*
G01*
X80423900Y-130509200D01*
G75*
G02*
X80648900Y-130284200I225000J0D01*
G01*
X81098900Y-130284200D01*
G75*
G02*
X81323900Y-130509200I0J-225000D01*
G01*
G37*
%TD*%
%TO.C,C12*%
G36*
G01*
X79812000Y-102493000D02*
X79812000Y-102993000D01*
G75*
G02*
X79587000Y-103218000I-225000J0D01*
G01*
X79137000Y-103218000D01*
G75*
G02*
X78912000Y-102993000I0J225000D01*
G01*
X78912000Y-102493000D01*
G75*
G02*
X79137000Y-102268000I225000J0D01*
G01*
X79587000Y-102268000D01*
G75*
G02*
X79812000Y-102493000I0J-225000D01*
G01*
G37*
G36*
G01*
X81362000Y-102493000D02*
X81362000Y-102993000D01*
G75*
G02*
X81137000Y-103218000I-225000J0D01*
G01*
X80687000Y-103218000D01*
G75*
G02*
X80462000Y-102993000I0J225000D01*
G01*
X80462000Y-102493000D01*
G75*
G02*
X80687000Y-102268000I225000J0D01*
G01*
X81137000Y-102268000D01*
G75*
G02*
X81362000Y-102493000I0J-225000D01*
G01*
G37*
%TD*%
%TO.C,C9*%
G36*
G01*
X87574000Y-102993000D02*
X87574000Y-102493000D01*
G75*
G02*
X87799000Y-102268000I225000J0D01*
G01*
X88249000Y-102268000D01*
G75*
G02*
X88474000Y-102493000I0J-225000D01*
G01*
X88474000Y-102993000D01*
G75*
G02*
X88249000Y-103218000I-225000J0D01*
G01*
X87799000Y-103218000D01*
G75*
G02*
X87574000Y-102993000I0J225000D01*
G01*
G37*
G36*
G01*
X86024000Y-102993000D02*
X86024000Y-102493000D01*
G75*
G02*
X86249000Y-102268000I225000J0D01*
G01*
X86699000Y-102268000D01*
G75*
G02*
X86924000Y-102493000I0J-225000D01*
G01*
X86924000Y-102993000D01*
G75*
G02*
X86699000Y-103218000I-225000J0D01*
G01*
X86249000Y-103218000D01*
G75*
G02*
X86024000Y-102993000I0J225000D01*
G01*
G37*
%TD*%
M02*
