%TF.GenerationSoftware,KiCad,Pcbnew,(5.1.9-16-g1737927814)-1*%
%TF.CreationDate,2021-07-07T15:11:55-05:00*%
%TF.ProjectId,bluepill_scsi,626c7565-7069-46c6-9c5f-736373692e6b,rev?*%
%TF.SameCoordinates,Original*%
%TF.FileFunction,Soldermask,Top*%
%TF.FilePolarity,Negative*%
%FSLAX46Y46*%
G04 Gerber Fmt 4.6, Leading zero omitted, Abs format (unit mm)*
G04 Created by KiCad (PCBNEW (5.1.9-16-g1737927814)-1) date 2021-07-07 15:11:55*
%MOMM*%
%LPD*%
G01*
G04 APERTURE LIST*
%TA.AperFunction,Profile*%
%ADD10C,0.050000*%
%TD*%
%ADD11C,2.100000*%
%ADD12O,1.700000X1.700000*%
%ADD13R,1.700000X1.700000*%
%ADD14O,0.800000X0.800000*%
%ADD15O,1.450000X2.000000*%
%ADD16R,0.450000X1.300000*%
%ADD17C,1.500000*%
%ADD18C,1.700000*%
%ADD19C,1.000000*%
%ADD20C,2.000000*%
%ADD21R,1.900000X1.350000*%
%ADD22R,1.200000X1.000000*%
%ADD23R,1.550000X1.350000*%
%ADD24R,1.170000X1.800000*%
%ADD25R,0.850000X1.100000*%
%ADD26R,0.750000X1.100000*%
%ADD27R,1.250000X1.250000*%
%ADD28C,1.250000*%
G04 APERTURE END LIST*
D10*
X113538000Y-148475700D02*
X86664800Y-148475700D01*
X113538000Y-76314300D02*
X86664800Y-76314300D01*
X113538000Y-148475700D02*
X113538000Y-76314300D01*
X86664800Y-148475700D02*
X86664800Y-76314300D01*
D11*
%TO.C,REF\u002A\u002A*%
X88488520Y-78125320D03*
%TD*%
D12*
%TO.C,J1*%
X91008200Y-144139920D03*
X91008200Y-146679920D03*
X88468200Y-144139920D03*
D13*
X88468200Y-146679920D03*
%TD*%
D14*
%TO.C,J3*%
X101102800Y-147561400D03*
X96102800Y-147561400D03*
D15*
X102327800Y-146511400D03*
X94877800Y-146511400D03*
D16*
X99902800Y-146461400D03*
X99252800Y-146461400D03*
X98602800Y-146461400D03*
X97952800Y-146461400D03*
X97302800Y-146461400D03*
%TD*%
D17*
%TO.C,TP14*%
X88356440Y-119893080D03*
%TD*%
D18*
%TO.C,J5*%
X109855000Y-142875000D03*
X109855000Y-140335000D03*
X109855000Y-137795000D03*
X109855000Y-135255000D03*
X109855000Y-132715000D03*
X109855000Y-130175000D03*
X109855000Y-127635000D03*
X109855000Y-125095000D03*
X109855000Y-122555000D03*
X109855000Y-120015000D03*
X109855000Y-117475000D03*
X109855000Y-114935000D03*
X109855000Y-112395000D03*
X109855000Y-109855000D03*
X109855000Y-107315000D03*
X109855000Y-104775000D03*
X109855000Y-102235000D03*
X109855000Y-99695000D03*
X109855000Y-97155000D03*
X109855000Y-94615000D03*
X109855000Y-92075000D03*
X109855000Y-89535000D03*
X109855000Y-86995000D03*
X109855000Y-84455000D03*
X109855000Y-81915000D03*
X107315000Y-142875000D03*
X107315000Y-140335000D03*
X107315000Y-137795000D03*
X107315000Y-135255000D03*
X107315000Y-132715000D03*
X107315000Y-130175000D03*
X107315000Y-127635000D03*
X107315000Y-125095000D03*
X107315000Y-122555000D03*
X107315000Y-120015000D03*
X107315000Y-117475000D03*
X107315000Y-114935000D03*
X107315000Y-112395000D03*
X107315000Y-109855000D03*
X107315000Y-107315000D03*
X107315000Y-104775000D03*
X107315000Y-102235000D03*
X107315000Y-99695000D03*
X107315000Y-97155000D03*
X107315000Y-94615000D03*
X107315000Y-92075000D03*
X107315000Y-89535000D03*
X107315000Y-86995000D03*
X107315000Y-84455000D03*
G36*
G01*
X106465000Y-82515000D02*
X106465000Y-81315000D01*
G75*
G02*
X106715000Y-81065000I250000J0D01*
G01*
X107915000Y-81065000D01*
G75*
G02*
X108165000Y-81315000I0J-250000D01*
G01*
X108165000Y-82515000D01*
G75*
G02*
X107915000Y-82765000I-250000J0D01*
G01*
X106715000Y-82765000D01*
G75*
G02*
X106465000Y-82515000I0J250000D01*
G01*
G37*
%TD*%
D19*
%TO.C,TP13*%
X100836400Y-81280000D03*
%TD*%
%TO.C,TP12*%
X99786400Y-83299300D03*
%TD*%
%TO.C,TP11*%
X97586400Y-83299300D03*
%TD*%
%TO.C,TP10*%
X95386400Y-83299300D03*
%TD*%
%TO.C,TP9*%
X94286400Y-81280000D03*
%TD*%
%TO.C,TP8*%
X93186400Y-83299300D03*
%TD*%
%TO.C,TP7*%
X98653066Y-81280000D03*
%TD*%
%TO.C,TP6*%
X96469733Y-81280000D03*
%TD*%
D20*
%TO.C,SW1*%
X88277700Y-123014600D03*
X92777700Y-123014600D03*
X88277700Y-129514600D03*
X92777700Y-129514600D03*
%TD*%
D17*
%TO.C,TP5*%
X94620080Y-138303000D03*
%TD*%
%TO.C,TP4*%
X88701880Y-109870240D03*
%TD*%
%TO.C,TP3*%
X94621350Y-134086600D03*
%TD*%
%TO.C,TP2*%
X97510600Y-134086600D03*
%TD*%
D12*
%TO.C,J8*%
X88582500Y-132765800D03*
X88582500Y-135305800D03*
X88582500Y-137845800D03*
D13*
X88582500Y-140385800D03*
%TD*%
D21*
%TO.C,J6*%
X100440500Y-88217100D03*
X94470500Y-88217100D03*
D22*
X90970500Y-83542100D03*
X90970500Y-87242100D03*
D23*
X91145500Y-77517100D03*
D24*
X102465500Y-77742100D03*
D25*
X100205500Y-77392100D03*
X99105500Y-77392100D03*
X98005500Y-77392100D03*
X96905500Y-77392100D03*
X95805500Y-77392100D03*
X94705500Y-77392100D03*
D26*
X101255500Y-77392100D03*
D25*
X93605500Y-77392100D03*
%TD*%
D12*
%TO.C,J2*%
X88747600Y-99542600D03*
X88747600Y-102082600D03*
X88747600Y-104622600D03*
D13*
X88747600Y-107162600D03*
%TD*%
D27*
%TO.C,J4*%
X94538800Y-142201900D03*
D28*
X97038800Y-142201900D03*
X99538800Y-142201900D03*
X102038800Y-142201900D03*
%TD*%
M02*
