M48
; DRILL file {KiCad (5.1.9-16-g1737927814)-1} date 07/07/21 15:11:53
; FORMAT={-:-/ absolute / inch / decimal}
; #@! TF.CreationDate,2021-07-07T15:11:53-05:00
; #@! TF.GenerationSoftware,Kicad,Pcbnew,(5.1.9-16-g1737927814)-1
; #@! TF.FileFunction,Plated,1,2,PTH
FMAT,2
INCH
T1C0.0079
T2C0.0157
T3C0.0197
T4C0.0335
T5C0.0354
T6C0.0394
T7C0.0433
%
G90
G05
T1
X3.4815Y-3.772
X3.5415Y-3.6705
X3.5455Y-3.811
X3.5572Y-3.1433
X3.5573Y-4.7528
X3.56Y-4.4265
X3.562Y-4.65
X3.563Y-5.4285
X3.5655Y-4.9765
X3.5715Y-4.233
X3.5795Y-4.762
X3.5958Y-4.8965
X3.5978Y-4.7769
X3.5995Y-5.1499
X3.6114Y-4.885
X3.614Y-3.1925
X3.619Y-3.356
X3.6267Y-3.7196
X3.6295Y-3.16
X3.6327Y-3.2365
X3.6335Y-4.9258
X3.6347Y-3.3913
X3.6393Y-3.6194
X3.641Y-4.995
X3.6534Y-3.7193
X3.6589Y-4.9545
X3.6675Y-4.3345
X3.6721Y-4.5641
X3.6815Y-4.489
X3.689Y-4.763
X3.7075Y-4.526
X3.7077Y-3.8256
X3.7077Y-4.051
X3.7115Y-5.2375
X3.7156Y-4.6236
X3.7219Y-4.6008
X3.7765Y-5.1855
X3.7778Y-4.3332
X3.7778Y-4.8328
X3.7815Y-5.2455
X3.7833Y-4.2803
X3.7867Y-4.6657
X3.7877Y-5.1307
X3.7897Y-4.5915
X3.7914Y-3.0872
X3.7921Y-3.4286
X3.799Y-4.091
X3.8035Y-3.248
X3.8035Y-4.45
X3.8061Y-5.2457
X3.8133Y-4.5909
X3.8205Y-4.496
X3.822Y-3.6965
X3.822Y-4.526
X3.8222Y-4.2966
X3.8223Y-4.5685
X3.8347Y-3.8475
X3.835Y-3.756
X3.841Y-4.5829
X3.8475Y-5.35
X3.849Y-4.4773
X3.849Y-4.7885
X3.85Y-4.1215
X3.8548Y-4.8748
X3.865Y-4.3233
X3.8705Y-4.1745
X3.882Y-4.3045
X3.8975Y-5.384
X3.8975Y-5.454
X3.8975Y-5.523
X3.8981Y-4.9669
X3.8981Y-5.0354
X3.8981Y-5.1044
X3.8981Y-5.1736
X3.8981Y-5.2416
X3.8981Y-5.3131
X3.8985Y-3.361
X3.8985Y-3.4295
X3.8985Y-3.5025
X3.8985Y-3.569
X3.8985Y-3.6415
X3.8985Y-3.709
X3.8985Y-3.779
X3.8985Y-3.8505
X3.8985Y-3.918
X3.9105Y-3.08
X3.9147Y-5.0724
X3.9201Y-4.3687
X3.9205Y-4.71
X3.9367Y-4.5525
X3.9391Y-4.3544
X3.9465Y-4.918
X3.9468Y-5.0814
X3.9505Y-5.0
X3.959Y-5.4536
X3.9605Y-5.4185
X3.9663Y-4.2108
X4.0135Y-4.1875
X4.0175Y-3.4118
X4.018Y-3.356
X4.018Y-3.639
X4.018Y-3.7095
X4.018Y-3.778
X4.018Y-3.8495
X4.018Y-3.92
X4.0181Y-4.8481
X4.019Y-4.9635
X4.0198Y-5.0323
X4.0198Y-5.0992
X4.0198Y-5.17
X4.0198Y-5.2422
X4.0198Y-5.3139
X4.0205Y-3.496
X4.0205Y-3.565
X4.0225Y-5.3815
X4.023Y-5.451
X4.024Y-5.52
X4.027Y-4.4625
X4.0273Y-4.2199
X4.0282Y-4.3902
X4.0313Y-4.7693
X4.0343Y-4.1374
X4.0369Y-4.8707
X4.0416Y-3.8837
X4.0518Y-4.1533
X4.0572Y-5.139
X4.0655Y-4.0756
X4.079Y-3.821
X4.0794Y-5.4099
X4.0799Y-4.6822
X4.0836Y-3.9454
X4.0885Y-3.7485
X4.09Y-3.8635
X4.1005Y-4.8405
X4.1056Y-5.2707
X4.1069Y-3.6895
X4.1072Y-3.7694
X4.1207Y-3.6195
X4.1227Y-3.6719
X4.1254Y-4.8383
X4.1272Y-4.8131
X4.1275Y-3.57
X4.1355Y-4.7897
X4.1376Y-4.7506
X4.144Y-3.465
X4.1522Y-3.2693
X4.1565Y-3.3815
X4.1565Y-5.5624
X4.1629Y-4.3942
X4.1655Y-5.6486
X4.1749Y-4.2654
X4.1772Y-4.7366
X4.1936Y-4.1871
T2
X3.4685Y-3.559
X3.491Y-5.009
X3.494Y-4.615
X3.5275Y-5.2785
X3.5367Y-5.1532
X3.5396Y-3.4746
X3.5803Y-5.1067
X3.5985Y-3.137
X3.632Y-4.7381
X3.6879Y-5.0251
X3.701Y-5.3845
X3.7073Y-5.5075
X3.7134Y-5.1644
X3.7584Y-5.5127
X3.7978Y-5.3936
X3.7995Y-4.9622
X3.8055Y-4.7444
X3.808Y-3.483
X3.824Y-5.694
X3.8445Y-4.035
X3.8699Y-5.6533
X3.8956Y-5.7146
X3.9144Y-5.6791
X3.941Y-4.0085
X3.9588Y-3.964
X3.97Y-5.6555
X4.1016Y-5.625
X4.1018Y-5.4766
X4.1078Y-5.3266
X4.1248Y-5.41
X4.1292Y-4.9208
X4.3098Y-5.7508
X4.3628Y-5.479
X4.3988Y-5.7063
X4.4454Y-5.3396
T3
X3.6688Y-3.2795
X3.7121Y-3.2
X3.7554Y-3.2795
X3.798Y-3.2
X3.842Y-3.2795
X3.884Y-3.2
X3.9286Y-3.2795
X3.9699Y-3.2
T5
X3.722Y-5.5985
X3.8204Y-5.5985
X3.9189Y-5.5985
X4.0173Y-5.5985
T6
X3.483Y-5.6748
X3.483Y-5.7748
X3.4875Y-5.227
X3.4875Y-5.327
X3.4875Y-5.427
X3.4875Y-5.527
X3.494Y-3.919
X3.494Y-4.019
X3.494Y-4.119
X3.494Y-4.219
X3.583Y-5.6748
X3.583Y-5.7748
X4.225Y-3.225
X4.225Y-3.325
X4.225Y-3.425
X4.225Y-3.525
X4.225Y-3.625
X4.225Y-3.725
X4.225Y-3.825
X4.225Y-3.925
X4.225Y-4.025
X4.225Y-4.125
X4.225Y-4.225
X4.225Y-4.325
X4.225Y-4.425
X4.225Y-4.525
X4.225Y-4.625
X4.225Y-4.725
X4.225Y-4.825
X4.225Y-4.925
X4.225Y-5.025
X4.225Y-5.125
X4.225Y-5.225
X4.225Y-5.325
X4.225Y-5.425
X4.225Y-5.525
X4.225Y-5.625
X4.325Y-3.225
X4.325Y-3.325
X4.325Y-3.425
X4.325Y-3.525
X4.325Y-3.625
X4.325Y-3.725
X4.325Y-3.825
X4.325Y-3.925
X4.325Y-4.025
X4.325Y-4.125
X4.325Y-4.225
X4.325Y-4.325
X4.325Y-4.425
X4.325Y-4.525
X4.325Y-4.625
X4.325Y-4.725
X4.325Y-4.825
X4.325Y-4.925
X4.325Y-5.025
X4.325Y-5.125
X4.325Y-5.225
X4.325Y-5.325
X4.325Y-5.425
X4.325Y-5.525
X4.325Y-5.625
T7
X3.4755Y-4.8431
X3.4755Y-5.099
X3.6527Y-4.8431
X3.6527Y-5.099
T4
G00X3.7353Y-5.7573
M15
G01X3.7353Y-5.779
M16
G05
G00X4.0287Y-5.7573
M15
G01X4.0287Y-5.779
M16
G05
T0
M30
