%TF.GenerationSoftware,KiCad,Pcbnew,(5.1.9-16-g1737927814)-1*%
%TF.CreationDate,2021-07-07T15:11:54-05:00*%
%TF.ProjectId,bluepill_scsi,626c7565-7069-46c6-9c5f-736373692e6b,rev?*%
%TF.SameCoordinates,Original*%
%TF.FileFunction,Legend,Top*%
%TF.FilePolarity,Positive*%
%FSLAX46Y46*%
G04 Gerber Fmt 4.6, Leading zero omitted, Abs format (unit mm)*
G04 Created by KiCad (PCBNEW (5.1.9-16-g1737927814)-1) date 2021-07-07 15:11:54*
%MOMM*%
%LPD*%
G01*
G04 APERTURE LIST*
%ADD10C,0.150000*%
%ADD11C,0.100000*%
%ADD12C,0.120000*%
%ADD13C,0.200000*%
%TA.AperFunction,Profile*%
%ADD14C,0.050000*%
%TD*%
%ADD15C,0.300000*%
%ADD16C,0.010000*%
%ADD17C,0.127000*%
G04 APERTURE END LIST*
D10*
X91773952Y-84669380D02*
X91773952Y-85383666D01*
X91726333Y-85526523D01*
X91631095Y-85621761D01*
X91488238Y-85669380D01*
X91393000Y-85669380D01*
X92726333Y-85669380D02*
X92250142Y-85669380D01*
X92250142Y-84669380D01*
X93631095Y-85574142D02*
X93583476Y-85621761D01*
X93440619Y-85669380D01*
X93345380Y-85669380D01*
X93202523Y-85621761D01*
X93107285Y-85526523D01*
X93059666Y-85431285D01*
X93012047Y-85240809D01*
X93012047Y-85097952D01*
X93059666Y-84907476D01*
X93107285Y-84812238D01*
X93202523Y-84717000D01*
X93345380Y-84669380D01*
X93440619Y-84669380D01*
X93583476Y-84717000D01*
X93631095Y-84764619D01*
X94345380Y-84669380D02*
X94345380Y-85383666D01*
X94297761Y-85526523D01*
X94202523Y-85621761D01*
X94059666Y-85669380D01*
X93964428Y-85669380D01*
X95297761Y-85669380D02*
X94821571Y-85669380D01*
X94821571Y-84669380D01*
X96202523Y-85574142D02*
X96154904Y-85621761D01*
X96012047Y-85669380D01*
X95916809Y-85669380D01*
X95773952Y-85621761D01*
X95678714Y-85526523D01*
X95631095Y-85431285D01*
X95583476Y-85240809D01*
X95583476Y-85097952D01*
X95631095Y-84907476D01*
X95678714Y-84812238D01*
X95773952Y-84717000D01*
X95916809Y-84669380D01*
X96012047Y-84669380D01*
X96154904Y-84717000D01*
X96202523Y-84764619D01*
X96916809Y-84669380D02*
X96916809Y-85383666D01*
X96869190Y-85526523D01*
X96773952Y-85621761D01*
X96631095Y-85669380D01*
X96535857Y-85669380D01*
X97869190Y-85669380D02*
X97393000Y-85669380D01*
X97393000Y-84669380D01*
X98773952Y-85574142D02*
X98726333Y-85621761D01*
X98583476Y-85669380D01*
X98488238Y-85669380D01*
X98345380Y-85621761D01*
X98250142Y-85526523D01*
X98202523Y-85431285D01*
X98154904Y-85240809D01*
X98154904Y-85097952D01*
X98202523Y-84907476D01*
X98250142Y-84812238D01*
X98345380Y-84717000D01*
X98488238Y-84669380D01*
X98583476Y-84669380D01*
X98726333Y-84717000D01*
X98773952Y-84764619D01*
X99488238Y-84669380D02*
X99488238Y-85383666D01*
X99440619Y-85526523D01*
X99345380Y-85621761D01*
X99202523Y-85669380D01*
X99107285Y-85669380D01*
X100440619Y-85669380D02*
X99964428Y-85669380D01*
X99964428Y-84669380D01*
X101345380Y-85574142D02*
X101297761Y-85621761D01*
X101154904Y-85669380D01*
X101059666Y-85669380D01*
X100916809Y-85621761D01*
X100821571Y-85526523D01*
X100773952Y-85431285D01*
X100726333Y-85240809D01*
X100726333Y-85097952D01*
X100773952Y-84907476D01*
X100821571Y-84812238D01*
X100916809Y-84717000D01*
X101059666Y-84669380D01*
X101154904Y-84669380D01*
X101297761Y-84717000D01*
X101345380Y-84764619D01*
X94456714Y-140517571D02*
X94599571Y-140565190D01*
X94647190Y-140612809D01*
X94694809Y-140708047D01*
X94694809Y-140850904D01*
X94647190Y-140946142D01*
X94599571Y-140993761D01*
X94504333Y-141041380D01*
X94123380Y-141041380D01*
X94123380Y-140041380D01*
X94456714Y-140041380D01*
X94551952Y-140089000D01*
X94599571Y-140136619D01*
X94647190Y-140231857D01*
X94647190Y-140327095D01*
X94599571Y-140422333D01*
X94551952Y-140469952D01*
X94456714Y-140517571D01*
X94123380Y-140517571D01*
X95504333Y-140993761D02*
X95409095Y-141041380D01*
X95218619Y-141041380D01*
X95123380Y-140993761D01*
X95075761Y-140898523D01*
X95075761Y-140517571D01*
X95123380Y-140422333D01*
X95218619Y-140374714D01*
X95409095Y-140374714D01*
X95504333Y-140422333D01*
X95551952Y-140517571D01*
X95551952Y-140612809D01*
X95075761Y-140708047D01*
X95980523Y-141041380D02*
X95980523Y-140374714D01*
X95980523Y-140565190D02*
X96028142Y-140469952D01*
X96075761Y-140422333D01*
X96171000Y-140374714D01*
X96266238Y-140374714D01*
X97028142Y-140374714D02*
X97028142Y-141184238D01*
X96980523Y-141279476D01*
X96932904Y-141327095D01*
X96837666Y-141374714D01*
X96694809Y-141374714D01*
X96599571Y-141327095D01*
X97028142Y-140993761D02*
X96932904Y-141041380D01*
X96742428Y-141041380D01*
X96647190Y-140993761D01*
X96599571Y-140946142D01*
X96551952Y-140850904D01*
X96551952Y-140565190D01*
X96599571Y-140469952D01*
X96647190Y-140422333D01*
X96742428Y-140374714D01*
X96932904Y-140374714D01*
X97028142Y-140422333D01*
X98266238Y-141041380D02*
X98266238Y-140041380D01*
X98647190Y-140041380D01*
X98742428Y-140089000D01*
X98790047Y-140136619D01*
X98837666Y-140231857D01*
X98837666Y-140374714D01*
X98790047Y-140469952D01*
X98742428Y-140517571D01*
X98647190Y-140565190D01*
X98266238Y-140565190D01*
X99409095Y-141041380D02*
X99313857Y-140993761D01*
X99266238Y-140946142D01*
X99218619Y-140850904D01*
X99218619Y-140565190D01*
X99266238Y-140469952D01*
X99313857Y-140422333D01*
X99409095Y-140374714D01*
X99551952Y-140374714D01*
X99647190Y-140422333D01*
X99694809Y-140469952D01*
X99742428Y-140565190D01*
X99742428Y-140850904D01*
X99694809Y-140946142D01*
X99647190Y-140993761D01*
X99551952Y-141041380D01*
X99409095Y-141041380D01*
X100075761Y-140374714D02*
X100266238Y-141041380D01*
X100456714Y-140565190D01*
X100647190Y-141041380D01*
X100837666Y-140374714D01*
X101599571Y-140993761D02*
X101504333Y-141041380D01*
X101313857Y-141041380D01*
X101218619Y-140993761D01*
X101171000Y-140898523D01*
X101171000Y-140517571D01*
X101218619Y-140422333D01*
X101313857Y-140374714D01*
X101504333Y-140374714D01*
X101599571Y-140422333D01*
X101647190Y-140517571D01*
X101647190Y-140612809D01*
X101171000Y-140708047D01*
X102075761Y-141041380D02*
X102075761Y-140374714D01*
X102075761Y-140565190D02*
X102123380Y-140469952D01*
X102171000Y-140422333D01*
X102266238Y-140374714D01*
X102361476Y-140374714D01*
D11*
X87481693Y-142014146D02*
X87881693Y-142014146D01*
X87681693Y-142714146D02*
X87681693Y-142014146D01*
X88115026Y-142347480D02*
X88348360Y-142347480D01*
X88448360Y-142714146D02*
X88115026Y-142714146D01*
X88115026Y-142014146D01*
X88448360Y-142014146D01*
X89148360Y-142714146D02*
X88915026Y-142380813D01*
X88748360Y-142714146D02*
X88748360Y-142014146D01*
X89015026Y-142014146D01*
X89081693Y-142047480D01*
X89115026Y-142080813D01*
X89148360Y-142147480D01*
X89148360Y-142247480D01*
X89115026Y-142314146D01*
X89081693Y-142347480D01*
X89015026Y-142380813D01*
X88748360Y-142380813D01*
X89448360Y-142714146D02*
X89448360Y-142014146D01*
X89681693Y-142514146D01*
X89915026Y-142014146D01*
X89915026Y-142714146D01*
X90915026Y-142014146D02*
X91048360Y-142014146D01*
X91115026Y-142047480D01*
X91181693Y-142114146D01*
X91215026Y-142247480D01*
X91215026Y-142480813D01*
X91181693Y-142614146D01*
X91115026Y-142680813D01*
X91048360Y-142714146D01*
X90915026Y-142714146D01*
X90848360Y-142680813D01*
X90781693Y-142614146D01*
X90748360Y-142480813D01*
X90748360Y-142247480D01*
X90781693Y-142114146D01*
X90848360Y-142047480D01*
X90915026Y-142014146D01*
X91515026Y-142714146D02*
X91515026Y-142014146D01*
X91915026Y-142714146D01*
X91915026Y-142014146D01*
D10*
X92618820Y-108700247D02*
X91618820Y-108700247D01*
X91618820Y-108319295D01*
X91666440Y-108224057D01*
X91714059Y-108176438D01*
X91809297Y-108128819D01*
X91952154Y-108128819D01*
X92047392Y-108176438D01*
X92095011Y-108224057D01*
X92142630Y-108319295D01*
X92142630Y-108700247D01*
X92618820Y-107128819D02*
X92142630Y-107462152D01*
X92618820Y-107700247D02*
X91618820Y-107700247D01*
X91618820Y-107319295D01*
X91666440Y-107224057D01*
X91714059Y-107176438D01*
X91809297Y-107128819D01*
X91952154Y-107128819D01*
X92047392Y-107176438D01*
X92095011Y-107224057D01*
X92142630Y-107319295D01*
X92142630Y-107700247D01*
X91618820Y-106509771D02*
X91618820Y-106319295D01*
X91666440Y-106224057D01*
X91761678Y-106128819D01*
X91952154Y-106081200D01*
X92285487Y-106081200D01*
X92475963Y-106128819D01*
X92571201Y-106224057D01*
X92618820Y-106319295D01*
X92618820Y-106509771D01*
X92571201Y-106605009D01*
X92475963Y-106700247D01*
X92285487Y-106747866D01*
X91952154Y-106747866D01*
X91761678Y-106700247D01*
X91666440Y-106605009D01*
X91618820Y-106509771D01*
X91666440Y-105128819D02*
X91618820Y-105224057D01*
X91618820Y-105366914D01*
X91666440Y-105509771D01*
X91761678Y-105605009D01*
X91856916Y-105652628D01*
X92047392Y-105700247D01*
X92190249Y-105700247D01*
X92380725Y-105652628D01*
X92475963Y-105605009D01*
X92571201Y-105509771D01*
X92618820Y-105366914D01*
X92618820Y-105271676D01*
X92571201Y-105128819D01*
X92523582Y-105081200D01*
X92190249Y-105081200D01*
X92190249Y-105271676D01*
X92618820Y-104081200D02*
X92142630Y-104414533D01*
X92618820Y-104652628D02*
X91618820Y-104652628D01*
X91618820Y-104271676D01*
X91666440Y-104176438D01*
X91714059Y-104128819D01*
X91809297Y-104081200D01*
X91952154Y-104081200D01*
X92047392Y-104128819D01*
X92095011Y-104176438D01*
X92142630Y-104271676D01*
X92142630Y-104652628D01*
X92333106Y-103700247D02*
X92333106Y-103224057D01*
X92618820Y-103795485D02*
X91618820Y-103462152D01*
X92618820Y-103128819D01*
X92618820Y-102795485D02*
X91618820Y-102795485D01*
X92333106Y-102462152D01*
X91618820Y-102128819D01*
X92618820Y-102128819D01*
X92618820Y-101652628D02*
X91618820Y-101652628D01*
X92333106Y-101319295D01*
X91618820Y-100985961D01*
X92618820Y-100985961D01*
X92618820Y-100509771D02*
X91618820Y-100509771D01*
X92618820Y-100033580D02*
X91618820Y-100033580D01*
X92618820Y-99462152D01*
X91618820Y-99462152D01*
X91666440Y-98462152D02*
X91618820Y-98557390D01*
X91618820Y-98700247D01*
X91666440Y-98843104D01*
X91761678Y-98938342D01*
X91856916Y-98985961D01*
X92047392Y-99033580D01*
X92190249Y-99033580D01*
X92380725Y-98985961D01*
X92475963Y-98938342D01*
X92571201Y-98843104D01*
X92618820Y-98700247D01*
X92618820Y-98605009D01*
X92571201Y-98462152D01*
X92523582Y-98414533D01*
X92190249Y-98414533D01*
X92190249Y-98605009D01*
X89638142Y-93185857D02*
X89685761Y-93233476D01*
X89733380Y-93376333D01*
X89733380Y-93471571D01*
X89685761Y-93614428D01*
X89590523Y-93709666D01*
X89495285Y-93757285D01*
X89304809Y-93804904D01*
X89161952Y-93804904D01*
X88971476Y-93757285D01*
X88876238Y-93709666D01*
X88781000Y-93614428D01*
X88733380Y-93471571D01*
X88733380Y-93376333D01*
X88781000Y-93233476D01*
X88828619Y-93185857D01*
X89638142Y-92185857D02*
X89685761Y-92233476D01*
X89733380Y-92376333D01*
X89733380Y-92471571D01*
X89685761Y-92614428D01*
X89590523Y-92709666D01*
X89495285Y-92757285D01*
X89304809Y-92804904D01*
X89161952Y-92804904D01*
X88971476Y-92757285D01*
X88876238Y-92709666D01*
X88781000Y-92614428D01*
X88733380Y-92471571D01*
X88733380Y-92376333D01*
X88781000Y-92233476D01*
X88828619Y-92185857D01*
X89209571Y-90662047D02*
X89257190Y-90519190D01*
X89304809Y-90471571D01*
X89400047Y-90423952D01*
X89542904Y-90423952D01*
X89638142Y-90471571D01*
X89685761Y-90519190D01*
X89733380Y-90614428D01*
X89733380Y-90995380D01*
X88733380Y-90995380D01*
X88733380Y-90662047D01*
X88781000Y-90566809D01*
X88828619Y-90519190D01*
X88923857Y-90471571D01*
X89019095Y-90471571D01*
X89114333Y-90519190D01*
X89161952Y-90566809D01*
X89209571Y-90662047D01*
X89209571Y-90995380D01*
X89257190Y-89804904D02*
X89733380Y-89804904D01*
X88733380Y-90138238D02*
X89257190Y-89804904D01*
X88733380Y-89471571D01*
X89352428Y-89138238D02*
X89352428Y-88376333D01*
X89733380Y-87900142D02*
X88733380Y-87900142D01*
X89733380Y-87328714D01*
X88733380Y-87328714D01*
X89638142Y-86281095D02*
X89685761Y-86328714D01*
X89733380Y-86471571D01*
X89733380Y-86566809D01*
X89685761Y-86709666D01*
X89590523Y-86804904D01*
X89495285Y-86852523D01*
X89304809Y-86900142D01*
X89161952Y-86900142D01*
X88971476Y-86852523D01*
X88876238Y-86804904D01*
X88781000Y-86709666D01*
X88733380Y-86566809D01*
X88733380Y-86471571D01*
X88781000Y-86328714D01*
X88828619Y-86281095D01*
D12*
X90984884Y-95885000D02*
G75*
G03*
X90984884Y-95885000I-1703884J0D01*
G01*
X90762062Y-95885000D02*
G75*
G03*
X90762062Y-95885000I-1481062J0D01*
G01*
D13*
X89709571Y-96113571D02*
X89766714Y-96170714D01*
X89823857Y-96342142D01*
X89823857Y-96456428D01*
X89766714Y-96627857D01*
X89652428Y-96742142D01*
X89538142Y-96799285D01*
X89309571Y-96856428D01*
X89138142Y-96856428D01*
X88909571Y-96799285D01*
X88795285Y-96742142D01*
X88681000Y-96627857D01*
X88623857Y-96456428D01*
X88623857Y-96342142D01*
X88681000Y-96170714D01*
X88738142Y-96113571D01*
X89709571Y-94913571D02*
X89766714Y-94970714D01*
X89823857Y-95142142D01*
X89823857Y-95256428D01*
X89766714Y-95427857D01*
X89652428Y-95542142D01*
X89538142Y-95599285D01*
X89309571Y-95656428D01*
X89138142Y-95656428D01*
X88909571Y-95599285D01*
X88795285Y-95542142D01*
X88681000Y-95427857D01*
X88623857Y-95256428D01*
X88623857Y-95142142D01*
X88681000Y-94970714D01*
X88738142Y-94913571D01*
D10*
X94305380Y-120006333D02*
X93305380Y-120006333D01*
X94305380Y-119577761D02*
X93781571Y-119577761D01*
X93686333Y-119625380D01*
X93638714Y-119720619D01*
X93638714Y-119863476D01*
X93686333Y-119958714D01*
X93733952Y-120006333D01*
X93638714Y-119244428D02*
X93638714Y-118863476D01*
X93305380Y-119101571D02*
X94162523Y-119101571D01*
X94257761Y-119053952D01*
X94305380Y-118958714D01*
X94305380Y-118863476D01*
X93638714Y-118673000D02*
X93638714Y-118292047D01*
X93305380Y-118530142D02*
X94162523Y-118530142D01*
X94257761Y-118482523D01*
X94305380Y-118387285D01*
X94305380Y-118292047D01*
X93638714Y-117958714D02*
X94638714Y-117958714D01*
X93686333Y-117958714D02*
X93638714Y-117863476D01*
X93638714Y-117673000D01*
X93686333Y-117577761D01*
X93733952Y-117530142D01*
X93829190Y-117482523D01*
X94114904Y-117482523D01*
X94210142Y-117530142D01*
X94257761Y-117577761D01*
X94305380Y-117673000D01*
X94305380Y-117863476D01*
X94257761Y-117958714D01*
X94210142Y-117053952D02*
X94257761Y-117006333D01*
X94305380Y-117053952D01*
X94257761Y-117101571D01*
X94210142Y-117053952D01*
X94305380Y-117053952D01*
X93686333Y-117053952D02*
X93733952Y-117006333D01*
X93781571Y-117053952D01*
X93733952Y-117101571D01*
X93686333Y-117053952D01*
X93781571Y-117053952D01*
X93257761Y-115863476D02*
X94543476Y-116720619D01*
X93257761Y-114815857D02*
X94543476Y-115673000D01*
X94257761Y-114530142D02*
X94305380Y-114434904D01*
X94305380Y-114244428D01*
X94257761Y-114149190D01*
X94162523Y-114101571D01*
X94114904Y-114101571D01*
X94019666Y-114149190D01*
X93972047Y-114244428D01*
X93972047Y-114387285D01*
X93924428Y-114482523D01*
X93829190Y-114530142D01*
X93781571Y-114530142D01*
X93686333Y-114482523D01*
X93638714Y-114387285D01*
X93638714Y-114244428D01*
X93686333Y-114149190D01*
X94257761Y-113244428D02*
X94305380Y-113339666D01*
X94305380Y-113530142D01*
X94257761Y-113625380D01*
X94210142Y-113673000D01*
X94114904Y-113720619D01*
X93829190Y-113720619D01*
X93733952Y-113673000D01*
X93686333Y-113625380D01*
X93638714Y-113530142D01*
X93638714Y-113339666D01*
X93686333Y-113244428D01*
X94257761Y-112863476D02*
X94305380Y-112768238D01*
X94305380Y-112577761D01*
X94257761Y-112482523D01*
X94162523Y-112434904D01*
X94114904Y-112434904D01*
X94019666Y-112482523D01*
X93972047Y-112577761D01*
X93972047Y-112720619D01*
X93924428Y-112815857D01*
X93829190Y-112863476D01*
X93781571Y-112863476D01*
X93686333Y-112815857D01*
X93638714Y-112720619D01*
X93638714Y-112577761D01*
X93686333Y-112482523D01*
X94305380Y-112006333D02*
X93638714Y-112006333D01*
X93305380Y-112006333D02*
X93353000Y-112053952D01*
X93400619Y-112006333D01*
X93353000Y-111958714D01*
X93305380Y-112006333D01*
X93400619Y-112006333D01*
X94210142Y-111530142D02*
X94257761Y-111482523D01*
X94305380Y-111530142D01*
X94257761Y-111577761D01*
X94210142Y-111530142D01*
X94305380Y-111530142D01*
X94305380Y-111053952D02*
X93305380Y-111053952D01*
X93686333Y-111053952D02*
X93638714Y-110958714D01*
X93638714Y-110768238D01*
X93686333Y-110673000D01*
X93733952Y-110625380D01*
X93829190Y-110577761D01*
X94114904Y-110577761D01*
X94210142Y-110625380D01*
X94257761Y-110673000D01*
X94305380Y-110768238D01*
X94305380Y-110958714D01*
X94257761Y-111053952D01*
X94305380Y-110006333D02*
X94257761Y-110101571D01*
X94162523Y-110149190D01*
X93305380Y-110149190D01*
X93638714Y-109196809D02*
X94305380Y-109196809D01*
X93638714Y-109625380D02*
X94162523Y-109625380D01*
X94257761Y-109577761D01*
X94305380Y-109482523D01*
X94305380Y-109339666D01*
X94257761Y-109244428D01*
X94210142Y-109196809D01*
X94257761Y-108339666D02*
X94305380Y-108434904D01*
X94305380Y-108625380D01*
X94257761Y-108720619D01*
X94162523Y-108768238D01*
X93781571Y-108768238D01*
X93686333Y-108720619D01*
X93638714Y-108625380D01*
X93638714Y-108434904D01*
X93686333Y-108339666D01*
X93781571Y-108292047D01*
X93876809Y-108292047D01*
X93972047Y-108768238D01*
D12*
X95377000Y-107315000D02*
X95631000Y-107315000D01*
X95377000Y-121285000D02*
X95377000Y-107315000D01*
X103505000Y-121285000D02*
X95377000Y-121285000D01*
X103505000Y-107315000D02*
X103505000Y-121285000D01*
X95631000Y-107315000D02*
X103505000Y-107315000D01*
X95631000Y-121031000D02*
X95631000Y-107569000D01*
X103251000Y-121031000D02*
X95631000Y-121031000D01*
X103251000Y-107569000D02*
X103251000Y-121031000D01*
X95631000Y-107569000D02*
X103251000Y-107569000D01*
D11*
X93189853Y-143107693D02*
X93189853Y-143507693D01*
X92489853Y-143307693D02*
X93189853Y-143307693D01*
X92856520Y-143741026D02*
X92856520Y-143974360D01*
X92489853Y-144074360D02*
X92489853Y-143741026D01*
X93189853Y-143741026D01*
X93189853Y-144074360D01*
X92489853Y-144774360D02*
X92823186Y-144541026D01*
X92489853Y-144374360D02*
X93189853Y-144374360D01*
X93189853Y-144641026D01*
X93156520Y-144707693D01*
X93123186Y-144741026D01*
X93056520Y-144774360D01*
X92956520Y-144774360D01*
X92889853Y-144741026D01*
X92856520Y-144707693D01*
X92823186Y-144641026D01*
X92823186Y-144374360D01*
X92489853Y-145074360D02*
X93189853Y-145074360D01*
X92689853Y-145307693D01*
X93189853Y-145541026D01*
X92489853Y-145541026D01*
X93189853Y-146541026D02*
X93189853Y-146674360D01*
X93156520Y-146741026D01*
X93089853Y-146807693D01*
X92956520Y-146841026D01*
X92723186Y-146841026D01*
X92589853Y-146807693D01*
X92523186Y-146741026D01*
X92489853Y-146674360D01*
X92489853Y-146541026D01*
X92523186Y-146474360D01*
X92589853Y-146407693D01*
X92723186Y-146374360D01*
X92956520Y-146374360D01*
X93089853Y-146407693D01*
X93156520Y-146474360D01*
X93189853Y-146541026D01*
X92489853Y-147141026D02*
X93189853Y-147141026D01*
X92489853Y-147541026D01*
X93189853Y-147541026D01*
X90128693Y-121434026D02*
X89895360Y-121100693D01*
X89728693Y-121434026D02*
X89728693Y-120734026D01*
X89995360Y-120734026D01*
X90062026Y-120767360D01*
X90095360Y-120800693D01*
X90128693Y-120867360D01*
X90128693Y-120967360D01*
X90095360Y-121034026D01*
X90062026Y-121067360D01*
X89995360Y-121100693D01*
X89728693Y-121100693D01*
X90428693Y-121067360D02*
X90662026Y-121067360D01*
X90762026Y-121434026D02*
X90428693Y-121434026D01*
X90428693Y-120734026D01*
X90762026Y-120734026D01*
X91028693Y-121400693D02*
X91128693Y-121434026D01*
X91295360Y-121434026D01*
X91362026Y-121400693D01*
X91395360Y-121367360D01*
X91428693Y-121300693D01*
X91428693Y-121234026D01*
X91395360Y-121167360D01*
X91362026Y-121134026D01*
X91295360Y-121100693D01*
X91162026Y-121067360D01*
X91095360Y-121034026D01*
X91062026Y-121000693D01*
X91028693Y-120934026D01*
X91028693Y-120867360D01*
X91062026Y-120800693D01*
X91095360Y-120767360D01*
X91162026Y-120734026D01*
X91328693Y-120734026D01*
X91428693Y-120767360D01*
X91728693Y-121067360D02*
X91962026Y-121067360D01*
X92062026Y-121434026D02*
X91728693Y-121434026D01*
X91728693Y-120734026D01*
X92062026Y-120734026D01*
X92262026Y-120734026D02*
X92662026Y-120734026D01*
X92462026Y-121434026D02*
X92462026Y-120734026D01*
X90333080Y-99984493D02*
X90299746Y-100051160D01*
X90299746Y-100151160D01*
X90333080Y-100251160D01*
X90399746Y-100317826D01*
X90466413Y-100351160D01*
X90599746Y-100384493D01*
X90699746Y-100384493D01*
X90833080Y-100351160D01*
X90899746Y-100317826D01*
X90966413Y-100251160D01*
X90999746Y-100151160D01*
X90999746Y-100084493D01*
X90966413Y-99984493D01*
X90933080Y-99951160D01*
X90699746Y-99951160D01*
X90699746Y-100084493D01*
X90999746Y-99651160D02*
X90299746Y-99651160D01*
X90999746Y-99251160D01*
X90299746Y-99251160D01*
X90999746Y-98917826D02*
X90299746Y-98917826D01*
X90299746Y-98751160D01*
X90333080Y-98651160D01*
X90399746Y-98584493D01*
X90466413Y-98551160D01*
X90599746Y-98517826D01*
X90699746Y-98517826D01*
X90833080Y-98551160D01*
X90899746Y-98584493D01*
X90966413Y-98651160D01*
X90999746Y-98751160D01*
X90999746Y-98917826D01*
X90999746Y-105502093D02*
X90299746Y-105502093D01*
X90299746Y-105335427D01*
X90333080Y-105235427D01*
X90399746Y-105168760D01*
X90466413Y-105135427D01*
X90599746Y-105102093D01*
X90699746Y-105102093D01*
X90833080Y-105135427D01*
X90899746Y-105168760D01*
X90966413Y-105235427D01*
X90999746Y-105335427D01*
X90999746Y-105502093D01*
X90999746Y-104802093D02*
X90299746Y-104802093D01*
X90299746Y-104335427D02*
X90299746Y-104202093D01*
X90333080Y-104135427D01*
X90399746Y-104068760D01*
X90533080Y-104035427D01*
X90766413Y-104035427D01*
X90899746Y-104068760D01*
X90966413Y-104135427D01*
X90999746Y-104202093D01*
X90999746Y-104335427D01*
X90966413Y-104402093D01*
X90899746Y-104468760D01*
X90766413Y-104502093D01*
X90533080Y-104502093D01*
X90399746Y-104468760D01*
X90333080Y-104402093D01*
X90299746Y-104335427D01*
X90933080Y-102626626D02*
X90966413Y-102659960D01*
X90999746Y-102759960D01*
X90999746Y-102826626D01*
X90966413Y-102926626D01*
X90899746Y-102993293D01*
X90833080Y-103026626D01*
X90699746Y-103059960D01*
X90599746Y-103059960D01*
X90466413Y-103026626D01*
X90399746Y-102993293D01*
X90333080Y-102926626D01*
X90299746Y-102826626D01*
X90299746Y-102759960D01*
X90333080Y-102659960D01*
X90366413Y-102626626D01*
X90999746Y-101993293D02*
X90999746Y-102326626D01*
X90299746Y-102326626D01*
X90999746Y-101759960D02*
X90299746Y-101759960D01*
X90999746Y-101359960D02*
X90599746Y-101659960D01*
X90299746Y-101359960D02*
X90699746Y-101759960D01*
X90299746Y-108477560D02*
X90299746Y-108044226D01*
X90566413Y-108277560D01*
X90566413Y-108177560D01*
X90599746Y-108110893D01*
X90633080Y-108077560D01*
X90699746Y-108044226D01*
X90866413Y-108044226D01*
X90933080Y-108077560D01*
X90966413Y-108110893D01*
X90999746Y-108177560D01*
X90999746Y-108377560D01*
X90966413Y-108444226D01*
X90933080Y-108477560D01*
X90933080Y-107744226D02*
X90966413Y-107710893D01*
X90999746Y-107744226D01*
X90966413Y-107777560D01*
X90933080Y-107744226D01*
X90999746Y-107744226D01*
X90299746Y-107477560D02*
X90299746Y-107044226D01*
X90566413Y-107277560D01*
X90566413Y-107177560D01*
X90599746Y-107110893D01*
X90633080Y-107077560D01*
X90699746Y-107044226D01*
X90866413Y-107044226D01*
X90933080Y-107077560D01*
X90966413Y-107110893D01*
X90999746Y-107177560D01*
X90999746Y-107377560D01*
X90966413Y-107444226D01*
X90933080Y-107477560D01*
X90533080Y-106810893D02*
X90999746Y-106644226D01*
X90533080Y-106477560D01*
D10*
X91110820Y-139402819D02*
X91920344Y-139402819D01*
X92015582Y-139355200D01*
X92063201Y-139307580D01*
X92110820Y-139212342D01*
X92110820Y-139021866D01*
X92063201Y-138926628D01*
X92015582Y-138879009D01*
X91920344Y-138831390D01*
X91110820Y-138831390D01*
X92063201Y-138402819D02*
X92110820Y-138259961D01*
X92110820Y-138021866D01*
X92063201Y-137926628D01*
X92015582Y-137879009D01*
X91920344Y-137831390D01*
X91825106Y-137831390D01*
X91729868Y-137879009D01*
X91682249Y-137926628D01*
X91634630Y-138021866D01*
X91587011Y-138212342D01*
X91539392Y-138307580D01*
X91491773Y-138355200D01*
X91396535Y-138402819D01*
X91301297Y-138402819D01*
X91206059Y-138355200D01*
X91158440Y-138307580D01*
X91110820Y-138212342D01*
X91110820Y-137974247D01*
X91158440Y-137831390D01*
X91825106Y-137450438D02*
X91825106Y-136974247D01*
X92110820Y-137545676D02*
X91110820Y-137212342D01*
X92110820Y-136879009D01*
X92110820Y-135974247D02*
X91634630Y-136307580D01*
X92110820Y-136545676D02*
X91110820Y-136545676D01*
X91110820Y-136164723D01*
X91158440Y-136069485D01*
X91206059Y-136021866D01*
X91301297Y-135974247D01*
X91444154Y-135974247D01*
X91539392Y-136021866D01*
X91587011Y-136069485D01*
X91634630Y-136164723D01*
X91634630Y-136545676D01*
X91110820Y-135688533D02*
X91110820Y-135117104D01*
X92110820Y-135402819D02*
X91110820Y-135402819D01*
X91206059Y-134831390D02*
X91158440Y-134783771D01*
X91110820Y-134688533D01*
X91110820Y-134450438D01*
X91158440Y-134355200D01*
X91206059Y-134307580D01*
X91301297Y-134259961D01*
X91396535Y-134259961D01*
X91539392Y-134307580D01*
X92110820Y-134879009D01*
X92110820Y-134259961D01*
D14*
X113538000Y-148475700D02*
X86664800Y-148475700D01*
D10*
X90072264Y-141116777D02*
X90072264Y-140621539D01*
X90377026Y-140888205D01*
X90377026Y-140773920D01*
X90415121Y-140697729D01*
X90453217Y-140659634D01*
X90529407Y-140621539D01*
X90719883Y-140621539D01*
X90796074Y-140659634D01*
X90834169Y-140697729D01*
X90872264Y-140773920D01*
X90872264Y-141002491D01*
X90834169Y-141078681D01*
X90796074Y-141116777D01*
X90796074Y-140278681D02*
X90834169Y-140240586D01*
X90872264Y-140278681D01*
X90834169Y-140316777D01*
X90796074Y-140278681D01*
X90872264Y-140278681D01*
X90072264Y-139973920D02*
X90072264Y-139478681D01*
X90377026Y-139745348D01*
X90377026Y-139631062D01*
X90415121Y-139554872D01*
X90453217Y-139516777D01*
X90529407Y-139478681D01*
X90719883Y-139478681D01*
X90796074Y-139516777D01*
X90834169Y-139554872D01*
X90872264Y-139631062D01*
X90872264Y-139859634D01*
X90834169Y-139935824D01*
X90796074Y-139973920D01*
X90872264Y-138069158D02*
X90491312Y-138335824D01*
X90872264Y-138526300D02*
X90072264Y-138526300D01*
X90072264Y-138221539D01*
X90110360Y-138145348D01*
X90148455Y-138107253D01*
X90224645Y-138069158D01*
X90338931Y-138069158D01*
X90415121Y-138107253D01*
X90453217Y-138145348D01*
X90491312Y-138221539D01*
X90491312Y-138526300D01*
X90072264Y-137802491D02*
X90872264Y-137269158D01*
X90072264Y-137269158D02*
X90872264Y-137802491D01*
X90072264Y-136469158D02*
X90072264Y-136012015D01*
X90872264Y-136240586D02*
X90072264Y-136240586D01*
X90072264Y-135821539D02*
X90872264Y-135288205D01*
X90072264Y-135288205D02*
X90872264Y-135821539D01*
X90110360Y-133954872D02*
X90072264Y-134031062D01*
X90072264Y-134145348D01*
X90110360Y-134259634D01*
X90186550Y-134335824D01*
X90262740Y-134373920D01*
X90415121Y-134412015D01*
X90529407Y-134412015D01*
X90681788Y-134373920D01*
X90757979Y-134335824D01*
X90834169Y-134259634D01*
X90872264Y-134145348D01*
X90872264Y-134069158D01*
X90834169Y-133954872D01*
X90796074Y-133916777D01*
X90529407Y-133916777D01*
X90529407Y-134069158D01*
X90338931Y-133573920D02*
X90872264Y-133573920D01*
X90415121Y-133573920D02*
X90377026Y-133535824D01*
X90338931Y-133459634D01*
X90338931Y-133345348D01*
X90377026Y-133269158D01*
X90453217Y-133231062D01*
X90872264Y-133231062D01*
X90872264Y-132507253D02*
X90072264Y-132507253D01*
X90834169Y-132507253D02*
X90872264Y-132583443D01*
X90872264Y-132735824D01*
X90834169Y-132812015D01*
X90796074Y-132850110D01*
X90719883Y-132888205D01*
X90491312Y-132888205D01*
X90415121Y-132850110D01*
X90377026Y-132812015D01*
X90338931Y-132735824D01*
X90338931Y-132583443D01*
X90377026Y-132507253D01*
D14*
X113538000Y-76314300D02*
X86664800Y-76314300D01*
X113538000Y-148475700D02*
X113538000Y-76314300D01*
X86664800Y-148475700D02*
X86664800Y-76314300D01*
D15*
X96905777Y-118907605D02*
X96977205Y-118693320D01*
X97048634Y-118621891D01*
X97191491Y-118550462D01*
X97405777Y-118550462D01*
X97548634Y-118621891D01*
X97620062Y-118693320D01*
X97691491Y-118836177D01*
X97691491Y-119407605D01*
X96191491Y-119407605D01*
X96191491Y-118907605D01*
X96262920Y-118764748D01*
X96334348Y-118693320D01*
X96477205Y-118621891D01*
X96620062Y-118621891D01*
X96762920Y-118693320D01*
X96834348Y-118764748D01*
X96905777Y-118907605D01*
X96905777Y-119407605D01*
X97691491Y-117693320D02*
X97620062Y-117836177D01*
X97477205Y-117907605D01*
X96191491Y-117907605D01*
X96691491Y-116479034D02*
X97691491Y-116479034D01*
X96691491Y-117121891D02*
X97477205Y-117121891D01*
X97620062Y-117050462D01*
X97691491Y-116907605D01*
X97691491Y-116693320D01*
X97620062Y-116550462D01*
X97548634Y-116479034D01*
X97620062Y-115193320D02*
X97691491Y-115336177D01*
X97691491Y-115621891D01*
X97620062Y-115764748D01*
X97477205Y-115836177D01*
X96905777Y-115836177D01*
X96762920Y-115764748D01*
X96691491Y-115621891D01*
X96691491Y-115336177D01*
X96762920Y-115193320D01*
X96905777Y-115121891D01*
X97048634Y-115121891D01*
X97191491Y-115836177D01*
X97620062Y-114550462D02*
X97691491Y-114336177D01*
X97691491Y-113979034D01*
X97620062Y-113836177D01*
X97548634Y-113764748D01*
X97405777Y-113693320D01*
X97262920Y-113693320D01*
X97120062Y-113764748D01*
X97048634Y-113836177D01*
X96977205Y-113979034D01*
X96905777Y-114264748D01*
X96834348Y-114407605D01*
X96762920Y-114479034D01*
X96620062Y-114550462D01*
X96477205Y-114550462D01*
X96334348Y-114479034D01*
X96262920Y-114407605D01*
X96191491Y-114264748D01*
X96191491Y-113907605D01*
X96262920Y-113693320D01*
X97548634Y-112193320D02*
X97620062Y-112264748D01*
X97691491Y-112479034D01*
X97691491Y-112621891D01*
X97620062Y-112836177D01*
X97477205Y-112979034D01*
X97334348Y-113050462D01*
X97048634Y-113121891D01*
X96834348Y-113121891D01*
X96548634Y-113050462D01*
X96405777Y-112979034D01*
X96262920Y-112836177D01*
X96191491Y-112621891D01*
X96191491Y-112479034D01*
X96262920Y-112264748D01*
X96334348Y-112193320D01*
X97620062Y-111621891D02*
X97691491Y-111407605D01*
X97691491Y-111050462D01*
X97620062Y-110907605D01*
X97548634Y-110836177D01*
X97405777Y-110764748D01*
X97262920Y-110764748D01*
X97120062Y-110836177D01*
X97048634Y-110907605D01*
X96977205Y-111050462D01*
X96905777Y-111336177D01*
X96834348Y-111479034D01*
X96762920Y-111550462D01*
X96620062Y-111621891D01*
X96477205Y-111621891D01*
X96334348Y-111550462D01*
X96262920Y-111479034D01*
X96191491Y-111336177D01*
X96191491Y-110979034D01*
X96262920Y-110764748D01*
X97691491Y-110121891D02*
X96191491Y-110121891D01*
X99812920Y-120336177D02*
X99812920Y-119621891D01*
X100241491Y-120479034D02*
X98741491Y-119979034D01*
X100241491Y-119479034D01*
X100241491Y-118764748D02*
X100170062Y-118907605D01*
X100027205Y-118979034D01*
X98741491Y-118979034D01*
X100241491Y-117979034D02*
X100170062Y-118121891D01*
X100027205Y-118193320D01*
X98741491Y-118193320D01*
X99670062Y-117407605D02*
X99670062Y-116264748D01*
X100241491Y-115550462D02*
X98741491Y-115550462D01*
X99241491Y-114836177D02*
X100241491Y-114836177D01*
X99384348Y-114836177D02*
X99312920Y-114764748D01*
X99241491Y-114621891D01*
X99241491Y-114407605D01*
X99312920Y-114264748D01*
X99455777Y-114193320D01*
X100241491Y-114193320D01*
X99670062Y-113479034D02*
X99670062Y-112336177D01*
X98741491Y-111336177D02*
X98741491Y-111050462D01*
X98812920Y-110907605D01*
X98955777Y-110764748D01*
X99241491Y-110693320D01*
X99741491Y-110693320D01*
X100027205Y-110764748D01*
X100170062Y-110907605D01*
X100241491Y-111050462D01*
X100241491Y-111336177D01*
X100170062Y-111479034D01*
X100027205Y-111621891D01*
X99741491Y-111693320D01*
X99241491Y-111693320D01*
X98955777Y-111621891D01*
X98812920Y-111479034D01*
X98741491Y-111336177D01*
X99241491Y-110050462D02*
X100241491Y-110050462D01*
X99384348Y-110050462D02*
X99312920Y-109979034D01*
X99241491Y-109836177D01*
X99241491Y-109621891D01*
X99312920Y-109479034D01*
X99455777Y-109407605D01*
X100241491Y-109407605D01*
X100170062Y-108121891D02*
X100241491Y-108264748D01*
X100241491Y-108550462D01*
X100170062Y-108693320D01*
X100027205Y-108764748D01*
X99455777Y-108764748D01*
X99312920Y-108693320D01*
X99241491Y-108550462D01*
X99241491Y-108264748D01*
X99312920Y-108121891D01*
X99455777Y-108050462D01*
X99598634Y-108050462D01*
X99741491Y-108764748D01*
X101791491Y-116336177D02*
X102791491Y-115979034D01*
X101791491Y-115621891D01*
X102791491Y-114264748D02*
X102791491Y-115121891D01*
X102791491Y-114693320D02*
X101291491Y-114693320D01*
X101505777Y-114836177D01*
X101648634Y-114979034D01*
X101720062Y-115121891D01*
X102648634Y-113621891D02*
X102720062Y-113550462D01*
X102791491Y-113621891D01*
X102720062Y-113693320D01*
X102648634Y-113621891D01*
X102791491Y-113621891D01*
X101291491Y-112621891D02*
X101291491Y-112479034D01*
X101362920Y-112336177D01*
X101434348Y-112264748D01*
X101577205Y-112193320D01*
X101862920Y-112121891D01*
X102220062Y-112121891D01*
X102505777Y-112193320D01*
X102648634Y-112264748D01*
X102720062Y-112336177D01*
X102791491Y-112479034D01*
X102791491Y-112621891D01*
X102720062Y-112764748D01*
X102648634Y-112836177D01*
X102505777Y-112907605D01*
X102220062Y-112979034D01*
X101862920Y-112979034D01*
X101577205Y-112907605D01*
X101434348Y-112836177D01*
X101362920Y-112764748D01*
X101291491Y-112621891D01*
D16*
%TO.C,G\u002A\u002A\u002A*%
G36*
X97425934Y-123130734D02*
G01*
X97425934Y-123333934D01*
X97629134Y-123333934D01*
X97629134Y-123518584D01*
X97734967Y-123523625D01*
X97840801Y-123528667D01*
X97845853Y-123625177D01*
X97850906Y-123721687D01*
X97938987Y-123726777D01*
X98027067Y-123731867D01*
X98031822Y-123939300D01*
X98036576Y-124146734D01*
X98441934Y-124146734D01*
X98441872Y-124358400D01*
X98653601Y-124358400D01*
X98658371Y-124557367D01*
X98663142Y-124756334D01*
X99050491Y-124756334D01*
X99060001Y-125171200D01*
X99267434Y-125175955D01*
X99474867Y-125180709D01*
X99474867Y-126415800D01*
X99051534Y-126415800D01*
X99051534Y-126839133D01*
X98865267Y-126839133D01*
X98865267Y-127025400D01*
X98662067Y-127025400D01*
X98662067Y-127855134D01*
X98442092Y-127855134D01*
X98437780Y-126106767D01*
X98433467Y-124358400D01*
X98234500Y-124353629D01*
X98035534Y-124348859D01*
X98035534Y-124146734D01*
X97849267Y-124146734D01*
X97849267Y-123723400D01*
X97629134Y-123723400D01*
X97629134Y-123520200D01*
X97425934Y-123520200D01*
X97425934Y-123334681D01*
X96790934Y-123325467D01*
X96785880Y-123228929D01*
X96780827Y-123132392D01*
X96887480Y-123127329D01*
X96994134Y-123122267D01*
X97002601Y-123020667D01*
X97011067Y-122919067D01*
X97726501Y-122914650D01*
X98441934Y-122910233D01*
X98441934Y-123130734D01*
X97425934Y-123130734D01*
G37*
X97425934Y-123130734D02*
X97425934Y-123333934D01*
X97629134Y-123333934D01*
X97629134Y-123518584D01*
X97734967Y-123523625D01*
X97840801Y-123528667D01*
X97845853Y-123625177D01*
X97850906Y-123721687D01*
X97938987Y-123726777D01*
X98027067Y-123731867D01*
X98031822Y-123939300D01*
X98036576Y-124146734D01*
X98441934Y-124146734D01*
X98441872Y-124358400D01*
X98653601Y-124358400D01*
X98658371Y-124557367D01*
X98663142Y-124756334D01*
X99050491Y-124756334D01*
X99060001Y-125171200D01*
X99267434Y-125175955D01*
X99474867Y-125180709D01*
X99474867Y-126415800D01*
X99051534Y-126415800D01*
X99051534Y-126839133D01*
X98865267Y-126839133D01*
X98865267Y-127025400D01*
X98662067Y-127025400D01*
X98662067Y-127855134D01*
X98442092Y-127855134D01*
X98437780Y-126106767D01*
X98433467Y-124358400D01*
X98234500Y-124353629D01*
X98035534Y-124348859D01*
X98035534Y-124146734D01*
X97849267Y-124146734D01*
X97849267Y-123723400D01*
X97629134Y-123723400D01*
X97629134Y-123520200D01*
X97425934Y-123520200D01*
X97425934Y-123334681D01*
X96790934Y-123325467D01*
X96785880Y-123228929D01*
X96780827Y-123132392D01*
X96887480Y-123127329D01*
X96994134Y-123122267D01*
X97002601Y-123020667D01*
X97011067Y-122919067D01*
X97726501Y-122914650D01*
X98441934Y-122910233D01*
X98441934Y-123130734D01*
X97425934Y-123130734D01*
G36*
X96782467Y-128888067D02*
G01*
X96782467Y-129089651D01*
X96888300Y-129094692D01*
X96994134Y-129099733D01*
X97003382Y-129700867D01*
X96596201Y-129700867D01*
X96596201Y-129497667D01*
X96782467Y-129497667D01*
X96782467Y-129091267D01*
X96596201Y-129091267D01*
X96596201Y-128888067D01*
X96782467Y-128888067D01*
G37*
X96782467Y-128888067D02*
X96782467Y-129089651D01*
X96888300Y-129094692D01*
X96994134Y-129099733D01*
X97003382Y-129700867D01*
X96596201Y-129700867D01*
X96596201Y-129497667D01*
X96782467Y-129497667D01*
X96782467Y-129091267D01*
X96596201Y-129091267D01*
X96596201Y-128888067D01*
X96782467Y-128888067D01*
G36*
X97629134Y-130733800D02*
G01*
X97629196Y-130522134D01*
X97425934Y-130533608D01*
X97425934Y-130310467D01*
X96596201Y-130310467D01*
X96596201Y-130124200D01*
X96393001Y-130124200D01*
X96393001Y-129700867D01*
X96596201Y-129700867D01*
X96596201Y-130123598D01*
X97006834Y-130128132D01*
X97417467Y-130132667D01*
X97422585Y-130221567D01*
X97427704Y-130310467D01*
X97627518Y-130310467D01*
X97632559Y-130416300D01*
X97637601Y-130522134D01*
X97849267Y-130532216D01*
X97849267Y-130733800D01*
X97629134Y-130733800D01*
G37*
X97629134Y-130733800D02*
X97629196Y-130522134D01*
X97425934Y-130533608D01*
X97425934Y-130310467D01*
X96596201Y-130310467D01*
X96596201Y-130124200D01*
X96393001Y-130124200D01*
X96393001Y-129700867D01*
X96596201Y-129700867D01*
X96596201Y-130123598D01*
X97006834Y-130128132D01*
X97417467Y-130132667D01*
X97422585Y-130221567D01*
X97427704Y-130310467D01*
X97627518Y-130310467D01*
X97632559Y-130416300D01*
X97637601Y-130522134D01*
X97849267Y-130532216D01*
X97849267Y-130733800D01*
X97629134Y-130733800D01*
G36*
X102167267Y-124756334D02*
G01*
X102167267Y-124570067D01*
X101523801Y-124570067D01*
X101524060Y-124481167D01*
X101526687Y-124426396D01*
X101533114Y-124384244D01*
X101538008Y-124370697D01*
X101551604Y-124362635D01*
X101582999Y-124357063D01*
X101635950Y-124353782D01*
X101714218Y-124352591D01*
X101821561Y-124353289D01*
X101855249Y-124353764D01*
X102158801Y-124358400D01*
X102163842Y-124464234D01*
X102168883Y-124570067D01*
X102556734Y-124570067D01*
X102556734Y-124756334D01*
X102167267Y-124756334D01*
G37*
X102167267Y-124756334D02*
X102167267Y-124570067D01*
X101523801Y-124570067D01*
X101524060Y-124481167D01*
X101526687Y-124426396D01*
X101533114Y-124384244D01*
X101538008Y-124370697D01*
X101551604Y-124362635D01*
X101582999Y-124357063D01*
X101635950Y-124353782D01*
X101714218Y-124352591D01*
X101821561Y-124353289D01*
X101855249Y-124353764D01*
X102158801Y-124358400D01*
X102163842Y-124464234D01*
X102168883Y-124570067D01*
X102556734Y-124570067D01*
X102556734Y-124756334D01*
X102167267Y-124756334D01*
G36*
X102759934Y-123723400D02*
G01*
X102759934Y-124145117D01*
X102865767Y-124150159D01*
X102971600Y-124155200D01*
X102971600Y-124747867D01*
X102865767Y-124752908D01*
X102759934Y-124757950D01*
X102759934Y-125179667D01*
X102556734Y-125179667D01*
X102556734Y-124756334D01*
X102759934Y-124756334D01*
X102759934Y-124146734D01*
X102556734Y-124146734D01*
X102556734Y-123723400D01*
X102759934Y-123723400D01*
G37*
X102759934Y-123723400D02*
X102759934Y-124145117D01*
X102865767Y-124150159D01*
X102971600Y-124155200D01*
X102971600Y-124747867D01*
X102865767Y-124752908D01*
X102759934Y-124757950D01*
X102759934Y-125179667D01*
X102556734Y-125179667D01*
X102556734Y-124756334D01*
X102759934Y-124756334D01*
X102759934Y-124146734D01*
X102556734Y-124146734D01*
X102556734Y-123723400D01*
X102759934Y-123723400D01*
G36*
X102556734Y-123520200D02*
G01*
X102556734Y-123723400D01*
X102167267Y-123723400D01*
X102167267Y-123520200D01*
X102556734Y-123520200D01*
G37*
X102556734Y-123520200D02*
X102556734Y-123723400D01*
X102167267Y-123723400D01*
X102167267Y-123520200D01*
X102556734Y-123520200D01*
G36*
X100507800Y-123333934D02*
G01*
X102167267Y-123333934D01*
X102167267Y-123520200D01*
X100507800Y-123520200D01*
X100507800Y-123333934D01*
G37*
X100507800Y-123333934D02*
X102167267Y-123333934D01*
X102167267Y-123520200D01*
X100507800Y-123520200D01*
X100507800Y-123333934D01*
G36*
X100507800Y-123520200D02*
G01*
X100507800Y-123723400D01*
X99051534Y-123723400D01*
X99051534Y-123520200D01*
X100507800Y-123520200D01*
G37*
X100507800Y-123520200D02*
X100507800Y-123723400D01*
X99051534Y-123723400D01*
X99051534Y-123520200D01*
X100507800Y-123520200D01*
G36*
X99051534Y-123333934D02*
G01*
X99051534Y-123520200D01*
X98662067Y-123520200D01*
X98662067Y-123333934D01*
X99051534Y-123333934D01*
G37*
X99051534Y-123333934D02*
X99051534Y-123520200D01*
X98662067Y-123520200D01*
X98662067Y-123333934D01*
X99051534Y-123333934D01*
G36*
X98662067Y-123130734D02*
G01*
X98662067Y-123333934D01*
X98441934Y-123333934D01*
X98441934Y-123130734D01*
X98662067Y-123130734D01*
G37*
X98662067Y-123130734D02*
X98662067Y-123333934D01*
X98441934Y-123333934D01*
X98441934Y-123130734D01*
X98662067Y-123130734D01*
G36*
X98035534Y-127855134D02*
G01*
X98441934Y-127855134D01*
X98441934Y-128261533D01*
X98035534Y-128261533D01*
X98035534Y-127855134D01*
G37*
X98035534Y-127855134D02*
X98441934Y-127855134D01*
X98441934Y-128261533D01*
X98035534Y-128261533D01*
X98035534Y-127855134D01*
G36*
X100914201Y-128261533D02*
G01*
X100914201Y-128060024D01*
X100816834Y-128054945D01*
X100719467Y-128049867D01*
X100710809Y-125179667D01*
X100913158Y-125179667D01*
X100917913Y-124972233D01*
X100922667Y-124764800D01*
X101028501Y-124759759D01*
X101134334Y-124754717D01*
X101134334Y-124570067D01*
X101523801Y-124570067D01*
X101523801Y-124756334D01*
X101134334Y-124756334D01*
X101134334Y-125179667D01*
X100914201Y-125179667D01*
X100914201Y-128058334D01*
X102167267Y-128058334D01*
X102167267Y-128261533D01*
X100914201Y-128261533D01*
G37*
X100914201Y-128261533D02*
X100914201Y-128060024D01*
X100816834Y-128054945D01*
X100719467Y-128049867D01*
X100710809Y-125179667D01*
X100913158Y-125179667D01*
X100917913Y-124972233D01*
X100922667Y-124764800D01*
X101028501Y-124759759D01*
X101134334Y-124754717D01*
X101134334Y-124570067D01*
X101523801Y-124570067D01*
X101523801Y-124756334D01*
X101134334Y-124756334D01*
X101134334Y-125179667D01*
X100914201Y-125179667D01*
X100914201Y-128058334D01*
X102167267Y-128058334D01*
X102167267Y-128261533D01*
X100914201Y-128261533D01*
G36*
X102167267Y-128464733D02*
G01*
X102167267Y-128261533D01*
X102556734Y-128261533D01*
X102556734Y-128464733D01*
X102167267Y-128464733D01*
G37*
X102167267Y-128464733D02*
X102167267Y-128261533D01*
X102556734Y-128261533D01*
X102556734Y-128464733D01*
X102167267Y-128464733D01*
G36*
X102759934Y-128888067D02*
G01*
X102556734Y-128888067D01*
X102556734Y-128464733D01*
X102759934Y-128464733D01*
X102759934Y-128886451D01*
X102971600Y-128896533D01*
X102976220Y-129185425D01*
X102977087Y-129281113D01*
X102976587Y-129364804D01*
X102974857Y-129430713D01*
X102972033Y-129473055D01*
X102969164Y-129485992D01*
X102947101Y-129492298D01*
X102902102Y-129496537D01*
X102858712Y-129497667D01*
X102759934Y-129497667D01*
X102759934Y-128888067D01*
G37*
X102759934Y-128888067D02*
X102556734Y-128888067D01*
X102556734Y-128464733D01*
X102759934Y-128464733D01*
X102759934Y-128886451D01*
X102971600Y-128896533D01*
X102976220Y-129185425D01*
X102977087Y-129281113D01*
X102976587Y-129364804D01*
X102974857Y-129430713D01*
X102972033Y-129473055D01*
X102969164Y-129485992D01*
X102947101Y-129492298D01*
X102902102Y-129496537D01*
X102858712Y-129497667D01*
X102759934Y-129497667D01*
X102759934Y-128888067D01*
G36*
X102759934Y-129497667D02*
G01*
X102759934Y-129700867D01*
X102556734Y-129700867D01*
X102556734Y-129497667D01*
X102759934Y-129497667D01*
G37*
X102759934Y-129497667D02*
X102759934Y-129700867D01*
X102556734Y-129700867D01*
X102556734Y-129497667D01*
X102759934Y-129497667D01*
G36*
X98662067Y-129497667D02*
G01*
X98863651Y-129497667D01*
X98868692Y-129391834D01*
X98873734Y-129286000D01*
X99174301Y-129281376D01*
X99474867Y-129276752D01*
X99474867Y-128889683D01*
X99580701Y-128884642D01*
X99686534Y-128879600D01*
X99691288Y-128672167D01*
X99696043Y-128464733D01*
X100507800Y-128464733D01*
X100507800Y-128888067D01*
X100711001Y-128888067D01*
X100711001Y-129090903D01*
X102158801Y-129099733D01*
X102163919Y-129188633D01*
X102169037Y-129277534D01*
X102556734Y-129277534D01*
X102556734Y-129497667D01*
X102167267Y-129497667D01*
X102167267Y-129277534D01*
X99476483Y-129277534D01*
X99466401Y-129489200D01*
X98865267Y-129498448D01*
X98865267Y-131157133D01*
X98662067Y-131157133D01*
X98662067Y-129497667D01*
G37*
X98662067Y-129497667D02*
X98863651Y-129497667D01*
X98868692Y-129391834D01*
X98873734Y-129286000D01*
X99174301Y-129281376D01*
X99474867Y-129276752D01*
X99474867Y-128889683D01*
X99580701Y-128884642D01*
X99686534Y-128879600D01*
X99691288Y-128672167D01*
X99696043Y-128464733D01*
X100507800Y-128464733D01*
X100507800Y-128888067D01*
X100711001Y-128888067D01*
X100711001Y-129090903D01*
X102158801Y-129099733D01*
X102163919Y-129188633D01*
X102169037Y-129277534D01*
X102556734Y-129277534D01*
X102556734Y-129497667D01*
X102167267Y-129497667D01*
X102167267Y-129277534D01*
X99476483Y-129277534D01*
X99466401Y-129489200D01*
X98865267Y-129498448D01*
X98865267Y-131157133D01*
X98662067Y-131157133D01*
X98662067Y-129497667D01*
G36*
X98662067Y-131157133D02*
G01*
X98662067Y-131360333D01*
X98035534Y-131360333D01*
X98035534Y-131157133D01*
X98662067Y-131157133D01*
G37*
X98662067Y-131157133D02*
X98662067Y-131360333D01*
X98035534Y-131360333D01*
X98035534Y-131157133D01*
X98662067Y-131157133D01*
G36*
X98035534Y-130733800D02*
G01*
X98035534Y-131157133D01*
X97849267Y-131157133D01*
X97849267Y-130733800D01*
X98035534Y-130733800D01*
G37*
X98035534Y-130733800D02*
X98035534Y-131157133D01*
X97849267Y-131157133D01*
X97849267Y-130733800D01*
X98035534Y-130733800D01*
G36*
X96596201Y-128464733D02*
G01*
X96596201Y-128888067D01*
X96393001Y-128888067D01*
X96393001Y-128261533D01*
X97002601Y-128261533D01*
X97002601Y-128464733D01*
X96596201Y-128464733D01*
G37*
X96596201Y-128464733D02*
X96596201Y-128888067D01*
X96393001Y-128888067D01*
X96393001Y-128261533D01*
X97002601Y-128261533D01*
X97002601Y-128464733D01*
X96596201Y-128464733D01*
G36*
X98035534Y-128464733D02*
G01*
X97850310Y-128464733D01*
X97845555Y-128672167D01*
X97840801Y-128879600D01*
X97421700Y-128884129D01*
X97002601Y-128888658D01*
X97002601Y-128464733D01*
X97849267Y-128464733D01*
X97849267Y-128261533D01*
X98035534Y-128261533D01*
X98035534Y-128464733D01*
G37*
X98035534Y-128464733D02*
X97850310Y-128464733D01*
X97845555Y-128672167D01*
X97840801Y-128879600D01*
X97421700Y-128884129D01*
X97002601Y-128888658D01*
X97002601Y-128464733D01*
X97849267Y-128464733D01*
X97849267Y-128261533D01*
X98035534Y-128261533D01*
X98035534Y-128464733D01*
G36*
X97629134Y-129497667D02*
G01*
X97629134Y-129700867D01*
X97425934Y-129700867D01*
X97425934Y-129497667D01*
X97629134Y-129497667D01*
G37*
X97629134Y-129497667D02*
X97629134Y-129700867D01*
X97425934Y-129700867D01*
X97425934Y-129497667D01*
X97629134Y-129497667D01*
G36*
X99487182Y-103297182D02*
G01*
X99487182Y-103435727D01*
X99187000Y-103435727D01*
X99187000Y-103297182D01*
X99487182Y-103297182D01*
G37*
X99487182Y-103297182D02*
X99487182Y-103435727D01*
X99187000Y-103435727D01*
X99187000Y-103297182D01*
X99487182Y-103297182D01*
G36*
X99487182Y-104290091D02*
G01*
X99487182Y-104451727D01*
X99187000Y-104451727D01*
X99187000Y-104290091D01*
X99487182Y-104290091D01*
G37*
X99487182Y-104290091D02*
X99487182Y-104451727D01*
X99187000Y-104451727D01*
X99187000Y-104290091D01*
X99487182Y-104290091D01*
G36*
X99902818Y-103712818D02*
G01*
X99902818Y-104013000D01*
X99833546Y-104013000D01*
X99784480Y-104007278D01*
X99766395Y-103980289D01*
X99764273Y-103943727D01*
X99764273Y-103874454D01*
X99187000Y-103874454D01*
X99187000Y-103712818D01*
X99902818Y-103712818D01*
G37*
X99902818Y-103712818D02*
X99902818Y-104013000D01*
X99833546Y-104013000D01*
X99784480Y-104007278D01*
X99766395Y-103980289D01*
X99764273Y-103943727D01*
X99764273Y-103874454D01*
X99187000Y-103874454D01*
X99187000Y-103712818D01*
X99902818Y-103712818D01*
G36*
X100070176Y-103455934D02*
G01*
X100097165Y-103437849D01*
X100133727Y-103435727D01*
X100182793Y-103441449D01*
X100200878Y-103468438D01*
X100203000Y-103505000D01*
X100208722Y-103554066D01*
X100235711Y-103572150D01*
X100272273Y-103574273D01*
X100341546Y-103574273D01*
X100341546Y-104151545D01*
X100272273Y-104151545D01*
X100223207Y-104157267D01*
X100205122Y-104184256D01*
X100203000Y-104220818D01*
X100197278Y-104269884D01*
X100170289Y-104287969D01*
X100133727Y-104290091D01*
X100084661Y-104284369D01*
X100066577Y-104257380D01*
X100064455Y-104220818D01*
X100070176Y-104171752D01*
X100097165Y-104153668D01*
X100133727Y-104151545D01*
X100203000Y-104151545D01*
X100203000Y-103574273D01*
X100133727Y-103574273D01*
X100084661Y-103568551D01*
X100066577Y-103541562D01*
X100064455Y-103505000D01*
X100070176Y-103455934D01*
G37*
X100070176Y-103455934D02*
X100097165Y-103437849D01*
X100133727Y-103435727D01*
X100182793Y-103441449D01*
X100200878Y-103468438D01*
X100203000Y-103505000D01*
X100208722Y-103554066D01*
X100235711Y-103572150D01*
X100272273Y-103574273D01*
X100341546Y-103574273D01*
X100341546Y-104151545D01*
X100272273Y-104151545D01*
X100223207Y-104157267D01*
X100205122Y-104184256D01*
X100203000Y-104220818D01*
X100197278Y-104269884D01*
X100170289Y-104287969D01*
X100133727Y-104290091D01*
X100084661Y-104284369D01*
X100066577Y-104257380D01*
X100064455Y-104220818D01*
X100070176Y-104171752D01*
X100097165Y-104153668D01*
X100133727Y-104151545D01*
X100203000Y-104151545D01*
X100203000Y-103574273D01*
X100133727Y-103574273D01*
X100084661Y-103568551D01*
X100066577Y-103541562D01*
X100064455Y-103505000D01*
X100070176Y-103455934D01*
G36*
X98679000Y-102558273D02*
G01*
X98728066Y-102552551D01*
X98746151Y-102525562D01*
X98748273Y-102489000D01*
X98748273Y-102419727D01*
X100641727Y-102419727D01*
X100641727Y-102489000D01*
X100647449Y-102538066D01*
X100674438Y-102556150D01*
X100711000Y-102558273D01*
X100780273Y-102558273D01*
X100780273Y-105029000D01*
X100711000Y-105029000D01*
X100661934Y-105034722D01*
X100643850Y-105061711D01*
X100641727Y-105098273D01*
X100641727Y-105167545D01*
X98748273Y-105167545D01*
X98748273Y-105098273D01*
X98748273Y-105029000D01*
X100641727Y-105029000D01*
X100641727Y-102558273D01*
X98748273Y-102558273D01*
X98748273Y-105029000D01*
X98748273Y-105098273D01*
X98742551Y-105049207D01*
X98715562Y-105031122D01*
X98679000Y-105029000D01*
X98609727Y-105029000D01*
X98609727Y-102558273D01*
X98679000Y-102558273D01*
G37*
X98679000Y-102558273D02*
X98728066Y-102552551D01*
X98746151Y-102525562D01*
X98748273Y-102489000D01*
X98748273Y-102419727D01*
X100641727Y-102419727D01*
X100641727Y-102489000D01*
X100647449Y-102538066D01*
X100674438Y-102556150D01*
X100711000Y-102558273D01*
X100780273Y-102558273D01*
X100780273Y-105029000D01*
X100711000Y-105029000D01*
X100661934Y-105034722D01*
X100643850Y-105061711D01*
X100641727Y-105098273D01*
X100641727Y-105167545D01*
X98748273Y-105167545D01*
X98748273Y-105098273D01*
X98748273Y-105029000D01*
X100641727Y-105029000D01*
X100641727Y-102558273D01*
X98748273Y-102558273D01*
X98748273Y-105029000D01*
X98748273Y-105098273D01*
X98742551Y-105049207D01*
X98715562Y-105031122D01*
X98679000Y-105029000D01*
X98609727Y-105029000D01*
X98609727Y-102558273D01*
X98679000Y-102558273D01*
G36*
X101496091Y-102558273D02*
G01*
X101496091Y-103435727D01*
X101357546Y-103435727D01*
X101357546Y-102558273D01*
X101496091Y-102558273D01*
G37*
X101496091Y-102558273D02*
X101496091Y-103435727D01*
X101357546Y-103435727D01*
X101357546Y-102558273D01*
X101496091Y-102558273D01*
G36*
X101634636Y-104867364D02*
G01*
X101634636Y-105167545D01*
X101496091Y-105167545D01*
X101496091Y-104867364D01*
X101634636Y-104867364D01*
G37*
X101634636Y-104867364D02*
X101634636Y-105167545D01*
X101496091Y-105167545D01*
X101496091Y-104867364D01*
X101634636Y-104867364D01*
G36*
X98251818Y-102281182D02*
G01*
X98306117Y-102277320D01*
X98328388Y-102257733D01*
X98332636Y-102211909D01*
X98338358Y-102162843D01*
X98365347Y-102144759D01*
X98401909Y-102142636D01*
X98448451Y-102138131D01*
X98467540Y-102115279D01*
X98471182Y-102061818D01*
X98471182Y-101981000D01*
X102073364Y-101981000D01*
X102073364Y-102142636D01*
X102789182Y-102142636D01*
X102789182Y-105444636D01*
X102211909Y-105444636D01*
X102211909Y-105306091D01*
X102650636Y-105306091D01*
X102650636Y-102281182D01*
X102211909Y-102281182D01*
X102211909Y-105306091D01*
X102211909Y-105444636D01*
X102073364Y-105444636D01*
X102073364Y-105606273D01*
X98471182Y-105606273D01*
X98471182Y-105525454D01*
X98471182Y-105444636D01*
X102073364Y-105444636D01*
X102073364Y-102142636D01*
X98471182Y-102142636D01*
X98471182Y-102211909D01*
X98465460Y-102260975D01*
X98438471Y-102279060D01*
X98401909Y-102281182D01*
X98332636Y-102281182D01*
X98332636Y-105306091D01*
X98401909Y-105306091D01*
X98450975Y-105311812D01*
X98469060Y-105338802D01*
X98471182Y-105375364D01*
X98471182Y-105444636D01*
X98471182Y-105525454D01*
X98467320Y-105471156D01*
X98447733Y-105448885D01*
X98401909Y-105444636D01*
X98352843Y-105438915D01*
X98334759Y-105411925D01*
X98332636Y-105375364D01*
X98328131Y-105328822D01*
X98305279Y-105309732D01*
X98251818Y-105306091D01*
X98171000Y-105306091D01*
X98171000Y-102281182D01*
X98251818Y-102281182D01*
G37*
X98251818Y-102281182D02*
X98306117Y-102277320D01*
X98328388Y-102257733D01*
X98332636Y-102211909D01*
X98338358Y-102162843D01*
X98365347Y-102144759D01*
X98401909Y-102142636D01*
X98448451Y-102138131D01*
X98467540Y-102115279D01*
X98471182Y-102061818D01*
X98471182Y-101981000D01*
X102073364Y-101981000D01*
X102073364Y-102142636D01*
X102789182Y-102142636D01*
X102789182Y-105444636D01*
X102211909Y-105444636D01*
X102211909Y-105306091D01*
X102650636Y-105306091D01*
X102650636Y-102281182D01*
X102211909Y-102281182D01*
X102211909Y-105306091D01*
X102211909Y-105444636D01*
X102073364Y-105444636D01*
X102073364Y-105606273D01*
X98471182Y-105606273D01*
X98471182Y-105525454D01*
X98471182Y-105444636D01*
X102073364Y-105444636D01*
X102073364Y-102142636D01*
X98471182Y-102142636D01*
X98471182Y-102211909D01*
X98465460Y-102260975D01*
X98438471Y-102279060D01*
X98401909Y-102281182D01*
X98332636Y-102281182D01*
X98332636Y-105306091D01*
X98401909Y-105306091D01*
X98450975Y-105311812D01*
X98469060Y-105338802D01*
X98471182Y-105375364D01*
X98471182Y-105444636D01*
X98471182Y-105525454D01*
X98467320Y-105471156D01*
X98447733Y-105448885D01*
X98401909Y-105444636D01*
X98352843Y-105438915D01*
X98334759Y-105411925D01*
X98332636Y-105375364D01*
X98328131Y-105328822D01*
X98305279Y-105309732D01*
X98251818Y-105306091D01*
X98171000Y-105306091D01*
X98171000Y-102281182D01*
X98251818Y-102281182D01*
D12*
%TO.C,J1*%
X87138200Y-145409920D02*
X87138200Y-142809920D01*
X87138200Y-142809920D02*
X92338200Y-142809920D01*
X89738200Y-148009920D02*
X92338200Y-148009920D01*
X92338200Y-148009920D02*
X92338200Y-142809920D01*
X89738200Y-148009920D02*
X87198200Y-148009920D01*
X87138200Y-145409920D02*
X87138200Y-148009920D01*
X89738200Y-148009920D02*
X89738200Y-142869920D01*
D10*
%TO.C,J3*%
X97527800Y-145536400D02*
X96802800Y-145536400D01*
X96802800Y-145536400D02*
X96802800Y-145961400D01*
X96802800Y-145961400D02*
X95802800Y-145961400D01*
X100402800Y-145961400D02*
X101402800Y-145961400D01*
D12*
%TO.C,TP14*%
X89306440Y-119893080D02*
G75*
G03*
X89306440Y-119893080I-950000J0D01*
G01*
%TO.C,J5*%
X104025000Y-76705000D02*
X113145000Y-76705000D01*
X113145000Y-76705000D02*
X113145000Y-148085000D01*
X113145000Y-148085000D02*
X104025000Y-148085000D01*
X104025000Y-148085000D02*
X104025000Y-76705000D01*
X104025000Y-110345000D02*
X105335000Y-110345000D01*
X105335000Y-110345000D02*
X105335000Y-78005000D01*
X105335000Y-78005000D02*
X111835000Y-78005000D01*
X111835000Y-78005000D02*
X111835000Y-146785000D01*
X111835000Y-146785000D02*
X105335000Y-146785000D01*
X105335000Y-146785000D02*
X105335000Y-114445000D01*
X105335000Y-114445000D02*
X105335000Y-114445000D01*
X105335000Y-114445000D02*
X104025000Y-114445000D01*
X103635000Y-81915000D02*
X102635000Y-81415000D01*
X102635000Y-81415000D02*
X102635000Y-82415000D01*
X102635000Y-82415000D02*
X103635000Y-81915000D01*
%TO.C,SW1*%
X91277700Y-122764600D02*
X89777700Y-122764600D01*
X87277700Y-124014600D02*
X87277700Y-128514600D01*
X89777700Y-129764600D02*
X91277700Y-129764600D01*
X93777700Y-128514600D02*
X93777700Y-124014600D01*
%TO.C,TP5*%
X95570080Y-138303000D02*
G75*
G03*
X95570080Y-138303000I-950000J0D01*
G01*
%TO.C,TP4*%
X89651880Y-109870240D02*
G75*
G03*
X89651880Y-109870240I-950000J0D01*
G01*
%TO.C,TP3*%
X95571350Y-134086600D02*
G75*
G03*
X95571350Y-134086600I-950000J0D01*
G01*
%TO.C,TP2*%
X98460600Y-134086600D02*
G75*
G03*
X98460600Y-134086600I-950000J0D01*
G01*
%TO.C,J8*%
X89912500Y-141715800D02*
X88582500Y-141715800D01*
X89912500Y-140385800D02*
X89912500Y-141715800D01*
X89912500Y-139115800D02*
X87252500Y-139115800D01*
X87252500Y-139115800D02*
X87252500Y-131435800D01*
X89912500Y-139115800D02*
X89912500Y-131435800D01*
X89912500Y-131435800D02*
X87252500Y-131435800D01*
%TO.C,J6*%
X90640500Y-78392100D02*
X90640500Y-82842100D01*
X90640500Y-84242100D02*
X90640500Y-86542100D01*
X90640500Y-87942100D02*
X90640500Y-88662100D01*
X90640500Y-88662100D02*
X93320500Y-88662100D01*
X95620500Y-88662100D02*
X99290500Y-88662100D01*
X101590500Y-88662100D02*
X102820500Y-88662100D01*
X102820500Y-88662100D02*
X102820500Y-78842100D01*
X92120500Y-77022100D02*
X92980500Y-77022100D01*
%TO.C,J2*%
X90077600Y-98212600D02*
X87417600Y-98212600D01*
X90077600Y-105892600D02*
X90077600Y-98212600D01*
X87417600Y-105892600D02*
X87417600Y-98212600D01*
X90077600Y-105892600D02*
X87417600Y-105892600D01*
X90077600Y-107162600D02*
X90077600Y-108492600D01*
X90077600Y-108492600D02*
X88747600Y-108492600D01*
D13*
%TO.C,J4*%
X92738800Y-142201900D02*
G75*
G03*
X92738800Y-142201900I-100000J0D01*
G01*
D17*
X103288800Y-144701900D02*
X93288800Y-144701900D01*
X103288800Y-139801900D02*
X93288800Y-139801900D01*
X103288800Y-139801900D02*
X103288800Y-144701900D01*
X93288800Y-144701900D02*
X93288800Y-139801900D01*
%TD*%
%TO.C,J1*%
D10*
X91741666Y-140803380D02*
X91741666Y-141517666D01*
X91694047Y-141660523D01*
X91598809Y-141755761D01*
X91455952Y-141803380D01*
X91360714Y-141803380D01*
X92741666Y-141803380D02*
X92170238Y-141803380D01*
X92455952Y-141803380D02*
X92455952Y-140803380D01*
X92360714Y-140946238D01*
X92265476Y-141041476D01*
X92170238Y-141089095D01*
%TO.C,J3*%
X95768506Y-144950386D02*
X95768506Y-145450386D01*
X95735173Y-145550386D01*
X95668506Y-145617053D01*
X95568506Y-145650386D01*
X95501840Y-145650386D01*
X96035173Y-144950386D02*
X96468506Y-144950386D01*
X96235173Y-145217053D01*
X96335173Y-145217053D01*
X96401840Y-145250386D01*
X96435173Y-145283720D01*
X96468506Y-145350386D01*
X96468506Y-145517053D01*
X96435173Y-145583720D01*
X96401840Y-145617053D01*
X96335173Y-145650386D01*
X96135173Y-145650386D01*
X96068506Y-145617053D01*
X96035173Y-145583720D01*
%TO.C,J5*%
X108124666Y-78751180D02*
X108124666Y-79465466D01*
X108077047Y-79608323D01*
X107981809Y-79703561D01*
X107838952Y-79751180D01*
X107743714Y-79751180D01*
X109077047Y-78751180D02*
X108600857Y-78751180D01*
X108553238Y-79227371D01*
X108600857Y-79179752D01*
X108696095Y-79132133D01*
X108934190Y-79132133D01*
X109029428Y-79179752D01*
X109077047Y-79227371D01*
X109124666Y-79322609D01*
X109124666Y-79560704D01*
X109077047Y-79655942D01*
X109029428Y-79703561D01*
X108934190Y-79751180D01*
X108696095Y-79751180D01*
X108600857Y-79703561D01*
X108553238Y-79655942D01*
%TO.C,SW1*%
X93363681Y-127500213D02*
X93411300Y-127357356D01*
X93411300Y-127119260D01*
X93363681Y-127024022D01*
X93316062Y-126976403D01*
X93220824Y-126928784D01*
X93125586Y-126928784D01*
X93030348Y-126976403D01*
X92982729Y-127024022D01*
X92935110Y-127119260D01*
X92887491Y-127309737D01*
X92839872Y-127404975D01*
X92792253Y-127452594D01*
X92697015Y-127500213D01*
X92601777Y-127500213D01*
X92506539Y-127452594D01*
X92458920Y-127404975D01*
X92411300Y-127309737D01*
X92411300Y-127071641D01*
X92458920Y-126928784D01*
X92411300Y-126595451D02*
X93411300Y-126357356D01*
X92697015Y-126166880D01*
X93411300Y-125976403D01*
X92411300Y-125738308D01*
X93411300Y-124833546D02*
X93411300Y-125404975D01*
X93411300Y-125119260D02*
X92411300Y-125119260D01*
X92554158Y-125214499D01*
X92649396Y-125309737D01*
X92697015Y-125404975D01*
%TO.C,J8*%
X88190746Y-130191260D02*
X88190746Y-130905546D01*
X88143127Y-131048403D01*
X88047889Y-131143641D01*
X87905032Y-131191260D01*
X87809794Y-131191260D01*
X88809794Y-130619832D02*
X88714556Y-130572213D01*
X88666937Y-130524594D01*
X88619318Y-130429356D01*
X88619318Y-130381737D01*
X88666937Y-130286499D01*
X88714556Y-130238880D01*
X88809794Y-130191260D01*
X89000270Y-130191260D01*
X89095508Y-130238880D01*
X89143127Y-130286499D01*
X89190746Y-130381737D01*
X89190746Y-130429356D01*
X89143127Y-130524594D01*
X89095508Y-130572213D01*
X89000270Y-130619832D01*
X88809794Y-130619832D01*
X88714556Y-130667451D01*
X88666937Y-130715070D01*
X88619318Y-130810308D01*
X88619318Y-131000784D01*
X88666937Y-131096022D01*
X88714556Y-131143641D01*
X88809794Y-131191260D01*
X89000270Y-131191260D01*
X89095508Y-131143641D01*
X89143127Y-131096022D01*
X89190746Y-131000784D01*
X89190746Y-130810308D01*
X89143127Y-130715070D01*
X89095508Y-130667451D01*
X89000270Y-130619832D01*
%TO.C,J6*%
X102957380Y-79708333D02*
X103671666Y-79708333D01*
X103814523Y-79755952D01*
X103909761Y-79851190D01*
X103957380Y-79994047D01*
X103957380Y-80089285D01*
X102957380Y-78803571D02*
X102957380Y-78994047D01*
X103005000Y-79089285D01*
X103052619Y-79136904D01*
X103195476Y-79232142D01*
X103385952Y-79279761D01*
X103766904Y-79279761D01*
X103862142Y-79232142D01*
X103909761Y-79184523D01*
X103957380Y-79089285D01*
X103957380Y-78898809D01*
X103909761Y-78803571D01*
X103862142Y-78755952D01*
X103766904Y-78708333D01*
X103528809Y-78708333D01*
X103433571Y-78755952D01*
X103385952Y-78803571D01*
X103338333Y-78898809D01*
X103338333Y-79089285D01*
X103385952Y-79184523D01*
X103433571Y-79232142D01*
X103528809Y-79279761D01*
%TO.C,J2*%
X88414266Y-108944980D02*
X88414266Y-109659266D01*
X88366647Y-109802123D01*
X88271409Y-109897361D01*
X88128552Y-109944980D01*
X88033314Y-109944980D01*
X88842838Y-109040219D02*
X88890457Y-108992600D01*
X88985695Y-108944980D01*
X89223790Y-108944980D01*
X89319028Y-108992600D01*
X89366647Y-109040219D01*
X89414266Y-109135457D01*
X89414266Y-109230695D01*
X89366647Y-109373552D01*
X88795219Y-109944980D01*
X89414266Y-109944980D01*
%TO.C,J4*%
X102130266Y-138436100D02*
X102130266Y-139150386D01*
X102082647Y-139293243D01*
X101987409Y-139388481D01*
X101844552Y-139436100D01*
X101749314Y-139436100D01*
X103035028Y-138769434D02*
X103035028Y-139436100D01*
X102796933Y-138388481D02*
X102558838Y-139102767D01*
X103177885Y-139102767D01*
%TD*%
M02*
